G75*
%MOIN*%
%OFA0B0*%
%FSLAX25Y25*%
%IPPOS*%
%LPD*%
%AMOC8*
5,1,8,0,0,1.08239X$1,22.5*
%
%ADD10C,0.00800*%
%ADD11R,0.05906X0.05906*%
%ADD12C,0.05906*%
%ADD13C,0.05906*%
%ADD14C,0.10000*%
%ADD15R,0.09000X0.09000*%
%ADD16C,0.10500*%
%ADD17C,0.02400*%
%ADD18C,0.03600*%
%ADD19C,0.01000*%
D10*
X0170488Y0158733D02*
X0169421Y0159801D01*
X0169421Y0160868D01*
X0170488Y0161936D01*
X0170568Y0164733D02*
X0170568Y0166868D01*
X0171102Y0166868D01*
X0170568Y0167936D02*
X0170568Y0168470D01*
X0170501Y0170733D02*
X0170501Y0172335D01*
X0171035Y0172868D01*
X0172103Y0172868D01*
X0172637Y0172335D01*
X0174024Y0172868D02*
X0175092Y0172868D01*
X0174558Y0173402D02*
X0174558Y0171267D01*
X0174024Y0170733D01*
X0172637Y0170733D02*
X0172637Y0173936D01*
X0168953Y0172335D02*
X0168953Y0171267D01*
X0168420Y0170733D01*
X0167352Y0170733D01*
X0166818Y0171801D02*
X0168953Y0171801D01*
X0168953Y0172335D02*
X0168420Y0172868D01*
X0167352Y0172868D01*
X0166818Y0172335D01*
X0166818Y0171801D01*
X0174785Y0167936D02*
X0174785Y0164733D01*
X0172650Y0164733D01*
X0171102Y0164733D02*
X0170034Y0164733D01*
X0168647Y0165267D02*
X0168113Y0164733D01*
X0166511Y0164733D01*
X0164963Y0165267D02*
X0164963Y0166335D01*
X0164430Y0166868D01*
X0163362Y0166868D01*
X0162828Y0166335D01*
X0162828Y0165801D01*
X0164963Y0165801D01*
X0164963Y0165267D02*
X0164430Y0164733D01*
X0163362Y0164733D01*
X0161280Y0164733D02*
X0161280Y0166868D01*
X0159679Y0166868D01*
X0159145Y0166335D01*
X0159145Y0164733D01*
X0157597Y0164733D02*
X0155996Y0164733D01*
X0155462Y0165267D01*
X0155996Y0165801D01*
X0157063Y0165801D01*
X0157597Y0166335D01*
X0157063Y0166868D01*
X0155462Y0166868D01*
X0153914Y0166335D02*
X0153380Y0166868D01*
X0152313Y0166868D01*
X0151779Y0166335D01*
X0151779Y0165801D01*
X0153914Y0165801D01*
X0153914Y0165267D02*
X0153914Y0166335D01*
X0153914Y0165267D02*
X0153380Y0164733D01*
X0152313Y0164733D01*
X0166511Y0166868D02*
X0168113Y0166868D01*
X0168647Y0166335D01*
X0168647Y0165267D01*
X0174171Y0161936D02*
X0174171Y0158733D01*
X0172036Y0158733D01*
X0175719Y0158733D02*
X0175719Y0161936D01*
X0175719Y0160335D02*
X0177854Y0160335D01*
X0177854Y0161936D02*
X0177854Y0158733D01*
X0179402Y0159267D02*
X0179936Y0158733D01*
X0181004Y0158733D01*
X0181538Y0159267D01*
X0181538Y0161402D01*
X0181004Y0161936D01*
X0179936Y0161936D01*
X0179402Y0161402D01*
X0179402Y0159267D01*
X0183086Y0161936D02*
X0185221Y0158733D01*
X0186769Y0158733D02*
X0188370Y0158733D01*
X0188904Y0159267D01*
X0188904Y0160335D01*
X0188370Y0160868D01*
X0186769Y0160868D01*
X0186769Y0158200D01*
X0187302Y0157666D01*
X0187836Y0157666D01*
X0190372Y0160868D02*
X0190906Y0160868D01*
X0191973Y0159801D01*
X0191973Y0160868D02*
X0191973Y0158733D01*
X0193521Y0159267D02*
X0194055Y0158733D01*
X0195122Y0158733D01*
X0195656Y0159267D01*
X0195656Y0160335D01*
X0195122Y0160868D01*
X0194055Y0160868D01*
X0193521Y0160335D01*
X0193521Y0159267D01*
X0196964Y0159267D02*
X0196964Y0158733D01*
X0197498Y0158733D01*
X0197498Y0159267D01*
X0196964Y0159267D01*
X0198966Y0160868D02*
X0199500Y0160868D01*
X0200567Y0159801D01*
X0200567Y0160868D02*
X0200567Y0158733D01*
X0202115Y0159267D02*
X0202649Y0158733D01*
X0204250Y0158733D01*
X0204250Y0157666D02*
X0204250Y0160868D01*
X0202649Y0160868D01*
X0202115Y0160335D01*
X0202115Y0159267D01*
X0205798Y0158733D02*
X0207400Y0158733D01*
X0207933Y0159267D01*
X0207400Y0159801D01*
X0205798Y0159801D01*
X0205798Y0160335D02*
X0205798Y0158733D01*
X0205798Y0160335D02*
X0206332Y0160868D01*
X0207400Y0160868D01*
X0209321Y0160868D02*
X0210389Y0160868D01*
X0209855Y0161402D02*
X0209855Y0159267D01*
X0209321Y0158733D01*
X0211697Y0158733D02*
X0212230Y0158733D01*
X0212230Y0159267D01*
X0211697Y0159267D01*
X0211697Y0158733D01*
X0213778Y0159267D02*
X0213778Y0160868D01*
X0213778Y0159267D02*
X0214312Y0158733D01*
X0214846Y0159267D01*
X0215380Y0158733D01*
X0215914Y0159267D01*
X0215914Y0160868D01*
X0217462Y0160868D02*
X0217462Y0159267D01*
X0217995Y0158733D01*
X0218529Y0159267D01*
X0219063Y0158733D01*
X0219597Y0159267D01*
X0219597Y0160868D01*
X0221145Y0160868D02*
X0221145Y0159267D01*
X0221678Y0158733D01*
X0222212Y0159267D01*
X0222746Y0158733D01*
X0223280Y0159267D01*
X0223280Y0160868D01*
X0224668Y0161936D02*
X0225735Y0160868D01*
X0225735Y0159801D01*
X0224668Y0158733D01*
X0221438Y0163666D02*
X0221438Y0166868D01*
X0219837Y0166868D01*
X0219303Y0166335D01*
X0219303Y0165267D01*
X0219837Y0164733D01*
X0221438Y0164733D01*
X0222986Y0165267D02*
X0222986Y0167402D01*
X0223520Y0167936D01*
X0224588Y0167936D01*
X0225121Y0167402D01*
X0225121Y0165267D01*
X0224588Y0164733D01*
X0223520Y0164733D01*
X0222986Y0165267D01*
X0217755Y0165267D02*
X0217755Y0166335D01*
X0217221Y0166868D01*
X0216154Y0166868D01*
X0215620Y0166335D01*
X0215620Y0165801D01*
X0217755Y0165801D01*
X0217755Y0165267D02*
X0217221Y0164733D01*
X0216154Y0164733D01*
X0214072Y0164733D02*
X0214072Y0166868D01*
X0212471Y0166868D01*
X0211937Y0166335D01*
X0211937Y0164733D01*
X0206706Y0164733D02*
X0206706Y0167936D01*
X0206706Y0166335D02*
X0204571Y0166335D01*
X0204571Y0167936D02*
X0204571Y0164733D01*
X0203023Y0165267D02*
X0202489Y0165801D01*
X0200887Y0165801D01*
X0200887Y0166335D02*
X0200887Y0164733D01*
X0202489Y0164733D01*
X0203023Y0165267D01*
X0202489Y0166868D02*
X0201421Y0166868D01*
X0200887Y0166335D01*
X0199339Y0166868D02*
X0199339Y0164733D01*
X0199339Y0165801D02*
X0198272Y0166868D01*
X0197738Y0166868D01*
X0196270Y0166335D02*
X0195736Y0166868D01*
X0194135Y0166868D01*
X0194135Y0167936D02*
X0194135Y0164733D01*
X0195736Y0164733D01*
X0196270Y0165267D01*
X0196270Y0166335D01*
X0192587Y0166868D02*
X0192587Y0165267D01*
X0192053Y0164733D01*
X0191519Y0165267D01*
X0190986Y0164733D01*
X0190452Y0165267D01*
X0190452Y0166868D01*
X0188370Y0166868D02*
X0187302Y0166868D01*
X0186769Y0166335D01*
X0186769Y0164733D01*
X0188370Y0164733D01*
X0188904Y0165267D01*
X0188370Y0165801D01*
X0186769Y0165801D01*
X0185221Y0165801D02*
X0184153Y0166868D01*
X0183619Y0166868D01*
X0182151Y0166335D02*
X0181618Y0166868D01*
X0180550Y0166868D01*
X0180016Y0166335D01*
X0180016Y0165801D01*
X0182151Y0165801D01*
X0182151Y0165267D02*
X0182151Y0166335D01*
X0182151Y0165267D02*
X0181618Y0164733D01*
X0180550Y0164733D01*
X0185221Y0164733D02*
X0185221Y0166868D01*
X0184994Y0170733D02*
X0183926Y0170733D01*
X0184994Y0170733D02*
X0185528Y0171267D01*
X0185528Y0172335D01*
X0184994Y0172868D01*
X0183926Y0172868D01*
X0183392Y0172335D01*
X0183392Y0171801D01*
X0185528Y0171801D01*
X0187076Y0172868D02*
X0188677Y0172868D01*
X0189211Y0172335D01*
X0189211Y0171267D01*
X0188677Y0170733D01*
X0187076Y0170733D01*
X0187076Y0173936D01*
X0190759Y0172335D02*
X0190759Y0170733D01*
X0190759Y0172335D02*
X0191293Y0172868D01*
X0192894Y0172868D01*
X0192894Y0170733D01*
X0194442Y0170733D02*
X0194442Y0172868D01*
X0194442Y0170733D02*
X0196043Y0170733D01*
X0196577Y0171267D01*
X0196577Y0172868D01*
X0201808Y0172868D02*
X0203410Y0172868D01*
X0203943Y0172335D01*
X0203943Y0171267D01*
X0203410Y0170733D01*
X0201808Y0170733D01*
X0201808Y0173936D01*
X0205491Y0172335D02*
X0205491Y0171801D01*
X0207626Y0171801D01*
X0207626Y0172335D02*
X0207093Y0172868D01*
X0206025Y0172868D01*
X0205491Y0172335D01*
X0206025Y0170733D02*
X0207093Y0170733D01*
X0207626Y0171267D01*
X0207626Y0172335D01*
X0209174Y0172868D02*
X0210776Y0172868D01*
X0211310Y0172335D01*
X0210776Y0171801D01*
X0209708Y0171801D01*
X0209174Y0171267D01*
X0209708Y0170733D01*
X0211310Y0170733D01*
X0212858Y0170733D02*
X0212858Y0172335D01*
X0213391Y0172868D01*
X0214993Y0172868D01*
X0214993Y0170733D01*
X0216541Y0171801D02*
X0218676Y0171801D01*
X0218676Y0172335D02*
X0218142Y0172868D01*
X0217075Y0172868D01*
X0216541Y0172335D01*
X0216541Y0171801D01*
X0217075Y0170733D02*
X0218142Y0170733D01*
X0218676Y0171267D01*
X0218676Y0172335D01*
X0220224Y0172868D02*
X0221825Y0172868D01*
X0222359Y0172335D01*
X0222359Y0171267D01*
X0221825Y0170733D01*
X0220224Y0170733D01*
X0223747Y0170733D02*
X0224814Y0170733D01*
X0224281Y0170733D02*
X0224281Y0172868D01*
X0224814Y0172868D01*
X0224281Y0173936D02*
X0224281Y0174470D01*
X0228498Y0173936D02*
X0228498Y0170733D01*
X0226362Y0170733D01*
X0230353Y0167402D02*
X0230353Y0166335D01*
X0230886Y0165801D01*
X0232488Y0165801D01*
X0232488Y0164733D02*
X0232488Y0167936D01*
X0230886Y0167936D01*
X0230353Y0167402D01*
X0231420Y0165801D02*
X0230353Y0164733D01*
X0234036Y0166335D02*
X0234036Y0167402D01*
X0234570Y0167936D01*
X0236171Y0167936D01*
X0236171Y0164733D01*
X0236171Y0165801D02*
X0234570Y0165801D01*
X0234036Y0166335D01*
X0237719Y0166335D02*
X0239854Y0166335D01*
X0239854Y0166868D02*
X0238786Y0167936D01*
X0237719Y0166868D01*
X0237719Y0164733D01*
X0239854Y0164733D02*
X0239854Y0166868D01*
X0241402Y0167936D02*
X0243537Y0167936D01*
X0242470Y0167936D02*
X0242470Y0164733D01*
X0181844Y0170733D02*
X0181844Y0172868D01*
X0180777Y0172868D02*
X0180243Y0172868D01*
X0180777Y0172868D02*
X0181844Y0171801D01*
X0154284Y0294833D02*
X0144284Y0294833D01*
X0144284Y0359333D01*
X0147784Y0362833D01*
X0213430Y0362833D01*
X0219737Y0356526D01*
D11*
X0149737Y0346526D03*
D12*
X0159737Y0346526D03*
X0169737Y0346526D03*
X0179737Y0346526D03*
X0189737Y0346526D03*
X0199737Y0346526D03*
X0209737Y0346526D03*
X0219737Y0346526D03*
X0229737Y0346526D03*
X0239737Y0346526D03*
X0249737Y0346526D03*
X0259737Y0346526D03*
X0269737Y0346526D03*
X0279737Y0346526D03*
X0289737Y0346526D03*
X0299737Y0346526D03*
X0309737Y0346526D03*
X0319737Y0346526D03*
X0329737Y0346526D03*
X0339737Y0346526D03*
X0339737Y0356526D03*
X0329737Y0356526D03*
X0319737Y0356526D03*
X0309737Y0356526D03*
X0299737Y0356526D03*
X0289737Y0356526D03*
X0279737Y0356526D03*
X0269737Y0356526D03*
X0259737Y0356526D03*
X0249737Y0356526D03*
X0239737Y0356526D03*
X0229737Y0356526D03*
X0219737Y0356526D03*
X0209737Y0356526D03*
X0199737Y0356526D03*
X0189737Y0356526D03*
X0179737Y0356526D03*
X0169737Y0356526D03*
X0159737Y0356526D03*
X0149737Y0356526D03*
D13*
X0151331Y0324833D02*
X0157237Y0324833D01*
X0157237Y0314833D02*
X0151331Y0314833D01*
X0151331Y0304833D02*
X0157237Y0304833D01*
X0157237Y0294833D02*
X0151331Y0294833D01*
D14*
X0171284Y0183833D03*
X0228284Y0183833D03*
D15*
X0261784Y0158333D03*
X0261784Y0231333D03*
D16*
X0215284Y0245833D03*
X0184284Y0245833D03*
D17*
X0141773Y0149888D02*
X0139758Y0148033D01*
X0286812Y0148033D01*
X0286812Y0232084D01*
X0287299Y0233260D01*
X0288200Y0234160D01*
X0289376Y0234647D01*
X0298523Y0234647D01*
X0299699Y0234160D01*
X0300599Y0233260D01*
X0301086Y0232084D01*
X0301086Y0148033D01*
X0349486Y0148033D01*
X0349289Y0148162D01*
X0349289Y0148162D01*
X0349289Y0148162D01*
X0346417Y0151852D01*
X0346417Y0151852D01*
X0344899Y0156275D01*
X0344899Y0160951D01*
X0346417Y0165374D01*
X0346417Y0165374D01*
X0349289Y0169064D01*
X0349289Y0169064D01*
X0349289Y0169064D01*
X0353204Y0171621D01*
X0353204Y0171621D01*
X0357737Y0172769D01*
X0357737Y0172769D01*
X0362397Y0172383D01*
X0362397Y0172383D01*
X0366679Y0170505D01*
X0366679Y0170505D01*
X0369489Y0167917D01*
X0369489Y0342222D01*
X0366679Y0339635D01*
X0366679Y0339635D01*
X0362397Y0337756D01*
X0362397Y0337756D01*
X0357737Y0337370D01*
X0357737Y0337370D01*
X0353204Y0338518D01*
X0353204Y0338518D01*
X0349289Y0341075D01*
X0349289Y0341075D01*
X0349289Y0341075D01*
X0346417Y0344766D01*
X0346417Y0344766D01*
X0344899Y0349188D01*
X0344899Y0353864D01*
X0346417Y0358287D01*
X0346417Y0358287D01*
X0349289Y0361977D01*
X0349289Y0361977D01*
X0349486Y0362106D01*
X0217551Y0362106D01*
X0218346Y0361311D01*
X0218752Y0361479D01*
X0220722Y0361479D01*
X0222542Y0360725D01*
X0223935Y0359332D01*
X0224689Y0357511D01*
X0224689Y0355541D01*
X0223935Y0353721D01*
X0222542Y0352327D01*
X0220722Y0351573D01*
X0218752Y0351573D01*
X0216931Y0352327D01*
X0215538Y0353721D01*
X0214794Y0355517D01*
X0214763Y0355320D01*
X0214512Y0354548D01*
X0214144Y0353826D01*
X0213667Y0353169D01*
X0213094Y0352596D01*
X0212437Y0352119D01*
X0211715Y0351751D01*
X0210943Y0351500D01*
X0210746Y0351469D01*
X0212542Y0350725D01*
X0213935Y0349332D01*
X0214689Y0347511D01*
X0214689Y0345541D01*
X0213935Y0343721D01*
X0212542Y0342327D01*
X0210722Y0341573D01*
X0208752Y0341573D01*
X0206931Y0342327D01*
X0205538Y0343721D01*
X0204784Y0345541D01*
X0204784Y0347511D01*
X0205538Y0349332D01*
X0206931Y0350725D01*
X0208728Y0351469D01*
X0208530Y0351500D01*
X0207759Y0351751D01*
X0207036Y0352119D01*
X0206380Y0352596D01*
X0205806Y0353169D01*
X0205330Y0353826D01*
X0204961Y0354548D01*
X0204711Y0355320D01*
X0204680Y0355517D01*
X0203935Y0353721D01*
X0202542Y0352327D01*
X0200722Y0351573D01*
X0198752Y0351573D01*
X0196931Y0352327D01*
X0195538Y0353721D01*
X0194784Y0355541D01*
X0194784Y0357511D01*
X0195538Y0359332D01*
X0196640Y0360433D01*
X0192834Y0360433D01*
X0193935Y0359332D01*
X0194689Y0357511D01*
X0194689Y0355541D01*
X0193935Y0353721D01*
X0192542Y0352327D01*
X0190746Y0351583D01*
X0190943Y0351552D01*
X0191715Y0351301D01*
X0192437Y0350933D01*
X0193094Y0350457D01*
X0193667Y0349883D01*
X0194144Y0349227D01*
X0194512Y0348504D01*
X0194763Y0347733D01*
X0194794Y0347535D01*
X0195538Y0349332D01*
X0196931Y0350725D01*
X0198752Y0351479D01*
X0200722Y0351479D01*
X0202542Y0350725D01*
X0203935Y0349332D01*
X0204689Y0347511D01*
X0204689Y0345541D01*
X0203935Y0343721D01*
X0202542Y0342327D01*
X0200722Y0341573D01*
X0198752Y0341573D01*
X0196931Y0342327D01*
X0195538Y0343721D01*
X0194794Y0345517D01*
X0194763Y0345320D01*
X0194512Y0344548D01*
X0194144Y0343826D01*
X0193667Y0343169D01*
X0193094Y0342596D01*
X0192437Y0342119D01*
X0191715Y0341751D01*
X0190943Y0341500D01*
X0190142Y0341373D01*
X0189737Y0341373D01*
X0189737Y0346526D01*
X0189737Y0346526D01*
X0189737Y0341373D01*
X0189331Y0341373D01*
X0188530Y0341500D01*
X0187759Y0341751D01*
X0187036Y0342119D01*
X0186380Y0342596D01*
X0185806Y0343169D01*
X0185330Y0343826D01*
X0184961Y0344548D01*
X0184711Y0345320D01*
X0184680Y0345517D01*
X0183935Y0343721D01*
X0182542Y0342327D01*
X0180722Y0341573D01*
X0178752Y0341573D01*
X0176931Y0342327D01*
X0175538Y0343721D01*
X0174784Y0345541D01*
X0174784Y0347511D01*
X0175538Y0349332D01*
X0176931Y0350725D01*
X0178752Y0351479D01*
X0180722Y0351479D01*
X0182542Y0350725D01*
X0183935Y0349332D01*
X0184680Y0347535D01*
X0184711Y0347733D01*
X0184961Y0348504D01*
X0185330Y0349227D01*
X0185806Y0349883D01*
X0186380Y0350457D01*
X0187036Y0350933D01*
X0187759Y0351301D01*
X0188530Y0351552D01*
X0188728Y0351583D01*
X0186931Y0352327D01*
X0185538Y0353721D01*
X0184784Y0355541D01*
X0184784Y0357511D01*
X0185538Y0359332D01*
X0186640Y0360433D01*
X0182834Y0360433D01*
X0183935Y0359332D01*
X0184689Y0357511D01*
X0184689Y0355541D01*
X0183935Y0353721D01*
X0182542Y0352327D01*
X0180722Y0351573D01*
X0178752Y0351573D01*
X0176931Y0352327D01*
X0175538Y0353721D01*
X0174794Y0355517D01*
X0174763Y0355320D01*
X0174512Y0354548D01*
X0174144Y0353826D01*
X0173667Y0353169D01*
X0173094Y0352596D01*
X0172437Y0352119D01*
X0171715Y0351751D01*
X0170943Y0351500D01*
X0170746Y0351469D01*
X0172542Y0350725D01*
X0173935Y0349332D01*
X0174689Y0347511D01*
X0174689Y0345541D01*
X0173935Y0343721D01*
X0172542Y0342327D01*
X0170722Y0341573D01*
X0168752Y0341573D01*
X0166931Y0342327D01*
X0165538Y0343721D01*
X0164784Y0345541D01*
X0164784Y0347511D01*
X0165538Y0349332D01*
X0166931Y0350725D01*
X0168728Y0351469D01*
X0168530Y0351500D01*
X0167759Y0351751D01*
X0167036Y0352119D01*
X0166380Y0352596D01*
X0165806Y0353169D01*
X0165330Y0353826D01*
X0164961Y0354548D01*
X0164711Y0355320D01*
X0164680Y0355517D01*
X0163935Y0353721D01*
X0162542Y0352327D01*
X0160722Y0351573D01*
X0158752Y0351573D01*
X0156931Y0352327D01*
X0155538Y0353721D01*
X0154784Y0355541D01*
X0154784Y0357511D01*
X0155538Y0359332D01*
X0156640Y0360433D01*
X0152834Y0360433D01*
X0153935Y0359332D01*
X0154689Y0357511D01*
X0154689Y0355541D01*
X0153935Y0353721D01*
X0152542Y0352327D01*
X0150722Y0351573D01*
X0148752Y0351573D01*
X0146931Y0352327D01*
X0146684Y0352575D01*
X0146684Y0351479D01*
X0153518Y0351479D01*
X0154689Y0350307D01*
X0154689Y0342745D01*
X0153518Y0341573D01*
X0146684Y0341573D01*
X0146684Y0327062D01*
X0146924Y0327534D01*
X0147401Y0328190D01*
X0147974Y0328764D01*
X0148631Y0329240D01*
X0149353Y0329609D01*
X0150125Y0329859D01*
X0150926Y0329986D01*
X0154284Y0329986D01*
X0154284Y0324833D01*
X0154284Y0324833D01*
X0162389Y0324833D01*
X0162389Y0324428D01*
X0162263Y0323627D01*
X0162012Y0322855D01*
X0161644Y0322133D01*
X0161167Y0321477D01*
X0160594Y0320903D01*
X0159937Y0320426D01*
X0159215Y0320058D01*
X0158443Y0319807D01*
X0158246Y0319776D01*
X0160042Y0319032D01*
X0161435Y0317639D01*
X0162189Y0315818D01*
X0162189Y0313848D01*
X0161435Y0312028D01*
X0160042Y0310635D01*
X0158246Y0309890D01*
X0158443Y0309859D01*
X0159215Y0309609D01*
X0159937Y0309240D01*
X0160594Y0308764D01*
X0161167Y0308190D01*
X0161644Y0307534D01*
X0162012Y0306811D01*
X0162263Y0306040D01*
X0162389Y0305239D01*
X0162389Y0304833D01*
X0154284Y0304833D01*
X0154284Y0304833D01*
X0162389Y0304833D01*
X0162389Y0304428D01*
X0162263Y0303627D01*
X0162012Y0302855D01*
X0161644Y0302133D01*
X0161167Y0301477D01*
X0160594Y0300903D01*
X0159937Y0300426D01*
X0159215Y0300058D01*
X0158443Y0299807D01*
X0158246Y0299776D01*
X0160042Y0299032D01*
X0161435Y0297639D01*
X0162189Y0295818D01*
X0162189Y0293848D01*
X0161435Y0292028D01*
X0160042Y0290635D01*
X0158222Y0289881D01*
X0150346Y0289881D01*
X0148526Y0290635D01*
X0147132Y0292028D01*
X0146964Y0292433D01*
X0143807Y0292433D01*
X0143606Y0292516D01*
X0143606Y0215063D01*
X0143119Y0213887D01*
X0142219Y0212987D01*
X0141043Y0212499D01*
X0119984Y0212499D01*
X0119984Y0167832D01*
X0120943Y0169064D01*
X0120943Y0169064D01*
X0124858Y0171621D01*
X0129390Y0172769D01*
X0129390Y0172769D01*
X0134051Y0172383D01*
X0134051Y0172383D01*
X0138333Y0170505D01*
X0138333Y0170505D01*
X0141773Y0167338D01*
X0141773Y0167338D01*
X0141773Y0167338D01*
X0143999Y0163225D01*
X0143999Y0163225D01*
X0144768Y0158613D01*
X0143999Y0154001D01*
X0143999Y0154001D01*
X0141773Y0149888D01*
X0141773Y0149888D01*
X0141493Y0149630D02*
X0146330Y0149630D01*
X0146177Y0149783D02*
X0146734Y0149226D01*
X0147389Y0148789D01*
X0148117Y0148487D01*
X0148890Y0148333D01*
X0149284Y0148333D01*
X0149678Y0148333D01*
X0150451Y0148487D01*
X0151179Y0148789D01*
X0151834Y0149226D01*
X0152391Y0149783D01*
X0152829Y0150439D01*
X0153130Y0151167D01*
X0153284Y0151939D01*
X0153284Y0152333D01*
X0149284Y0152333D01*
X0149284Y0148333D01*
X0149284Y0152333D01*
X0149284Y0152333D01*
X0149284Y0152333D01*
X0145284Y0152333D01*
X0145284Y0151939D01*
X0145438Y0151167D01*
X0145739Y0150439D01*
X0146177Y0149783D01*
X0145284Y0152029D02*
X0142931Y0152029D01*
X0145284Y0152333D02*
X0149284Y0152333D01*
X0149284Y0152333D01*
X0153284Y0152333D01*
X0153284Y0152727D01*
X0153130Y0153500D01*
X0152829Y0154228D01*
X0152391Y0154883D01*
X0151834Y0155440D01*
X0151179Y0155878D01*
X0150451Y0156180D01*
X0149678Y0156333D01*
X0149284Y0156333D01*
X0149284Y0152333D01*
X0149284Y0152333D01*
X0149284Y0156333D01*
X0148890Y0156333D01*
X0148117Y0156180D01*
X0147389Y0155878D01*
X0146734Y0155440D01*
X0146177Y0154883D01*
X0145739Y0154228D01*
X0145438Y0153500D01*
X0145284Y0152727D01*
X0145284Y0152333D01*
X0145872Y0154427D02*
X0144070Y0154427D01*
X0144470Y0156826D02*
X0169001Y0156826D01*
X0169129Y0156699D02*
X0170011Y0156333D01*
X0170966Y0156333D01*
X0171262Y0156456D01*
X0171559Y0156333D01*
X0174649Y0156333D01*
X0174945Y0156456D01*
X0175242Y0156333D01*
X0176197Y0156333D01*
X0176787Y0156578D01*
X0177377Y0156333D01*
X0178332Y0156333D01*
X0178895Y0156567D01*
X0179459Y0156333D01*
X0181481Y0156333D01*
X0182363Y0156699D01*
X0183038Y0157374D01*
X0183161Y0157496D01*
X0183489Y0157005D01*
X0184282Y0156474D01*
X0185218Y0156286D01*
X0185276Y0156298D01*
X0185409Y0156165D01*
X0185943Y0155631D01*
X0186825Y0155266D01*
X0188314Y0155266D01*
X0189196Y0155631D01*
X0189871Y0156306D01*
X0190203Y0157109D01*
X0190614Y0156699D01*
X0191496Y0156333D01*
X0192451Y0156333D01*
X0193014Y0156567D01*
X0193578Y0156333D01*
X0195600Y0156333D01*
X0196043Y0156517D01*
X0196487Y0156333D01*
X0197975Y0156333D01*
X0198857Y0156699D01*
X0199032Y0156874D01*
X0199208Y0156699D01*
X0200090Y0156333D01*
X0201045Y0156333D01*
X0201608Y0156567D01*
X0202172Y0156333D01*
X0202204Y0156333D01*
X0202216Y0156306D01*
X0202891Y0155631D01*
X0203773Y0155266D01*
X0204728Y0155266D01*
X0205610Y0155631D01*
X0206285Y0156306D01*
X0206296Y0156333D01*
X0207877Y0156333D01*
X0208360Y0156534D01*
X0208844Y0156333D01*
X0209799Y0156333D01*
X0210509Y0156628D01*
X0211219Y0156333D01*
X0212708Y0156333D01*
X0213271Y0156567D01*
X0213835Y0156333D01*
X0214790Y0156333D01*
X0214846Y0156357D01*
X0214902Y0156333D01*
X0215857Y0156333D01*
X0216688Y0156677D01*
X0216798Y0156632D01*
X0217518Y0156333D01*
X0218473Y0156333D01*
X0218529Y0156357D01*
X0218586Y0156333D01*
X0219540Y0156333D01*
X0220371Y0156677D01*
X0220481Y0156632D01*
X0221201Y0156333D01*
X0222156Y0156333D01*
X0222212Y0156357D01*
X0222269Y0156333D01*
X0223223Y0156333D01*
X0223707Y0156534D01*
X0224190Y0156333D01*
X0225145Y0156333D01*
X0226027Y0156699D01*
X0227095Y0157766D01*
X0227770Y0158441D01*
X0228135Y0159323D01*
X0228135Y0161346D01*
X0227988Y0161701D01*
X0227770Y0162228D01*
X0226623Y0163375D01*
X0227156Y0163908D01*
X0227521Y0164790D01*
X0227521Y0167880D01*
X0227334Y0168333D01*
X0228140Y0168333D01*
X0227953Y0167880D01*
X0227953Y0165857D01*
X0228086Y0165534D01*
X0227953Y0165211D01*
X0227953Y0164256D01*
X0228318Y0163374D01*
X0228993Y0162699D01*
X0229875Y0162333D01*
X0230830Y0162333D01*
X0231420Y0162578D01*
X0232010Y0162333D01*
X0232965Y0162333D01*
X0233847Y0162699D01*
X0234329Y0163181D01*
X0234811Y0162699D01*
X0235693Y0162333D01*
X0236648Y0162333D01*
X0236945Y0162456D01*
X0237241Y0162333D01*
X0238196Y0162333D01*
X0238786Y0162578D01*
X0239377Y0162333D01*
X0240331Y0162333D01*
X0241162Y0162677D01*
X0241992Y0162333D01*
X0242947Y0162333D01*
X0243829Y0162699D01*
X0244504Y0163374D01*
X0244870Y0164256D01*
X0244870Y0165890D01*
X0244897Y0165901D01*
X0245572Y0166577D01*
X0245937Y0167459D01*
X0245937Y0168413D01*
X0245572Y0169296D01*
X0244897Y0169971D01*
X0244015Y0170336D01*
X0240925Y0170336D01*
X0240094Y0169992D01*
X0239264Y0170336D01*
X0238309Y0170336D01*
X0237933Y0170180D01*
X0237479Y0169992D01*
X0236648Y0170336D01*
X0234092Y0170336D01*
X0233529Y0170103D01*
X0232965Y0170336D01*
X0230898Y0170336D01*
X0230898Y0174413D01*
X0230532Y0175296D01*
X0229857Y0175971D01*
X0228975Y0176336D01*
X0228020Y0176336D01*
X0227138Y0175971D01*
X0226515Y0175347D01*
X0226315Y0175829D01*
X0225640Y0176504D01*
X0224758Y0176870D01*
X0223803Y0176870D01*
X0222921Y0176504D01*
X0222246Y0175829D01*
X0222014Y0175268D01*
X0219747Y0175268D01*
X0219183Y0175035D01*
X0218620Y0175268D01*
X0216597Y0175268D01*
X0216034Y0175035D01*
X0215470Y0175268D01*
X0212914Y0175268D01*
X0212084Y0174924D01*
X0211253Y0175268D01*
X0208697Y0175268D01*
X0208134Y0175035D01*
X0207570Y0175268D01*
X0205548Y0175268D01*
X0204717Y0174925D01*
X0203887Y0175268D01*
X0203854Y0175268D01*
X0203843Y0175296D01*
X0203168Y0175971D01*
X0202286Y0176336D01*
X0201331Y0176336D01*
X0200449Y0175971D01*
X0199774Y0175296D01*
X0199408Y0174413D01*
X0199408Y0170256D01*
X0199774Y0169374D01*
X0199923Y0169225D01*
X0199817Y0169268D01*
X0198862Y0169268D01*
X0198806Y0169245D01*
X0198749Y0169268D01*
X0197973Y0169268D01*
X0198078Y0169374D01*
X0198612Y0169908D01*
X0198977Y0170790D01*
X0198977Y0173346D01*
X0198612Y0174228D01*
X0197937Y0174903D01*
X0197054Y0175268D01*
X0196100Y0175268D01*
X0195509Y0175024D01*
X0194919Y0175268D01*
X0193965Y0175268D01*
X0193668Y0175146D01*
X0193371Y0175268D01*
X0190815Y0175268D01*
X0189985Y0174924D01*
X0189154Y0175268D01*
X0189121Y0175268D01*
X0189110Y0175296D01*
X0188435Y0175971D01*
X0187553Y0176336D01*
X0186598Y0176336D01*
X0185716Y0175971D01*
X0185041Y0175296D01*
X0185030Y0175268D01*
X0183449Y0175268D01*
X0182885Y0175035D01*
X0182322Y0175268D01*
X0181367Y0175268D01*
X0181311Y0175245D01*
X0181254Y0175268D01*
X0179766Y0175268D01*
X0178884Y0174903D01*
X0178208Y0174228D01*
X0177843Y0173346D01*
X0177843Y0172391D01*
X0178208Y0171509D01*
X0178884Y0170834D01*
X0179444Y0170602D01*
X0179444Y0170256D01*
X0179810Y0169374D01*
X0179961Y0169222D01*
X0179191Y0168903D01*
X0178657Y0168369D01*
X0177982Y0167694D01*
X0177616Y0166812D01*
X0177616Y0165323D01*
X0177982Y0164441D01*
X0178087Y0164336D01*
X0177377Y0164336D01*
X0177185Y0164257D01*
X0177185Y0168413D01*
X0176820Y0169296D01*
X0176400Y0169715D01*
X0176593Y0169908D01*
X0176958Y0170790D01*
X0176958Y0171341D01*
X0177127Y0171509D01*
X0177492Y0172391D01*
X0177492Y0173346D01*
X0177127Y0174228D01*
X0176593Y0174762D01*
X0176593Y0174762D01*
X0175918Y0175437D01*
X0175036Y0175802D01*
X0174165Y0175802D01*
X0173996Y0175971D01*
X0173114Y0176336D01*
X0172159Y0176336D01*
X0171277Y0175971D01*
X0170602Y0175296D01*
X0170591Y0175268D01*
X0170558Y0175268D01*
X0169727Y0174925D01*
X0168897Y0175268D01*
X0166875Y0175268D01*
X0165993Y0174903D01*
X0165459Y0174369D01*
X0164784Y0173694D01*
X0164418Y0172812D01*
X0164418Y0171323D01*
X0164784Y0170441D01*
X0164952Y0170273D01*
X0164952Y0170256D01*
X0165317Y0169374D01*
X0165602Y0169089D01*
X0165471Y0169035D01*
X0164907Y0169268D01*
X0162885Y0169268D01*
X0162321Y0169035D01*
X0161758Y0169268D01*
X0159202Y0169268D01*
X0158371Y0168925D01*
X0157541Y0169268D01*
X0154985Y0169268D01*
X0154421Y0169035D01*
X0153858Y0169268D01*
X0151835Y0169268D01*
X0150953Y0168903D01*
X0150419Y0168369D01*
X0149744Y0167694D01*
X0149379Y0166812D01*
X0149379Y0165323D01*
X0149744Y0164441D01*
X0149913Y0164273D01*
X0149913Y0164256D01*
X0150278Y0163374D01*
X0150953Y0162699D01*
X0151835Y0162333D01*
X0153858Y0162333D01*
X0154688Y0162677D01*
X0155518Y0162333D01*
X0158075Y0162333D01*
X0158371Y0162456D01*
X0158668Y0162333D01*
X0159623Y0162333D01*
X0160213Y0162578D01*
X0160803Y0162333D01*
X0161758Y0162333D01*
X0162321Y0162567D01*
X0162885Y0162333D01*
X0164907Y0162333D01*
X0165471Y0162567D01*
X0166034Y0162333D01*
X0167491Y0162333D01*
X0167386Y0162228D01*
X0167168Y0161701D01*
X0167021Y0161346D01*
X0167021Y0159323D01*
X0167386Y0158441D01*
X0168061Y0157766D01*
X0169129Y0156699D01*
X0167062Y0159224D02*
X0144666Y0159224D01*
X0144266Y0161623D02*
X0167135Y0161623D01*
X0164462Y0171217D02*
X0136709Y0171217D01*
X0140164Y0168818D02*
X0150868Y0168818D01*
X0149379Y0166420D02*
X0142270Y0166420D01*
X0143568Y0164021D02*
X0150010Y0164021D01*
X0149678Y0173333D02*
X0150451Y0173487D01*
X0151179Y0173789D01*
X0151834Y0174226D01*
X0152391Y0174783D01*
X0152829Y0175439D01*
X0153130Y0176167D01*
X0153284Y0176939D01*
X0153284Y0177333D01*
X0149284Y0177333D01*
X0149284Y0173333D01*
X0149678Y0173333D01*
X0149284Y0173333D02*
X0149284Y0177333D01*
X0149284Y0177333D01*
X0149284Y0177333D01*
X0145284Y0177333D01*
X0145284Y0176939D01*
X0145438Y0176167D01*
X0145739Y0175439D01*
X0146177Y0174783D01*
X0146734Y0174226D01*
X0147389Y0173789D01*
X0148117Y0173487D01*
X0148890Y0173333D01*
X0149284Y0173333D01*
X0149284Y0173615D02*
X0149284Y0173615D01*
X0150761Y0173615D02*
X0164751Y0173615D01*
X0167275Y0177834D02*
X0168093Y0177362D01*
X0168965Y0177001D01*
X0169876Y0176757D01*
X0170812Y0176633D01*
X0171284Y0176633D01*
X0171756Y0176633D01*
X0172692Y0176757D01*
X0173603Y0177001D01*
X0174475Y0177362D01*
X0175293Y0177834D01*
X0176041Y0178408D01*
X0176709Y0179076D01*
X0177283Y0179825D01*
X0177755Y0180642D01*
X0178116Y0181514D01*
X0178361Y0182426D01*
X0178484Y0183361D01*
X0178484Y0183833D01*
X0171284Y0183833D01*
X0171284Y0176633D01*
X0171284Y0183833D01*
X0171284Y0183833D01*
X0171284Y0183833D01*
X0164084Y0183833D01*
X0164084Y0183361D01*
X0164207Y0182426D01*
X0164451Y0181514D01*
X0164813Y0180642D01*
X0165285Y0179825D01*
X0165859Y0179076D01*
X0166526Y0178408D01*
X0167275Y0177834D01*
X0166522Y0178412D02*
X0153148Y0178412D01*
X0153130Y0178500D02*
X0152829Y0179228D01*
X0152391Y0179883D01*
X0151834Y0180440D01*
X0151179Y0180878D01*
X0150451Y0181180D01*
X0149678Y0181333D01*
X0149284Y0181333D01*
X0149284Y0177333D01*
X0149284Y0177333D01*
X0153284Y0177333D01*
X0153284Y0177727D01*
X0153130Y0178500D01*
X0153067Y0176014D02*
X0171382Y0176014D01*
X0171284Y0178412D02*
X0171284Y0178412D01*
X0171284Y0180811D02*
X0171284Y0180811D01*
X0171284Y0183210D02*
X0171284Y0183210D01*
X0171284Y0183833D02*
X0171284Y0183833D01*
X0178484Y0183833D01*
X0178484Y0184305D01*
X0178361Y0185241D01*
X0178116Y0186153D01*
X0177755Y0187025D01*
X0177283Y0187842D01*
X0176709Y0188591D01*
X0176041Y0189258D01*
X0175293Y0189833D01*
X0174475Y0190305D01*
X0173603Y0190666D01*
X0172692Y0190910D01*
X0171756Y0191033D01*
X0171284Y0191033D01*
X0171284Y0183833D01*
X0164084Y0183833D01*
X0164084Y0184305D01*
X0164207Y0185241D01*
X0164451Y0186153D01*
X0164813Y0187025D01*
X0165285Y0187842D01*
X0165859Y0188591D01*
X0166526Y0189258D01*
X0167275Y0189833D01*
X0168093Y0190305D01*
X0168965Y0190666D01*
X0169876Y0190910D01*
X0170812Y0191033D01*
X0171284Y0191033D01*
X0171284Y0183833D01*
X0171284Y0183833D01*
X0171284Y0185608D02*
X0171284Y0185608D01*
X0171284Y0188007D02*
X0171284Y0188007D01*
X0171284Y0190405D02*
X0171284Y0190405D01*
X0174233Y0190405D02*
X0225335Y0190405D01*
X0225093Y0190305D02*
X0224275Y0189833D01*
X0223526Y0189258D01*
X0222859Y0188591D01*
X0222285Y0187842D01*
X0221813Y0187025D01*
X0221451Y0186153D01*
X0221207Y0185241D01*
X0221084Y0184305D01*
X0221084Y0183833D01*
X0221084Y0183361D01*
X0221207Y0182426D01*
X0221451Y0181514D01*
X0221813Y0180642D01*
X0222285Y0179825D01*
X0222859Y0179076D01*
X0223526Y0178408D01*
X0224275Y0177834D01*
X0225093Y0177362D01*
X0225965Y0177001D01*
X0226876Y0176757D01*
X0227812Y0176633D01*
X0228284Y0176633D01*
X0228756Y0176633D01*
X0229692Y0176757D01*
X0230603Y0177001D01*
X0231475Y0177362D01*
X0232293Y0177834D01*
X0233041Y0178408D01*
X0233709Y0179076D01*
X0234283Y0179825D01*
X0234755Y0180642D01*
X0235116Y0181514D01*
X0235361Y0182426D01*
X0235484Y0183361D01*
X0235484Y0183833D01*
X0228284Y0183833D01*
X0228284Y0176633D01*
X0228284Y0183833D01*
X0228284Y0183833D01*
X0228284Y0183833D01*
X0221084Y0183833D01*
X0228284Y0183833D01*
X0228284Y0183833D01*
X0235484Y0183833D01*
X0235484Y0184305D01*
X0235361Y0185241D01*
X0235116Y0186153D01*
X0234755Y0187025D01*
X0234283Y0187842D01*
X0233709Y0188591D01*
X0233041Y0189258D01*
X0232293Y0189833D01*
X0231475Y0190305D01*
X0230603Y0190666D01*
X0229692Y0190910D01*
X0228756Y0191033D01*
X0228284Y0191033D01*
X0228284Y0183833D01*
X0228284Y0183833D01*
X0228284Y0191033D01*
X0227812Y0191033D01*
X0226876Y0190910D01*
X0225965Y0190666D01*
X0225093Y0190305D01*
X0228284Y0190405D02*
X0228284Y0190405D01*
X0228284Y0188007D02*
X0228284Y0188007D01*
X0228284Y0185608D02*
X0228284Y0185608D01*
X0228284Y0183210D02*
X0228284Y0183210D01*
X0228284Y0180811D02*
X0228284Y0180811D01*
X0228284Y0178412D02*
X0228284Y0178412D01*
X0227243Y0176014D02*
X0226131Y0176014D01*
X0223522Y0178412D02*
X0176045Y0178412D01*
X0177825Y0180811D02*
X0221743Y0180811D01*
X0221104Y0183210D02*
X0178464Y0183210D01*
X0178262Y0185608D02*
X0221305Y0185608D01*
X0222411Y0188007D02*
X0177157Y0188007D01*
X0168335Y0190405D02*
X0156353Y0190405D01*
X0156179Y0190289D02*
X0156834Y0190726D01*
X0157391Y0191283D01*
X0157829Y0191939D01*
X0158130Y0192667D01*
X0158284Y0193439D01*
X0158284Y0193833D01*
X0154284Y0193833D01*
X0154284Y0189833D01*
X0154678Y0189833D01*
X0155451Y0189987D01*
X0156179Y0190289D01*
X0154284Y0190405D02*
X0154284Y0190405D01*
X0154284Y0189833D02*
X0154284Y0193833D01*
X0154284Y0193833D01*
X0154284Y0193833D01*
X0150284Y0193833D01*
X0150284Y0193439D01*
X0150438Y0192667D01*
X0150739Y0191939D01*
X0151177Y0191283D01*
X0151734Y0190726D01*
X0152389Y0190289D01*
X0153117Y0189987D01*
X0153890Y0189833D01*
X0154284Y0189833D01*
X0152215Y0190405D02*
X0119984Y0190405D01*
X0119984Y0188007D02*
X0165411Y0188007D01*
X0164305Y0185608D02*
X0119984Y0185608D01*
X0119984Y0183210D02*
X0164104Y0183210D01*
X0164743Y0180811D02*
X0151279Y0180811D01*
X0149284Y0180811D02*
X0149284Y0180811D01*
X0149284Y0181333D02*
X0148890Y0181333D01*
X0148117Y0181180D01*
X0147389Y0180878D01*
X0146734Y0180440D01*
X0146177Y0179883D01*
X0145739Y0179228D01*
X0145438Y0178500D01*
X0145284Y0177727D01*
X0145284Y0177333D01*
X0149284Y0177333D01*
X0149284Y0177333D01*
X0149284Y0181333D01*
X0147289Y0180811D02*
X0126279Y0180811D01*
X0126179Y0180878D02*
X0125451Y0181180D01*
X0124678Y0181333D01*
X0124284Y0181333D01*
X0124284Y0177333D01*
X0124284Y0173333D01*
X0124678Y0173333D01*
X0125451Y0173487D01*
X0126179Y0173789D01*
X0126834Y0174226D01*
X0127391Y0174783D01*
X0127829Y0175439D01*
X0128130Y0176167D01*
X0128284Y0176939D01*
X0128284Y0177333D01*
X0124284Y0177333D01*
X0124284Y0177333D01*
X0124284Y0173333D01*
X0123890Y0173333D01*
X0123117Y0173487D01*
X0122389Y0173789D01*
X0121734Y0174226D01*
X0121177Y0174783D01*
X0120739Y0175439D01*
X0120438Y0176167D01*
X0120284Y0176939D01*
X0120284Y0177333D01*
X0124284Y0177333D01*
X0124284Y0177333D01*
X0124284Y0177333D01*
X0128284Y0177333D01*
X0128284Y0177727D01*
X0128130Y0178500D01*
X0127829Y0179228D01*
X0127391Y0179883D01*
X0126834Y0180440D01*
X0126179Y0180878D01*
X0124284Y0180811D02*
X0124284Y0180811D01*
X0124284Y0181333D02*
X0123890Y0181333D01*
X0123117Y0181180D01*
X0122389Y0180878D01*
X0121734Y0180440D01*
X0121177Y0179883D01*
X0120739Y0179228D01*
X0120438Y0178500D01*
X0120284Y0177727D01*
X0120284Y0177333D01*
X0124284Y0177333D01*
X0124284Y0177333D01*
X0124284Y0181333D01*
X0122289Y0180811D02*
X0119984Y0180811D01*
X0119984Y0178412D02*
X0120420Y0178412D01*
X0120501Y0176014D02*
X0119984Y0176014D01*
X0119984Y0173615D02*
X0122807Y0173615D01*
X0124284Y0173615D02*
X0124284Y0173615D01*
X0125761Y0173615D02*
X0147807Y0173615D01*
X0149284Y0176014D02*
X0149284Y0176014D01*
X0149284Y0178412D02*
X0149284Y0178412D01*
X0145420Y0178412D02*
X0128148Y0178412D01*
X0128067Y0176014D02*
X0145501Y0176014D01*
X0150410Y0192804D02*
X0119984Y0192804D01*
X0119984Y0195202D02*
X0150521Y0195202D01*
X0150438Y0195000D02*
X0150284Y0194227D01*
X0150284Y0193833D01*
X0154284Y0193833D01*
X0154284Y0193833D01*
X0158284Y0193833D01*
X0158284Y0194227D01*
X0158130Y0195000D01*
X0157829Y0195728D01*
X0157391Y0196383D01*
X0156834Y0196940D01*
X0156179Y0197378D01*
X0155451Y0197680D01*
X0154678Y0197833D01*
X0154284Y0197833D01*
X0154284Y0193833D01*
X0154284Y0193833D01*
X0154284Y0197833D01*
X0153890Y0197833D01*
X0153117Y0197680D01*
X0152389Y0197378D01*
X0151734Y0196940D01*
X0151177Y0196383D01*
X0150739Y0195728D01*
X0150438Y0195000D01*
X0152926Y0197601D02*
X0119984Y0197601D01*
X0119984Y0199999D02*
X0286812Y0199999D01*
X0286812Y0197601D02*
X0155641Y0197601D01*
X0154284Y0197601D02*
X0154284Y0197601D01*
X0154284Y0195202D02*
X0154284Y0195202D01*
X0154284Y0192804D02*
X0154284Y0192804D01*
X0158157Y0192804D02*
X0286812Y0192804D01*
X0286812Y0195202D02*
X0158047Y0195202D01*
X0175739Y0205439D02*
X0175438Y0206167D01*
X0175284Y0206939D01*
X0175284Y0207333D01*
X0179284Y0207333D01*
X0179284Y0203333D01*
X0179678Y0203333D01*
X0180451Y0203487D01*
X0181179Y0203789D01*
X0181834Y0204226D01*
X0182391Y0204783D01*
X0182829Y0205439D01*
X0183130Y0206167D01*
X0183284Y0206939D01*
X0183284Y0207333D01*
X0179284Y0207333D01*
X0179284Y0207333D01*
X0179284Y0203333D01*
X0178890Y0203333D01*
X0178117Y0203487D01*
X0177389Y0203789D01*
X0176734Y0204226D01*
X0176177Y0204783D01*
X0175739Y0205439D01*
X0176169Y0204796D02*
X0127399Y0204796D01*
X0127391Y0204783D02*
X0127829Y0205439D01*
X0128130Y0206167D01*
X0128284Y0206939D01*
X0128284Y0207333D01*
X0124284Y0207333D01*
X0124284Y0203333D01*
X0124678Y0203333D01*
X0125451Y0203487D01*
X0126179Y0203789D01*
X0126834Y0204226D01*
X0127391Y0204783D01*
X0128284Y0207195D02*
X0175284Y0207195D01*
X0175284Y0207333D02*
X0179284Y0207333D01*
X0179284Y0207333D01*
X0179284Y0207333D01*
X0183284Y0207333D01*
X0183284Y0207727D01*
X0183130Y0208500D01*
X0182829Y0209228D01*
X0182391Y0209883D01*
X0181834Y0210440D01*
X0181179Y0210878D01*
X0180451Y0211180D01*
X0179678Y0211333D01*
X0179284Y0211333D01*
X0179284Y0207333D01*
X0179284Y0207333D01*
X0179284Y0211333D01*
X0178890Y0211333D01*
X0178117Y0211180D01*
X0177389Y0210878D01*
X0176734Y0210440D01*
X0176177Y0209883D01*
X0175739Y0209228D01*
X0175438Y0208500D01*
X0175284Y0207727D01*
X0175284Y0207333D01*
X0175983Y0209593D02*
X0127585Y0209593D01*
X0127391Y0209883D02*
X0126834Y0210440D01*
X0126179Y0210878D01*
X0125451Y0211180D01*
X0124678Y0211333D01*
X0124284Y0211333D01*
X0124284Y0207333D01*
X0124284Y0207333D01*
X0124284Y0203333D01*
X0123890Y0203333D01*
X0123117Y0203487D01*
X0122389Y0203789D01*
X0121734Y0204226D01*
X0121177Y0204783D01*
X0120739Y0205439D01*
X0120438Y0206167D01*
X0120284Y0206939D01*
X0120284Y0207333D01*
X0124284Y0207333D01*
X0124284Y0207333D01*
X0124284Y0207333D01*
X0128284Y0207333D01*
X0128284Y0207727D01*
X0128130Y0208500D01*
X0127829Y0209228D01*
X0127391Y0209883D01*
X0124284Y0209593D02*
X0124284Y0209593D01*
X0124284Y0211333D02*
X0123890Y0211333D01*
X0123117Y0211180D01*
X0122389Y0210878D01*
X0121734Y0210440D01*
X0121177Y0209883D01*
X0120739Y0209228D01*
X0120438Y0208500D01*
X0120284Y0207727D01*
X0120284Y0207333D01*
X0124284Y0207333D01*
X0124284Y0207333D01*
X0124284Y0211333D01*
X0120983Y0209593D02*
X0119984Y0209593D01*
X0119984Y0207195D02*
X0120284Y0207195D01*
X0119984Y0204796D02*
X0121169Y0204796D01*
X0119984Y0202398D02*
X0286812Y0202398D01*
X0286812Y0204796D02*
X0182399Y0204796D01*
X0183284Y0207195D02*
X0286812Y0207195D01*
X0286812Y0209593D02*
X0182585Y0209593D01*
X0179284Y0209593D02*
X0179284Y0209593D01*
X0179284Y0207195D02*
X0179284Y0207195D01*
X0179284Y0204796D02*
X0179284Y0204796D01*
X0173892Y0176014D02*
X0185821Y0176014D01*
X0188331Y0176014D02*
X0200553Y0176014D01*
X0203063Y0176014D02*
X0222431Y0176014D01*
X0229753Y0176014D02*
X0286812Y0176014D01*
X0286812Y0178412D02*
X0233045Y0178412D01*
X0234825Y0180811D02*
X0286812Y0180811D01*
X0286812Y0183210D02*
X0285441Y0183210D01*
X0285329Y0182939D02*
X0285630Y0183667D01*
X0285784Y0184439D01*
X0285784Y0184833D01*
X0281784Y0184833D01*
X0281784Y0180833D01*
X0282178Y0180833D01*
X0282951Y0180987D01*
X0283679Y0181289D01*
X0284334Y0181726D01*
X0284891Y0182283D01*
X0285329Y0182939D01*
X0285784Y0184833D02*
X0281784Y0184833D01*
X0281784Y0184833D01*
X0281784Y0180833D01*
X0281390Y0180833D01*
X0280617Y0180987D01*
X0279889Y0181289D01*
X0279234Y0181726D01*
X0278677Y0182283D01*
X0278239Y0182939D01*
X0277938Y0183667D01*
X0277784Y0184439D01*
X0277784Y0184833D01*
X0281784Y0184833D01*
X0281784Y0184833D01*
X0281784Y0184833D01*
X0277784Y0184833D01*
X0277784Y0185227D01*
X0277938Y0186000D01*
X0278239Y0186728D01*
X0278677Y0187383D01*
X0279234Y0187940D01*
X0279889Y0188378D01*
X0280617Y0188680D01*
X0281390Y0188833D01*
X0281784Y0188833D01*
X0282178Y0188833D01*
X0282951Y0188680D01*
X0283679Y0188378D01*
X0284334Y0187940D01*
X0284891Y0187383D01*
X0285329Y0186728D01*
X0285630Y0186000D01*
X0285784Y0185227D01*
X0285784Y0184833D01*
X0285708Y0185608D02*
X0286812Y0185608D01*
X0286812Y0188007D02*
X0284235Y0188007D01*
X0281784Y0188007D02*
X0281784Y0188007D01*
X0281784Y0188833D02*
X0281784Y0184833D01*
X0281784Y0184833D01*
X0281784Y0188833D01*
X0279333Y0188007D02*
X0234157Y0188007D01*
X0235262Y0185608D02*
X0277860Y0185608D01*
X0278127Y0183210D02*
X0235464Y0183210D01*
X0231233Y0190405D02*
X0286812Y0190405D01*
X0281784Y0185608D02*
X0281784Y0185608D01*
X0281784Y0183210D02*
X0281784Y0183210D01*
X0286812Y0173615D02*
X0230898Y0173615D01*
X0230898Y0171217D02*
X0286812Y0171217D01*
X0286812Y0168818D02*
X0245769Y0168818D01*
X0245415Y0166420D02*
X0286812Y0166420D01*
X0286812Y0164021D02*
X0267924Y0164021D01*
X0268284Y0163662D02*
X0267112Y0164833D01*
X0256456Y0164833D01*
X0255284Y0163662D01*
X0255284Y0153005D01*
X0256456Y0151833D01*
X0267112Y0151833D01*
X0268284Y0153005D01*
X0268284Y0163662D01*
X0268284Y0161623D02*
X0286812Y0161623D01*
X0286812Y0159224D02*
X0268284Y0159224D01*
X0268284Y0156826D02*
X0286812Y0156826D01*
X0286812Y0154427D02*
X0285196Y0154427D01*
X0285329Y0154228D02*
X0284891Y0154883D01*
X0284334Y0155440D01*
X0283679Y0155878D01*
X0282951Y0156180D01*
X0282178Y0156333D01*
X0281784Y0156333D01*
X0281784Y0152333D01*
X0281784Y0148333D01*
X0282178Y0148333D01*
X0282951Y0148487D01*
X0283679Y0148789D01*
X0284334Y0149226D01*
X0284891Y0149783D01*
X0285329Y0150439D01*
X0285630Y0151167D01*
X0285784Y0151939D01*
X0285784Y0152333D01*
X0281784Y0152333D01*
X0281784Y0152333D01*
X0281784Y0148333D01*
X0281390Y0148333D01*
X0280617Y0148487D01*
X0279889Y0148789D01*
X0279234Y0149226D01*
X0278677Y0149783D01*
X0278239Y0150439D01*
X0277938Y0151167D01*
X0277784Y0151939D01*
X0277784Y0152333D01*
X0281784Y0152333D01*
X0281784Y0152333D01*
X0281784Y0152333D01*
X0285784Y0152333D01*
X0285784Y0152727D01*
X0285630Y0153500D01*
X0285329Y0154228D01*
X0285784Y0152029D02*
X0286812Y0152029D01*
X0286812Y0149630D02*
X0284738Y0149630D01*
X0281784Y0149630D02*
X0281784Y0149630D01*
X0281784Y0152029D02*
X0281784Y0152029D01*
X0281784Y0152333D02*
X0277784Y0152333D01*
X0277784Y0152727D01*
X0277938Y0153500D01*
X0278239Y0154228D01*
X0278677Y0154883D01*
X0279234Y0155440D01*
X0279889Y0155878D01*
X0280617Y0156180D01*
X0281390Y0156333D01*
X0281784Y0156333D01*
X0281784Y0152333D01*
X0281784Y0152333D01*
X0281784Y0154427D02*
X0281784Y0154427D01*
X0278372Y0154427D02*
X0268284Y0154427D01*
X0267308Y0152029D02*
X0277784Y0152029D01*
X0278830Y0149630D02*
X0217238Y0149630D01*
X0217391Y0149783D02*
X0217829Y0150439D01*
X0218130Y0151167D01*
X0218284Y0151939D01*
X0218284Y0152333D01*
X0214284Y0152333D01*
X0214284Y0148333D01*
X0214678Y0148333D01*
X0215451Y0148487D01*
X0216179Y0148789D01*
X0216834Y0149226D01*
X0217391Y0149783D01*
X0218284Y0152029D02*
X0256260Y0152029D01*
X0255284Y0154427D02*
X0217696Y0154427D01*
X0217829Y0154228D02*
X0217391Y0154883D01*
X0216834Y0155440D01*
X0216179Y0155878D01*
X0215451Y0156180D01*
X0214678Y0156333D01*
X0214284Y0156333D01*
X0214284Y0152333D01*
X0214284Y0152333D01*
X0214284Y0148333D01*
X0213890Y0148333D01*
X0213117Y0148487D01*
X0212389Y0148789D01*
X0211734Y0149226D01*
X0211177Y0149783D01*
X0210739Y0150439D01*
X0210438Y0151167D01*
X0210284Y0151939D01*
X0210284Y0152333D01*
X0214284Y0152333D01*
X0214284Y0152333D01*
X0214284Y0152333D01*
X0218284Y0152333D01*
X0218284Y0152727D01*
X0218130Y0153500D01*
X0217829Y0154228D01*
X0214284Y0154427D02*
X0214284Y0154427D01*
X0214284Y0156333D02*
X0214284Y0152333D01*
X0210284Y0152333D01*
X0210284Y0152727D01*
X0210438Y0153500D01*
X0210739Y0154228D01*
X0211177Y0154883D01*
X0211734Y0155440D01*
X0212389Y0155878D01*
X0213117Y0156180D01*
X0213890Y0156333D01*
X0214284Y0156333D01*
X0210872Y0154427D02*
X0182696Y0154427D01*
X0182829Y0154228D02*
X0182391Y0154883D01*
X0181834Y0155440D01*
X0181179Y0155878D01*
X0180451Y0156180D01*
X0179678Y0156333D01*
X0179284Y0156333D01*
X0179284Y0152333D01*
X0179284Y0148333D01*
X0179678Y0148333D01*
X0180451Y0148487D01*
X0181179Y0148789D01*
X0181834Y0149226D01*
X0182391Y0149783D01*
X0182829Y0150439D01*
X0183130Y0151167D01*
X0183284Y0151939D01*
X0183284Y0152333D01*
X0179284Y0152333D01*
X0179284Y0152333D01*
X0179284Y0148333D01*
X0178890Y0148333D01*
X0178117Y0148487D01*
X0177389Y0148789D01*
X0176734Y0149226D01*
X0176177Y0149783D01*
X0175739Y0150439D01*
X0175438Y0151167D01*
X0175284Y0151939D01*
X0175284Y0152333D01*
X0179284Y0152333D01*
X0179284Y0152333D01*
X0179284Y0152333D01*
X0183284Y0152333D01*
X0183284Y0152727D01*
X0183130Y0153500D01*
X0182829Y0154228D01*
X0183284Y0152029D02*
X0210284Y0152029D01*
X0211330Y0149630D02*
X0182238Y0149630D01*
X0179284Y0149630D02*
X0179284Y0149630D01*
X0179284Y0152029D02*
X0179284Y0152029D01*
X0179284Y0152333D02*
X0175284Y0152333D01*
X0175284Y0152727D01*
X0175438Y0153500D01*
X0175739Y0154228D01*
X0176177Y0154883D01*
X0176734Y0155440D01*
X0177389Y0155878D01*
X0178117Y0156180D01*
X0178890Y0156333D01*
X0179284Y0156333D01*
X0179284Y0152333D01*
X0179284Y0152333D01*
X0179284Y0154427D02*
X0179284Y0154427D01*
X0175872Y0154427D02*
X0152696Y0154427D01*
X0153284Y0152029D02*
X0175284Y0152029D01*
X0176330Y0149630D02*
X0152238Y0149630D01*
X0149284Y0149630D02*
X0149284Y0149630D01*
X0149284Y0152029D02*
X0149284Y0152029D01*
X0149284Y0154427D02*
X0149284Y0154427D01*
X0124239Y0171217D02*
X0119984Y0171217D01*
X0119984Y0168818D02*
X0120752Y0168818D01*
X0124284Y0176014D02*
X0124284Y0176014D01*
X0124284Y0178412D02*
X0124284Y0178412D01*
X0124284Y0204796D02*
X0124284Y0204796D01*
X0124284Y0207195D02*
X0124284Y0207195D01*
X0119984Y0211992D02*
X0286812Y0211992D01*
X0286812Y0214390D02*
X0284998Y0214390D01*
X0284834Y0214226D02*
X0285391Y0214783D01*
X0285829Y0215439D01*
X0286130Y0216167D01*
X0286284Y0216939D01*
X0286284Y0217333D01*
X0282284Y0217333D01*
X0282284Y0213333D01*
X0282678Y0213333D01*
X0283451Y0213487D01*
X0284179Y0213789D01*
X0284834Y0214226D01*
X0282284Y0214390D02*
X0282284Y0214390D01*
X0282284Y0213333D02*
X0282284Y0217333D01*
X0282284Y0217333D01*
X0282284Y0217333D01*
X0278284Y0217333D01*
X0278284Y0216939D01*
X0278438Y0216167D01*
X0278739Y0215439D01*
X0279177Y0214783D01*
X0279734Y0214226D01*
X0280389Y0213789D01*
X0281117Y0213487D01*
X0281890Y0213333D01*
X0282284Y0213333D01*
X0279570Y0214390D02*
X0143327Y0214390D01*
X0143606Y0216789D02*
X0278314Y0216789D01*
X0278284Y0217333D02*
X0282284Y0217333D01*
X0282284Y0217333D01*
X0286284Y0217333D01*
X0286284Y0217727D01*
X0286130Y0218500D01*
X0285829Y0219228D01*
X0285391Y0219883D01*
X0284834Y0220440D01*
X0284179Y0220878D01*
X0283451Y0221180D01*
X0282678Y0221333D01*
X0282284Y0221333D01*
X0282284Y0217333D01*
X0282284Y0217333D01*
X0282284Y0221333D01*
X0281890Y0221333D01*
X0281117Y0221180D01*
X0280389Y0220878D01*
X0279734Y0220440D01*
X0279177Y0219883D01*
X0278739Y0219228D01*
X0278438Y0218500D01*
X0278284Y0217727D01*
X0278284Y0217333D01*
X0278722Y0219187D02*
X0271673Y0219187D01*
X0271903Y0219417D02*
X0289819Y0237333D01*
X0314410Y0237333D01*
X0315131Y0236612D01*
X0316528Y0236033D01*
X0318040Y0236033D01*
X0319436Y0236612D01*
X0320505Y0237681D01*
X0321084Y0239077D01*
X0321084Y0240589D01*
X0320505Y0241986D01*
X0319436Y0243055D01*
X0318040Y0243633D01*
X0316528Y0243633D01*
X0315131Y0243055D01*
X0314410Y0242333D01*
X0288287Y0242333D01*
X0287368Y0241953D01*
X0268748Y0223333D01*
X0254819Y0223333D01*
X0252784Y0225369D01*
X0252784Y0248459D01*
X0253505Y0249181D01*
X0254084Y0250577D01*
X0254084Y0252089D01*
X0253505Y0253486D01*
X0252436Y0254555D01*
X0251040Y0255133D01*
X0249528Y0255133D01*
X0248131Y0254555D01*
X0247062Y0253486D01*
X0246484Y0252089D01*
X0246484Y0250577D01*
X0247062Y0249181D01*
X0247784Y0248459D01*
X0247784Y0223836D01*
X0248165Y0222917D01*
X0248868Y0222214D01*
X0252368Y0218714D01*
X0253287Y0218333D01*
X0270281Y0218333D01*
X0271200Y0218714D01*
X0271903Y0219417D01*
X0274072Y0221586D02*
X0286812Y0221586D01*
X0286812Y0223984D02*
X0276470Y0223984D01*
X0278869Y0226383D02*
X0286812Y0226383D01*
X0286812Y0228781D02*
X0281267Y0228781D01*
X0283666Y0231180D02*
X0286812Y0231180D01*
X0286064Y0233578D02*
X0287618Y0233578D01*
X0288463Y0235977D02*
X0369489Y0235977D01*
X0369489Y0238375D02*
X0320793Y0238375D01*
X0321007Y0240774D02*
X0369489Y0240774D01*
X0369489Y0243172D02*
X0319153Y0243172D01*
X0315415Y0243172D02*
X0252784Y0243172D01*
X0252784Y0240774D02*
X0286189Y0240774D01*
X0283790Y0238375D02*
X0252784Y0238375D01*
X0252784Y0235977D02*
X0255284Y0235977D01*
X0255284Y0236662D02*
X0255284Y0226005D01*
X0256456Y0224833D01*
X0267112Y0224833D01*
X0268284Y0226005D01*
X0268284Y0236662D01*
X0267112Y0237833D01*
X0256456Y0237833D01*
X0255284Y0236662D01*
X0255284Y0233578D02*
X0252784Y0233578D01*
X0252784Y0231180D02*
X0255284Y0231180D01*
X0255284Y0228781D02*
X0252784Y0228781D01*
X0252784Y0226383D02*
X0255284Y0226383D01*
X0254169Y0223984D02*
X0269399Y0223984D01*
X0268284Y0226383D02*
X0271798Y0226383D01*
X0274196Y0228781D02*
X0268284Y0228781D01*
X0268284Y0231180D02*
X0276595Y0231180D01*
X0278993Y0233578D02*
X0268284Y0233578D01*
X0268284Y0235977D02*
X0281392Y0235977D01*
X0282284Y0219187D02*
X0282284Y0219187D01*
X0282284Y0216789D02*
X0282284Y0216789D01*
X0286254Y0216789D02*
X0286812Y0216789D01*
X0286812Y0219187D02*
X0285846Y0219187D01*
X0300281Y0233578D02*
X0369489Y0233578D01*
X0369489Y0231180D02*
X0301086Y0231180D01*
X0301086Y0228781D02*
X0369489Y0228781D01*
X0369489Y0226383D02*
X0301086Y0226383D01*
X0301086Y0223984D02*
X0369489Y0223984D01*
X0369489Y0221586D02*
X0301086Y0221586D01*
X0301086Y0219187D02*
X0303222Y0219187D01*
X0303239Y0219228D02*
X0302938Y0218500D01*
X0302784Y0217727D01*
X0302784Y0217333D01*
X0302784Y0216939D01*
X0302938Y0216167D01*
X0303239Y0215439D01*
X0303677Y0214783D01*
X0304234Y0214226D01*
X0304889Y0213789D01*
X0305617Y0213487D01*
X0306390Y0213333D01*
X0306784Y0213333D01*
X0307178Y0213333D01*
X0307951Y0213487D01*
X0308679Y0213789D01*
X0309334Y0214226D01*
X0309891Y0214783D01*
X0310329Y0215439D01*
X0310630Y0216167D01*
X0310784Y0216939D01*
X0310784Y0217333D01*
X0306784Y0217333D01*
X0306784Y0213333D01*
X0306784Y0217333D01*
X0306784Y0217333D01*
X0306784Y0217333D01*
X0302784Y0217333D01*
X0306784Y0217333D01*
X0306784Y0217333D01*
X0310784Y0217333D01*
X0310784Y0217727D01*
X0310630Y0218500D01*
X0310329Y0219228D01*
X0309891Y0219883D01*
X0309334Y0220440D01*
X0308679Y0220878D01*
X0307951Y0221180D01*
X0307178Y0221333D01*
X0306784Y0221333D01*
X0306784Y0217333D01*
X0306784Y0217333D01*
X0306784Y0221333D01*
X0306390Y0221333D01*
X0305617Y0221180D01*
X0304889Y0220878D01*
X0304234Y0220440D01*
X0303677Y0219883D01*
X0303239Y0219228D01*
X0302814Y0216789D02*
X0301086Y0216789D01*
X0301086Y0214390D02*
X0304070Y0214390D01*
X0306784Y0214390D02*
X0306784Y0214390D01*
X0306784Y0216789D02*
X0306784Y0216789D01*
X0306784Y0219187D02*
X0306784Y0219187D01*
X0310346Y0219187D02*
X0330722Y0219187D01*
X0330739Y0219228D02*
X0330438Y0218500D01*
X0330284Y0217727D01*
X0330284Y0217333D01*
X0330284Y0216939D01*
X0330438Y0216167D01*
X0330739Y0215439D01*
X0331177Y0214783D01*
X0331734Y0214226D01*
X0332389Y0213789D01*
X0333117Y0213487D01*
X0333890Y0213333D01*
X0334284Y0213333D01*
X0334678Y0213333D01*
X0335451Y0213487D01*
X0336179Y0213789D01*
X0336834Y0214226D01*
X0337391Y0214783D01*
X0337829Y0215439D01*
X0338130Y0216167D01*
X0338284Y0216939D01*
X0338284Y0217333D01*
X0334284Y0217333D01*
X0334284Y0213333D01*
X0334284Y0217333D01*
X0334284Y0217333D01*
X0334284Y0217333D01*
X0330284Y0217333D01*
X0334284Y0217333D01*
X0334284Y0217333D01*
X0338284Y0217333D01*
X0338284Y0217727D01*
X0338130Y0218500D01*
X0337829Y0219228D01*
X0337391Y0219883D01*
X0336834Y0220440D01*
X0336179Y0220878D01*
X0335451Y0221180D01*
X0334678Y0221333D01*
X0334284Y0221333D01*
X0334284Y0217333D01*
X0334284Y0217333D01*
X0334284Y0221333D01*
X0333890Y0221333D01*
X0333117Y0221180D01*
X0332389Y0220878D01*
X0331734Y0220440D01*
X0331177Y0219883D01*
X0330739Y0219228D01*
X0330314Y0216789D02*
X0310754Y0216789D01*
X0309498Y0214390D02*
X0331570Y0214390D01*
X0334284Y0214390D02*
X0334284Y0214390D01*
X0334284Y0216789D02*
X0334284Y0216789D01*
X0334284Y0219187D02*
X0334284Y0219187D01*
X0337846Y0219187D02*
X0360722Y0219187D01*
X0360739Y0219228D02*
X0360438Y0218500D01*
X0360284Y0217727D01*
X0360284Y0217333D01*
X0360284Y0216939D01*
X0360438Y0216167D01*
X0360739Y0215439D01*
X0361177Y0214783D01*
X0361734Y0214226D01*
X0362389Y0213789D01*
X0363117Y0213487D01*
X0363890Y0213333D01*
X0364284Y0213333D01*
X0364678Y0213333D01*
X0365451Y0213487D01*
X0366179Y0213789D01*
X0366834Y0214226D01*
X0367391Y0214783D01*
X0367829Y0215439D01*
X0368130Y0216167D01*
X0368284Y0216939D01*
X0368284Y0217333D01*
X0364284Y0217333D01*
X0364284Y0213333D01*
X0364284Y0217333D01*
X0364284Y0217333D01*
X0364284Y0217333D01*
X0360284Y0217333D01*
X0364284Y0217333D01*
X0364284Y0217333D01*
X0368284Y0217333D01*
X0368284Y0217727D01*
X0368130Y0218500D01*
X0367829Y0219228D01*
X0367391Y0219883D01*
X0366834Y0220440D01*
X0366179Y0220878D01*
X0365451Y0221180D01*
X0364678Y0221333D01*
X0364284Y0221333D01*
X0364284Y0217333D01*
X0364284Y0217333D01*
X0364284Y0221333D01*
X0363890Y0221333D01*
X0363117Y0221180D01*
X0362389Y0220878D01*
X0361734Y0220440D01*
X0361177Y0219883D01*
X0360739Y0219228D01*
X0360314Y0216789D02*
X0338254Y0216789D01*
X0336998Y0214390D02*
X0361570Y0214390D01*
X0364284Y0214390D02*
X0364284Y0214390D01*
X0364284Y0216789D02*
X0364284Y0216789D01*
X0364284Y0219187D02*
X0364284Y0219187D01*
X0367846Y0219187D02*
X0369489Y0219187D01*
X0369489Y0216789D02*
X0368254Y0216789D01*
X0369489Y0214390D02*
X0366998Y0214390D01*
X0369489Y0211992D02*
X0301086Y0211992D01*
X0301086Y0209593D02*
X0369489Y0209593D01*
X0369489Y0207195D02*
X0301086Y0207195D01*
X0301086Y0204796D02*
X0369489Y0204796D01*
X0369489Y0202398D02*
X0301086Y0202398D01*
X0301086Y0199999D02*
X0369489Y0199999D01*
X0369489Y0197601D02*
X0301086Y0197601D01*
X0301086Y0195202D02*
X0369489Y0195202D01*
X0369489Y0192804D02*
X0301086Y0192804D01*
X0301086Y0190405D02*
X0369489Y0190405D01*
X0369489Y0188007D02*
X0366735Y0188007D01*
X0366834Y0187940D02*
X0366179Y0188378D01*
X0365451Y0188680D01*
X0364678Y0188833D01*
X0364284Y0188833D01*
X0364284Y0184833D01*
X0364284Y0180833D01*
X0364678Y0180833D01*
X0365451Y0180987D01*
X0366179Y0181289D01*
X0366834Y0181726D01*
X0367391Y0182283D01*
X0367829Y0182939D01*
X0368130Y0183667D01*
X0368284Y0184439D01*
X0368284Y0184833D01*
X0364284Y0184833D01*
X0364284Y0184833D01*
X0364284Y0180833D01*
X0363890Y0180833D01*
X0363117Y0180987D01*
X0362389Y0181289D01*
X0361734Y0181726D01*
X0361177Y0182283D01*
X0360739Y0182939D01*
X0360438Y0183667D01*
X0360284Y0184439D01*
X0360284Y0184833D01*
X0364284Y0184833D01*
X0364284Y0184833D01*
X0364284Y0184833D01*
X0368284Y0184833D01*
X0368284Y0185227D01*
X0368130Y0186000D01*
X0367829Y0186728D01*
X0367391Y0187383D01*
X0366834Y0187940D01*
X0364284Y0188007D02*
X0364284Y0188007D01*
X0364284Y0188833D02*
X0364284Y0184833D01*
X0360284Y0184833D01*
X0360284Y0185227D01*
X0360438Y0186000D01*
X0360739Y0186728D01*
X0361177Y0187383D01*
X0361734Y0187940D01*
X0362389Y0188378D01*
X0363117Y0188680D01*
X0363890Y0188833D01*
X0364284Y0188833D01*
X0361833Y0188007D02*
X0309235Y0188007D01*
X0309334Y0187940D02*
X0308679Y0188378D01*
X0307951Y0188680D01*
X0307178Y0188833D01*
X0306784Y0188833D01*
X0306784Y0184833D01*
X0306784Y0180833D01*
X0307178Y0180833D01*
X0307951Y0180987D01*
X0308679Y0181289D01*
X0309334Y0181726D01*
X0309891Y0182283D01*
X0310329Y0182939D01*
X0310630Y0183667D01*
X0310784Y0184439D01*
X0310784Y0184833D01*
X0306784Y0184833D01*
X0306784Y0184833D01*
X0306784Y0180833D01*
X0306390Y0180833D01*
X0305617Y0180987D01*
X0304889Y0181289D01*
X0304234Y0181726D01*
X0303677Y0182283D01*
X0303239Y0182939D01*
X0302938Y0183667D01*
X0302784Y0184439D01*
X0302784Y0184833D01*
X0306784Y0184833D01*
X0306784Y0184833D01*
X0306784Y0184833D01*
X0310784Y0184833D01*
X0310784Y0185227D01*
X0310630Y0186000D01*
X0310329Y0186728D01*
X0309891Y0187383D01*
X0309334Y0187940D01*
X0306784Y0188007D02*
X0306784Y0188007D01*
X0306784Y0188833D02*
X0306784Y0184833D01*
X0302784Y0184833D01*
X0302784Y0185227D01*
X0302938Y0186000D01*
X0303239Y0186728D01*
X0303677Y0187383D01*
X0304234Y0187940D01*
X0304889Y0188378D01*
X0305617Y0188680D01*
X0306390Y0188833D01*
X0306784Y0188833D01*
X0304333Y0188007D02*
X0301086Y0188007D01*
X0301086Y0185608D02*
X0302860Y0185608D01*
X0303127Y0183210D02*
X0301086Y0183210D01*
X0301086Y0180811D02*
X0369489Y0180811D01*
X0369489Y0183210D02*
X0367941Y0183210D01*
X0368208Y0185608D02*
X0369489Y0185608D01*
X0364284Y0185608D02*
X0364284Y0185608D01*
X0364284Y0184833D02*
X0364284Y0184833D01*
X0364284Y0183210D02*
X0364284Y0183210D01*
X0360627Y0183210D02*
X0310441Y0183210D01*
X0310708Y0185608D02*
X0360360Y0185608D01*
X0369489Y0178412D02*
X0301086Y0178412D01*
X0301086Y0176014D02*
X0369489Y0176014D01*
X0369489Y0173615D02*
X0301086Y0173615D01*
X0301086Y0171217D02*
X0352585Y0171217D01*
X0349099Y0168818D02*
X0301086Y0168818D01*
X0301086Y0166420D02*
X0347232Y0166420D01*
X0345953Y0164021D02*
X0301086Y0164021D01*
X0301086Y0161623D02*
X0345130Y0161623D01*
X0344899Y0159224D02*
X0301086Y0159224D01*
X0301086Y0156826D02*
X0344899Y0156826D01*
X0345533Y0154427D02*
X0337696Y0154427D01*
X0337829Y0154228D02*
X0337391Y0154883D01*
X0336834Y0155440D01*
X0336179Y0155878D01*
X0335451Y0156180D01*
X0334678Y0156333D01*
X0334284Y0156333D01*
X0334284Y0152333D01*
X0334284Y0148333D01*
X0334678Y0148333D01*
X0335451Y0148487D01*
X0336179Y0148789D01*
X0336834Y0149226D01*
X0337391Y0149783D01*
X0337829Y0150439D01*
X0338130Y0151167D01*
X0338284Y0151939D01*
X0338284Y0152333D01*
X0334284Y0152333D01*
X0334284Y0152333D01*
X0334284Y0148333D01*
X0333890Y0148333D01*
X0333117Y0148487D01*
X0332389Y0148789D01*
X0331734Y0149226D01*
X0331177Y0149783D01*
X0330739Y0150439D01*
X0330438Y0151167D01*
X0330284Y0151939D01*
X0330284Y0152333D01*
X0334284Y0152333D01*
X0334284Y0152333D01*
X0334284Y0152333D01*
X0338284Y0152333D01*
X0338284Y0152727D01*
X0338130Y0153500D01*
X0337829Y0154228D01*
X0338284Y0152029D02*
X0346357Y0152029D01*
X0348147Y0149630D02*
X0337238Y0149630D01*
X0334284Y0149630D02*
X0334284Y0149630D01*
X0334284Y0152029D02*
X0334284Y0152029D01*
X0334284Y0152333D02*
X0330284Y0152333D01*
X0330284Y0152727D01*
X0330438Y0153500D01*
X0330739Y0154228D01*
X0331177Y0154883D01*
X0331734Y0155440D01*
X0332389Y0155878D01*
X0333117Y0156180D01*
X0333890Y0156333D01*
X0334284Y0156333D01*
X0334284Y0152333D01*
X0334284Y0152333D01*
X0334284Y0154427D02*
X0334284Y0154427D01*
X0330872Y0154427D02*
X0310196Y0154427D01*
X0310329Y0154228D02*
X0309891Y0154883D01*
X0309334Y0155440D01*
X0308679Y0155878D01*
X0307951Y0156180D01*
X0307178Y0156333D01*
X0306784Y0156333D01*
X0306784Y0152333D01*
X0306784Y0148333D01*
X0307178Y0148333D01*
X0307951Y0148487D01*
X0308679Y0148789D01*
X0309334Y0149226D01*
X0309891Y0149783D01*
X0310329Y0150439D01*
X0310630Y0151167D01*
X0310784Y0151939D01*
X0310784Y0152333D01*
X0306784Y0152333D01*
X0306784Y0152333D01*
X0306784Y0148333D01*
X0306390Y0148333D01*
X0305617Y0148487D01*
X0304889Y0148789D01*
X0304234Y0149226D01*
X0303677Y0149783D01*
X0303239Y0150439D01*
X0302938Y0151167D01*
X0302784Y0151939D01*
X0302784Y0152333D01*
X0306784Y0152333D01*
X0306784Y0152333D01*
X0306784Y0152333D01*
X0310784Y0152333D01*
X0310784Y0152727D01*
X0310630Y0153500D01*
X0310329Y0154228D01*
X0310784Y0152029D02*
X0330284Y0152029D01*
X0331330Y0149630D02*
X0309738Y0149630D01*
X0306784Y0149630D02*
X0306784Y0149630D01*
X0306784Y0152029D02*
X0306784Y0152029D01*
X0306784Y0152333D02*
X0302784Y0152333D01*
X0302784Y0152727D01*
X0302938Y0153500D01*
X0303239Y0154228D01*
X0303677Y0154883D01*
X0304234Y0155440D01*
X0304889Y0155878D01*
X0305617Y0156180D01*
X0306390Y0156333D01*
X0306784Y0156333D01*
X0306784Y0152333D01*
X0306784Y0152333D01*
X0306784Y0154427D02*
X0306784Y0154427D01*
X0303372Y0154427D02*
X0301086Y0154427D01*
X0301086Y0152029D02*
X0302784Y0152029D01*
X0303830Y0149630D02*
X0301086Y0149630D01*
X0306784Y0183210D02*
X0306784Y0183210D01*
X0306784Y0184833D02*
X0306784Y0184833D01*
X0306784Y0185608D02*
X0306784Y0185608D01*
X0255644Y0164021D02*
X0244772Y0164021D01*
X0255284Y0161623D02*
X0228021Y0161623D01*
X0228050Y0164021D02*
X0227203Y0164021D01*
X0227521Y0166420D02*
X0227953Y0166420D01*
X0228094Y0159224D02*
X0255284Y0159224D01*
X0255284Y0156826D02*
X0226154Y0156826D01*
X0214284Y0152333D02*
X0214284Y0152333D01*
X0214284Y0152029D02*
X0214284Y0152029D01*
X0214284Y0149630D02*
X0214284Y0149630D01*
X0199080Y0156826D02*
X0198984Y0156826D01*
X0190486Y0156826D02*
X0190086Y0156826D01*
X0183756Y0156826D02*
X0182490Y0156826D01*
X0177616Y0166420D02*
X0177185Y0166420D01*
X0177017Y0168818D02*
X0179106Y0168818D01*
X0178501Y0171217D02*
X0176958Y0171217D01*
X0177380Y0173615D02*
X0177955Y0173615D01*
X0198865Y0173615D02*
X0199408Y0173615D01*
X0199408Y0171217D02*
X0198977Y0171217D01*
X0251895Y0219187D02*
X0143606Y0219187D01*
X0143606Y0221586D02*
X0249496Y0221586D01*
X0247784Y0223984D02*
X0143606Y0223984D01*
X0143606Y0226383D02*
X0247784Y0226383D01*
X0247784Y0228781D02*
X0143606Y0228781D01*
X0143606Y0231180D02*
X0247784Y0231180D01*
X0247784Y0233578D02*
X0143606Y0233578D01*
X0143606Y0235977D02*
X0247784Y0235977D01*
X0247784Y0238375D02*
X0143606Y0238375D01*
X0143606Y0240774D02*
X0179090Y0240774D01*
X0178138Y0241727D02*
X0180177Y0239687D01*
X0182842Y0238583D01*
X0185726Y0238583D01*
X0188391Y0239687D01*
X0190430Y0241727D01*
X0191534Y0244391D01*
X0191534Y0247275D01*
X0190430Y0249940D01*
X0188391Y0251980D01*
X0185726Y0253083D01*
X0182842Y0253083D01*
X0180177Y0251980D01*
X0178138Y0249940D01*
X0177034Y0247275D01*
X0177034Y0244391D01*
X0178138Y0241727D01*
X0177539Y0243172D02*
X0143606Y0243172D01*
X0143606Y0245571D02*
X0177034Y0245571D01*
X0177321Y0247969D02*
X0143606Y0247969D01*
X0143606Y0250368D02*
X0178565Y0250368D01*
X0182077Y0252766D02*
X0143606Y0252766D01*
X0143606Y0255165D02*
X0369489Y0255165D01*
X0369489Y0257563D02*
X0143606Y0257563D01*
X0143606Y0259962D02*
X0369489Y0259962D01*
X0369489Y0262360D02*
X0143606Y0262360D01*
X0143606Y0264759D02*
X0369489Y0264759D01*
X0369489Y0267157D02*
X0143606Y0267157D01*
X0143606Y0269556D02*
X0369489Y0269556D01*
X0369489Y0271954D02*
X0143606Y0271954D01*
X0143606Y0274353D02*
X0369489Y0274353D01*
X0369489Y0276751D02*
X0143606Y0276751D01*
X0143606Y0279150D02*
X0176848Y0279150D01*
X0176734Y0279226D02*
X0177389Y0278789D01*
X0178117Y0278487D01*
X0178890Y0278333D01*
X0179284Y0278333D01*
X0179678Y0278333D01*
X0180451Y0278487D01*
X0181179Y0278789D01*
X0181834Y0279226D01*
X0182391Y0279783D01*
X0182829Y0280439D01*
X0183130Y0281167D01*
X0183284Y0281939D01*
X0183284Y0282333D01*
X0179284Y0282333D01*
X0179284Y0278333D01*
X0179284Y0282333D01*
X0179284Y0282333D01*
X0179284Y0282333D01*
X0175284Y0282333D01*
X0175284Y0281939D01*
X0175438Y0281167D01*
X0175739Y0280439D01*
X0176177Y0279783D01*
X0176734Y0279226D01*
X0179284Y0279150D02*
X0179284Y0279150D01*
X0179284Y0281548D02*
X0179284Y0281548D01*
X0179284Y0282333D02*
X0179284Y0282333D01*
X0183284Y0282333D01*
X0183284Y0282727D01*
X0183130Y0283500D01*
X0182829Y0284228D01*
X0182391Y0284883D01*
X0181834Y0285440D01*
X0181179Y0285878D01*
X0180451Y0286180D01*
X0179678Y0286333D01*
X0179284Y0286333D01*
X0179284Y0282333D01*
X0175284Y0282333D01*
X0175284Y0282727D01*
X0175438Y0283500D01*
X0175739Y0284228D01*
X0176177Y0284883D01*
X0176734Y0285440D01*
X0177389Y0285878D01*
X0178117Y0286180D01*
X0178890Y0286333D01*
X0179284Y0286333D01*
X0179284Y0282333D01*
X0179284Y0282333D01*
X0179284Y0283947D02*
X0179284Y0283947D01*
X0182945Y0283947D02*
X0210623Y0283947D01*
X0210739Y0284228D02*
X0210438Y0283500D01*
X0210284Y0282727D01*
X0210284Y0282333D01*
X0210284Y0281939D01*
X0210438Y0281167D01*
X0210739Y0280439D01*
X0211177Y0279783D01*
X0211734Y0279226D01*
X0212389Y0278789D01*
X0213117Y0278487D01*
X0213890Y0278333D01*
X0214284Y0278333D01*
X0214678Y0278333D01*
X0215451Y0278487D01*
X0216179Y0278789D01*
X0216834Y0279226D01*
X0217391Y0279783D01*
X0217829Y0280439D01*
X0218130Y0281167D01*
X0218284Y0281939D01*
X0218284Y0282333D01*
X0214284Y0282333D01*
X0214284Y0278333D01*
X0214284Y0282333D01*
X0214284Y0282333D01*
X0214284Y0282333D01*
X0210284Y0282333D01*
X0214284Y0282333D01*
X0214284Y0282333D01*
X0218284Y0282333D01*
X0218284Y0282727D01*
X0218130Y0283500D01*
X0217829Y0284228D01*
X0217391Y0284883D01*
X0216834Y0285440D01*
X0216179Y0285878D01*
X0215451Y0286180D01*
X0214678Y0286333D01*
X0214284Y0286333D01*
X0214284Y0282333D01*
X0214284Y0282333D01*
X0214284Y0286333D01*
X0213890Y0286333D01*
X0213117Y0286180D01*
X0212389Y0285878D01*
X0211734Y0285440D01*
X0211177Y0284883D01*
X0210739Y0284228D01*
X0210362Y0281548D02*
X0183206Y0281548D01*
X0181720Y0279150D02*
X0211848Y0279150D01*
X0214284Y0279150D02*
X0214284Y0279150D01*
X0214284Y0281548D02*
X0214284Y0281548D01*
X0214284Y0283947D02*
X0214284Y0283947D01*
X0217945Y0283947D02*
X0278152Y0283947D01*
X0278389Y0283789D02*
X0279117Y0283487D01*
X0279890Y0283333D01*
X0280284Y0283333D01*
X0280678Y0283333D01*
X0281451Y0283487D01*
X0282179Y0283789D01*
X0282834Y0284226D01*
X0283391Y0284783D01*
X0283829Y0285439D01*
X0284130Y0286167D01*
X0284284Y0286939D01*
X0284284Y0287333D01*
X0280284Y0287333D01*
X0280284Y0283333D01*
X0280284Y0287333D01*
X0280284Y0287333D01*
X0280284Y0287333D01*
X0276284Y0287333D01*
X0276284Y0286939D01*
X0276438Y0286167D01*
X0276739Y0285439D01*
X0277177Y0284783D01*
X0277734Y0284226D01*
X0278389Y0283789D01*
X0280284Y0283947D02*
X0280284Y0283947D01*
X0282416Y0283947D02*
X0330623Y0283947D01*
X0330739Y0284228D02*
X0330438Y0283500D01*
X0330284Y0282727D01*
X0330284Y0282333D01*
X0330284Y0281939D01*
X0330438Y0281167D01*
X0330739Y0280439D01*
X0331177Y0279783D01*
X0331734Y0279226D01*
X0332389Y0278789D01*
X0333117Y0278487D01*
X0333890Y0278333D01*
X0334284Y0278333D01*
X0334678Y0278333D01*
X0335451Y0278487D01*
X0336179Y0278789D01*
X0336834Y0279226D01*
X0337391Y0279783D01*
X0337829Y0280439D01*
X0338130Y0281167D01*
X0338284Y0281939D01*
X0338284Y0282333D01*
X0334284Y0282333D01*
X0334284Y0278333D01*
X0334284Y0282333D01*
X0334284Y0282333D01*
X0334284Y0282333D01*
X0330284Y0282333D01*
X0334284Y0282333D01*
X0334284Y0282333D01*
X0338284Y0282333D01*
X0338284Y0282727D01*
X0338130Y0283500D01*
X0337829Y0284228D01*
X0337391Y0284883D01*
X0336834Y0285440D01*
X0336179Y0285878D01*
X0335451Y0286180D01*
X0334678Y0286333D01*
X0334284Y0286333D01*
X0334284Y0282333D01*
X0334284Y0282333D01*
X0334284Y0286333D01*
X0333890Y0286333D01*
X0333117Y0286180D01*
X0332389Y0285878D01*
X0331734Y0285440D01*
X0331177Y0284883D01*
X0330739Y0284228D01*
X0330362Y0281548D02*
X0218206Y0281548D01*
X0216720Y0279150D02*
X0331848Y0279150D01*
X0334284Y0279150D02*
X0334284Y0279150D01*
X0334284Y0281548D02*
X0334284Y0281548D01*
X0334284Y0283947D02*
X0334284Y0283947D01*
X0337945Y0283947D02*
X0360623Y0283947D01*
X0360739Y0284228D02*
X0360438Y0283500D01*
X0360284Y0282727D01*
X0360284Y0282333D01*
X0360284Y0281939D01*
X0360438Y0281167D01*
X0360739Y0280439D01*
X0361177Y0279783D01*
X0361734Y0279226D01*
X0362389Y0278789D01*
X0363117Y0278487D01*
X0363890Y0278333D01*
X0364284Y0278333D01*
X0364678Y0278333D01*
X0365451Y0278487D01*
X0366179Y0278789D01*
X0366834Y0279226D01*
X0367391Y0279783D01*
X0367829Y0280439D01*
X0368130Y0281167D01*
X0368284Y0281939D01*
X0368284Y0282333D01*
X0364284Y0282333D01*
X0364284Y0278333D01*
X0364284Y0282333D01*
X0364284Y0282333D01*
X0364284Y0282333D01*
X0360284Y0282333D01*
X0364284Y0282333D01*
X0364284Y0282333D01*
X0368284Y0282333D01*
X0368284Y0282727D01*
X0368130Y0283500D01*
X0367829Y0284228D01*
X0367391Y0284883D01*
X0366834Y0285440D01*
X0366179Y0285878D01*
X0365451Y0286180D01*
X0364678Y0286333D01*
X0364284Y0286333D01*
X0364284Y0282333D01*
X0364284Y0282333D01*
X0364284Y0286333D01*
X0363890Y0286333D01*
X0363117Y0286180D01*
X0362389Y0285878D01*
X0361734Y0285440D01*
X0361177Y0284883D01*
X0360739Y0284228D01*
X0360362Y0281548D02*
X0338206Y0281548D01*
X0336720Y0279150D02*
X0361848Y0279150D01*
X0364284Y0279150D02*
X0364284Y0279150D01*
X0364284Y0281548D02*
X0364284Y0281548D01*
X0364284Y0283947D02*
X0364284Y0283947D01*
X0367945Y0283947D02*
X0369489Y0283947D01*
X0369489Y0286345D02*
X0284166Y0286345D01*
X0284284Y0287333D02*
X0284284Y0287727D01*
X0284130Y0288500D01*
X0283829Y0289228D01*
X0283391Y0289883D01*
X0282834Y0290440D01*
X0282246Y0290833D01*
X0282834Y0291226D01*
X0283391Y0291783D01*
X0283829Y0292439D01*
X0284130Y0293167D01*
X0284284Y0293939D01*
X0284284Y0294333D01*
X0280284Y0294333D01*
X0280284Y0290333D01*
X0280284Y0287333D01*
X0280284Y0287333D01*
X0284284Y0287333D01*
X0284029Y0288744D02*
X0369489Y0288744D01*
X0369489Y0291143D02*
X0282708Y0291143D01*
X0280284Y0291143D02*
X0280284Y0291143D01*
X0278322Y0290833D02*
X0277734Y0290440D01*
X0277177Y0289883D01*
X0276739Y0289228D01*
X0276438Y0288500D01*
X0276284Y0287727D01*
X0276284Y0287333D01*
X0280284Y0287333D01*
X0280284Y0287333D01*
X0280284Y0294333D01*
X0280284Y0294333D01*
X0280284Y0294333D01*
X0276284Y0294333D01*
X0276284Y0293939D01*
X0276438Y0293167D01*
X0276739Y0292439D01*
X0277177Y0291783D01*
X0277734Y0291226D01*
X0278322Y0290833D01*
X0277860Y0291143D02*
X0160550Y0291143D01*
X0162062Y0293541D02*
X0276363Y0293541D01*
X0276284Y0294333D02*
X0280284Y0294333D01*
X0280284Y0294333D01*
X0284284Y0294333D01*
X0284284Y0294727D01*
X0284130Y0295500D01*
X0283829Y0296228D01*
X0283391Y0296883D01*
X0282834Y0297440D01*
X0282179Y0297878D01*
X0281451Y0298180D01*
X0280678Y0298333D01*
X0280284Y0298333D01*
X0280284Y0294333D01*
X0280284Y0294333D01*
X0280284Y0298333D01*
X0279890Y0298333D01*
X0279117Y0298180D01*
X0278389Y0297878D01*
X0277734Y0297440D01*
X0277177Y0296883D01*
X0276739Y0296228D01*
X0276438Y0295500D01*
X0276284Y0294727D01*
X0276284Y0294333D01*
X0276620Y0295940D02*
X0162139Y0295940D01*
X0160736Y0298338D02*
X0303905Y0298338D01*
X0303938Y0298500D02*
X0303784Y0297727D01*
X0303784Y0297333D01*
X0303784Y0296939D01*
X0303938Y0296167D01*
X0304239Y0295439D01*
X0304677Y0294783D01*
X0305234Y0294226D01*
X0305889Y0293789D01*
X0306617Y0293487D01*
X0307390Y0293333D01*
X0307784Y0293333D01*
X0308178Y0293333D01*
X0308951Y0293487D01*
X0309679Y0293789D01*
X0310334Y0294226D01*
X0310891Y0294783D01*
X0311329Y0295439D01*
X0311630Y0296167D01*
X0311784Y0296939D01*
X0311784Y0297333D01*
X0307784Y0297333D01*
X0307784Y0293333D01*
X0307784Y0297333D01*
X0307784Y0297333D01*
X0307784Y0297333D01*
X0303784Y0297333D01*
X0307784Y0297333D01*
X0307784Y0297333D01*
X0311784Y0297333D01*
X0311784Y0297727D01*
X0311630Y0298500D01*
X0311329Y0299228D01*
X0310891Y0299883D01*
X0310334Y0300440D01*
X0309679Y0300878D01*
X0308951Y0301180D01*
X0308178Y0301333D01*
X0307784Y0301333D01*
X0307784Y0297333D01*
X0307784Y0297333D01*
X0307784Y0301333D01*
X0307390Y0301333D01*
X0306617Y0301180D01*
X0305889Y0300878D01*
X0305234Y0300440D01*
X0304677Y0299883D01*
X0304239Y0299228D01*
X0303938Y0298500D01*
X0304032Y0295940D02*
X0283948Y0295940D01*
X0284205Y0293541D02*
X0306487Y0293541D01*
X0307784Y0293541D02*
X0307784Y0293541D01*
X0309081Y0293541D02*
X0369489Y0293541D01*
X0369489Y0295940D02*
X0311536Y0295940D01*
X0311662Y0298338D02*
X0369489Y0298338D01*
X0369489Y0300737D02*
X0309890Y0300737D01*
X0307784Y0300737D02*
X0307784Y0300737D01*
X0305677Y0300737D02*
X0160364Y0300737D01*
X0162103Y0303135D02*
X0369489Y0303135D01*
X0369489Y0305534D02*
X0162343Y0305534D01*
X0161354Y0307932D02*
X0369489Y0307932D01*
X0369489Y0310331D02*
X0159308Y0310331D01*
X0161726Y0312729D02*
X0330879Y0312729D01*
X0330739Y0312939D02*
X0331177Y0312283D01*
X0331734Y0311726D01*
X0332389Y0311289D01*
X0333117Y0310987D01*
X0333890Y0310833D01*
X0334284Y0310833D01*
X0334678Y0310833D01*
X0335451Y0310987D01*
X0336179Y0311289D01*
X0336834Y0311726D01*
X0337391Y0312283D01*
X0337829Y0312939D01*
X0338130Y0313667D01*
X0338284Y0314439D01*
X0338284Y0314833D01*
X0334284Y0314833D01*
X0334284Y0310833D01*
X0334284Y0314833D01*
X0334284Y0314833D01*
X0334284Y0314833D01*
X0330284Y0314833D01*
X0330284Y0314439D01*
X0330438Y0313667D01*
X0330739Y0312939D01*
X0330284Y0314833D02*
X0334284Y0314833D01*
X0334284Y0314833D01*
X0338284Y0314833D01*
X0338284Y0315227D01*
X0338130Y0316000D01*
X0337829Y0316728D01*
X0337391Y0317383D01*
X0336834Y0317940D01*
X0336179Y0318378D01*
X0335451Y0318680D01*
X0334678Y0318833D01*
X0334284Y0318833D01*
X0334284Y0314833D01*
X0334284Y0314833D01*
X0334284Y0318833D01*
X0333890Y0318833D01*
X0333117Y0318680D01*
X0332389Y0318378D01*
X0331734Y0317940D01*
X0331177Y0317383D01*
X0330739Y0316728D01*
X0330438Y0316000D01*
X0330284Y0315227D01*
X0330284Y0314833D01*
X0330284Y0315128D02*
X0162189Y0315128D01*
X0161482Y0317526D02*
X0331320Y0317526D01*
X0334284Y0317526D02*
X0334284Y0317526D01*
X0334284Y0315128D02*
X0334284Y0315128D01*
X0334284Y0312729D02*
X0334284Y0312729D01*
X0337689Y0312729D02*
X0360879Y0312729D01*
X0360739Y0312939D02*
X0361177Y0312283D01*
X0361734Y0311726D01*
X0362389Y0311289D01*
X0363117Y0310987D01*
X0363890Y0310833D01*
X0364284Y0310833D01*
X0364678Y0310833D01*
X0365451Y0310987D01*
X0366179Y0311289D01*
X0366834Y0311726D01*
X0367391Y0312283D01*
X0367829Y0312939D01*
X0368130Y0313667D01*
X0368284Y0314439D01*
X0368284Y0314833D01*
X0364284Y0314833D01*
X0364284Y0310833D01*
X0364284Y0314833D01*
X0364284Y0314833D01*
X0364284Y0314833D01*
X0360284Y0314833D01*
X0360284Y0314439D01*
X0360438Y0313667D01*
X0360739Y0312939D01*
X0360284Y0314833D02*
X0364284Y0314833D01*
X0364284Y0314833D01*
X0368284Y0314833D01*
X0368284Y0315227D01*
X0368130Y0316000D01*
X0367829Y0316728D01*
X0367391Y0317383D01*
X0366834Y0317940D01*
X0366179Y0318378D01*
X0365451Y0318680D01*
X0364678Y0318833D01*
X0364284Y0318833D01*
X0364284Y0314833D01*
X0364284Y0314833D01*
X0364284Y0318833D01*
X0363890Y0318833D01*
X0363117Y0318680D01*
X0362389Y0318378D01*
X0361734Y0317940D01*
X0361177Y0317383D01*
X0360739Y0316728D01*
X0360438Y0316000D01*
X0360284Y0315227D01*
X0360284Y0314833D01*
X0360284Y0315128D02*
X0338284Y0315128D01*
X0337248Y0317526D02*
X0361320Y0317526D01*
X0364284Y0317526D02*
X0364284Y0317526D01*
X0364284Y0315128D02*
X0364284Y0315128D01*
X0364284Y0312729D02*
X0364284Y0312729D01*
X0367689Y0312729D02*
X0369489Y0312729D01*
X0369489Y0315128D02*
X0368284Y0315128D01*
X0367248Y0317526D02*
X0369489Y0317526D01*
X0369489Y0319925D02*
X0158804Y0319925D01*
X0161741Y0322323D02*
X0369489Y0322323D01*
X0369489Y0324722D02*
X0162389Y0324722D01*
X0162389Y0324833D02*
X0162389Y0325239D01*
X0162263Y0326040D01*
X0162012Y0326811D01*
X0161644Y0327534D01*
X0161167Y0328190D01*
X0160594Y0328764D01*
X0159937Y0329240D01*
X0159215Y0329609D01*
X0158443Y0329859D01*
X0157642Y0329986D01*
X0154284Y0329986D01*
X0154284Y0324833D01*
X0162389Y0324833D01*
X0161855Y0327120D02*
X0369489Y0327120D01*
X0369489Y0329519D02*
X0233523Y0329519D01*
X0233834Y0329726D02*
X0234391Y0330283D01*
X0234829Y0330939D01*
X0235130Y0331667D01*
X0235284Y0332439D01*
X0235284Y0332833D01*
X0231284Y0332833D01*
X0231284Y0328833D01*
X0231678Y0328833D01*
X0232451Y0328987D01*
X0233179Y0329289D01*
X0233834Y0329726D01*
X0231284Y0329519D02*
X0231284Y0329519D01*
X0231284Y0328833D02*
X0231284Y0332833D01*
X0231284Y0332833D01*
X0231284Y0332833D01*
X0227284Y0332833D01*
X0227284Y0332439D01*
X0227438Y0331667D01*
X0227739Y0330939D01*
X0228177Y0330283D01*
X0228734Y0329726D01*
X0229389Y0329289D01*
X0230117Y0328987D01*
X0230890Y0328833D01*
X0231284Y0328833D01*
X0229045Y0329519D02*
X0159391Y0329519D01*
X0154284Y0329519D02*
X0154284Y0329519D01*
X0154284Y0327120D02*
X0154284Y0327120D01*
X0154284Y0324833D02*
X0154284Y0324833D01*
X0149177Y0329519D02*
X0146684Y0329519D01*
X0146684Y0331917D02*
X0227388Y0331917D01*
X0227284Y0332833D02*
X0231284Y0332833D01*
X0231284Y0332833D01*
X0235284Y0332833D01*
X0235284Y0333227D01*
X0235130Y0334000D01*
X0234829Y0334728D01*
X0234391Y0335383D01*
X0233834Y0335940D01*
X0233179Y0336378D01*
X0232451Y0336680D01*
X0231678Y0336833D01*
X0231284Y0336833D01*
X0231284Y0332833D01*
X0231284Y0332833D01*
X0231284Y0336833D01*
X0230890Y0336833D01*
X0230117Y0336680D01*
X0229389Y0336378D01*
X0228734Y0335940D01*
X0228177Y0335383D01*
X0227739Y0334728D01*
X0227438Y0334000D01*
X0227284Y0333227D01*
X0227284Y0332833D01*
X0227568Y0334316D02*
X0146684Y0334316D01*
X0146684Y0336714D02*
X0230291Y0336714D01*
X0231284Y0336714D02*
X0231284Y0336714D01*
X0232277Y0336714D02*
X0369489Y0336714D01*
X0369489Y0334316D02*
X0234999Y0334316D01*
X0235180Y0331917D02*
X0369489Y0331917D01*
X0369489Y0339113D02*
X0365490Y0339113D01*
X0368718Y0341511D02*
X0369489Y0341511D01*
X0352294Y0339113D02*
X0146684Y0339113D01*
X0146684Y0341511D02*
X0188497Y0341511D01*
X0189737Y0341511D02*
X0189737Y0341511D01*
X0190977Y0341511D02*
X0268497Y0341511D01*
X0268530Y0341500D02*
X0269331Y0341373D01*
X0269737Y0341373D01*
X0270142Y0341373D01*
X0270943Y0341500D01*
X0271715Y0341751D01*
X0272437Y0342119D01*
X0273094Y0342596D01*
X0273667Y0343169D01*
X0274144Y0343826D01*
X0274512Y0344548D01*
X0274763Y0345320D01*
X0274794Y0345517D01*
X0275538Y0343721D01*
X0276931Y0342327D01*
X0278752Y0341573D01*
X0280722Y0341573D01*
X0282542Y0342327D01*
X0283935Y0343721D01*
X0284689Y0345541D01*
X0284689Y0347511D01*
X0283935Y0349332D01*
X0282542Y0350725D01*
X0280722Y0351479D01*
X0278752Y0351479D01*
X0276931Y0350725D01*
X0275538Y0349332D01*
X0274794Y0347535D01*
X0274763Y0347733D01*
X0274512Y0348504D01*
X0274144Y0349227D01*
X0273667Y0349883D01*
X0273094Y0350457D01*
X0272437Y0350933D01*
X0271715Y0351301D01*
X0270943Y0351552D01*
X0270746Y0351583D01*
X0272542Y0352327D01*
X0273935Y0353721D01*
X0274689Y0355541D01*
X0274689Y0357511D01*
X0273935Y0359332D01*
X0272542Y0360725D01*
X0270722Y0361479D01*
X0268752Y0361479D01*
X0266931Y0360725D01*
X0265538Y0359332D01*
X0264784Y0357511D01*
X0264784Y0355541D01*
X0265538Y0353721D01*
X0266931Y0352327D01*
X0268728Y0351583D01*
X0268530Y0351552D01*
X0267759Y0351301D01*
X0267036Y0350933D01*
X0266380Y0350457D01*
X0265806Y0349883D01*
X0265330Y0349227D01*
X0264961Y0348504D01*
X0264711Y0347733D01*
X0264680Y0347535D01*
X0263935Y0349332D01*
X0262542Y0350725D01*
X0260722Y0351479D01*
X0258752Y0351479D01*
X0256931Y0350725D01*
X0255538Y0349332D01*
X0254784Y0347511D01*
X0254784Y0345541D01*
X0255538Y0343721D01*
X0256931Y0342327D01*
X0258752Y0341573D01*
X0260722Y0341573D01*
X0262542Y0342327D01*
X0263935Y0343721D01*
X0264680Y0345517D01*
X0264711Y0345320D01*
X0264961Y0344548D01*
X0265330Y0343826D01*
X0265806Y0343169D01*
X0266380Y0342596D01*
X0267036Y0342119D01*
X0267759Y0341751D01*
X0268530Y0341500D01*
X0269737Y0341511D02*
X0269737Y0341511D01*
X0269737Y0341373D02*
X0269737Y0346526D01*
X0269737Y0346526D01*
X0269737Y0341373D01*
X0270977Y0341511D02*
X0338497Y0341511D01*
X0338530Y0341500D02*
X0339331Y0341373D01*
X0339737Y0341373D01*
X0340142Y0341373D01*
X0340943Y0341500D01*
X0341715Y0341751D01*
X0342437Y0342119D01*
X0343094Y0342596D01*
X0343667Y0343169D01*
X0344144Y0343826D01*
X0344512Y0344548D01*
X0344763Y0345320D01*
X0344889Y0346121D01*
X0344889Y0346526D01*
X0339737Y0346526D01*
X0339737Y0346526D01*
X0339737Y0341373D01*
X0339737Y0346526D01*
X0339737Y0346526D01*
X0344889Y0346526D01*
X0344889Y0346932D01*
X0344763Y0347733D01*
X0344512Y0348504D01*
X0344144Y0349227D01*
X0343667Y0349883D01*
X0343094Y0350457D01*
X0342437Y0350933D01*
X0341715Y0351301D01*
X0340943Y0351552D01*
X0340746Y0351583D01*
X0342542Y0352327D01*
X0343935Y0353721D01*
X0344689Y0355541D01*
X0344689Y0357511D01*
X0343935Y0359332D01*
X0342542Y0360725D01*
X0340722Y0361479D01*
X0338752Y0361479D01*
X0336931Y0360725D01*
X0335538Y0359332D01*
X0334784Y0357511D01*
X0334784Y0355541D01*
X0335538Y0353721D01*
X0336931Y0352327D01*
X0338728Y0351583D01*
X0338530Y0351552D01*
X0337759Y0351301D01*
X0337036Y0350933D01*
X0336380Y0350457D01*
X0335806Y0349883D01*
X0335330Y0349227D01*
X0334961Y0348504D01*
X0334711Y0347733D01*
X0334680Y0347535D01*
X0333935Y0349332D01*
X0332542Y0350725D01*
X0330722Y0351479D01*
X0328752Y0351479D01*
X0326931Y0350725D01*
X0325538Y0349332D01*
X0324784Y0347511D01*
X0324784Y0345541D01*
X0325538Y0343721D01*
X0326931Y0342327D01*
X0328752Y0341573D01*
X0330722Y0341573D01*
X0332542Y0342327D01*
X0333935Y0343721D01*
X0334680Y0345517D01*
X0334711Y0345320D01*
X0334961Y0344548D01*
X0335330Y0343826D01*
X0335806Y0343169D01*
X0336380Y0342596D01*
X0337036Y0342119D01*
X0337759Y0341751D01*
X0338530Y0341500D01*
X0339737Y0341511D02*
X0339737Y0341511D01*
X0340977Y0341511D02*
X0348950Y0341511D01*
X0347083Y0343910D02*
X0344187Y0343910D01*
X0344889Y0346308D02*
X0345888Y0346308D01*
X0345064Y0348707D02*
X0344409Y0348707D01*
X0344899Y0351105D02*
X0342100Y0351105D01*
X0343719Y0353504D02*
X0344899Y0353504D01*
X0344689Y0355902D02*
X0345599Y0355902D01*
X0346428Y0358301D02*
X0344362Y0358301D01*
X0342568Y0360699D02*
X0348295Y0360699D01*
X0336906Y0360699D02*
X0332568Y0360699D01*
X0332542Y0360725D02*
X0330722Y0361479D01*
X0328752Y0361479D01*
X0326931Y0360725D01*
X0325538Y0359332D01*
X0324784Y0357511D01*
X0324784Y0355541D01*
X0325538Y0353721D01*
X0326931Y0352327D01*
X0328752Y0351573D01*
X0330722Y0351573D01*
X0332542Y0352327D01*
X0333935Y0353721D01*
X0334689Y0355541D01*
X0334689Y0357511D01*
X0333935Y0359332D01*
X0332542Y0360725D01*
X0334362Y0358301D02*
X0335111Y0358301D01*
X0334784Y0355902D02*
X0334689Y0355902D01*
X0333719Y0353504D02*
X0335755Y0353504D01*
X0337374Y0351105D02*
X0331624Y0351105D01*
X0334194Y0348707D02*
X0335065Y0348707D01*
X0335287Y0343910D02*
X0334014Y0343910D01*
X0339737Y0343910D02*
X0339737Y0343910D01*
X0339737Y0346308D02*
X0339737Y0346308D01*
X0327849Y0351105D02*
X0321624Y0351105D01*
X0320722Y0351479D02*
X0322542Y0350725D01*
X0323935Y0349332D01*
X0324689Y0347511D01*
X0324689Y0345541D01*
X0323935Y0343721D01*
X0322542Y0342327D01*
X0320722Y0341573D01*
X0318752Y0341573D01*
X0316931Y0342327D01*
X0315538Y0343721D01*
X0314784Y0345541D01*
X0314784Y0347511D01*
X0315538Y0349332D01*
X0316931Y0350725D01*
X0318752Y0351479D01*
X0320722Y0351479D01*
X0320722Y0351573D02*
X0322542Y0352327D01*
X0323935Y0353721D01*
X0324689Y0355541D01*
X0324689Y0357511D01*
X0323935Y0359332D01*
X0322542Y0360725D01*
X0320722Y0361479D01*
X0318752Y0361479D01*
X0316931Y0360725D01*
X0315538Y0359332D01*
X0314794Y0357535D01*
X0314763Y0357733D01*
X0314512Y0358504D01*
X0314144Y0359227D01*
X0313667Y0359883D01*
X0313094Y0360457D01*
X0312437Y0360933D01*
X0311715Y0361301D01*
X0310943Y0361552D01*
X0310142Y0361679D01*
X0309737Y0361679D01*
X0309737Y0356526D01*
X0309737Y0356526D01*
X0309737Y0361679D01*
X0309331Y0361679D01*
X0308530Y0361552D01*
X0307759Y0361301D01*
X0307036Y0360933D01*
X0306380Y0360457D01*
X0305806Y0359883D01*
X0305330Y0359227D01*
X0304961Y0358504D01*
X0304711Y0357733D01*
X0304680Y0357535D01*
X0303935Y0359332D01*
X0302542Y0360725D01*
X0300722Y0361479D01*
X0298752Y0361479D01*
X0296931Y0360725D01*
X0295538Y0359332D01*
X0294794Y0357535D01*
X0294763Y0357733D01*
X0294512Y0358504D01*
X0294144Y0359227D01*
X0293667Y0359883D01*
X0293094Y0360457D01*
X0292437Y0360933D01*
X0291715Y0361301D01*
X0290943Y0361552D01*
X0290142Y0361679D01*
X0289737Y0361679D01*
X0289737Y0356526D01*
X0289737Y0356526D01*
X0289737Y0361679D01*
X0289331Y0361679D01*
X0288530Y0361552D01*
X0287759Y0361301D01*
X0287036Y0360933D01*
X0286380Y0360457D01*
X0285806Y0359883D01*
X0285330Y0359227D01*
X0284961Y0358504D01*
X0284711Y0357733D01*
X0284680Y0357535D01*
X0283935Y0359332D01*
X0282542Y0360725D01*
X0280722Y0361479D01*
X0278752Y0361479D01*
X0276931Y0360725D01*
X0275538Y0359332D01*
X0274784Y0357511D01*
X0274784Y0355541D01*
X0275538Y0353721D01*
X0276931Y0352327D01*
X0278752Y0351573D01*
X0280722Y0351573D01*
X0282542Y0352327D01*
X0283935Y0353721D01*
X0284680Y0355517D01*
X0284711Y0355320D01*
X0284961Y0354548D01*
X0285330Y0353826D01*
X0285806Y0353169D01*
X0286380Y0352596D01*
X0287036Y0352119D01*
X0287759Y0351751D01*
X0288530Y0351500D01*
X0288728Y0351469D01*
X0286931Y0350725D01*
X0285538Y0349332D01*
X0284784Y0347511D01*
X0284784Y0345541D01*
X0285538Y0343721D01*
X0286931Y0342327D01*
X0288752Y0341573D01*
X0290722Y0341573D01*
X0292542Y0342327D01*
X0293935Y0343721D01*
X0294689Y0345541D01*
X0294689Y0347511D01*
X0293935Y0349332D01*
X0292542Y0350725D01*
X0290746Y0351469D01*
X0290943Y0351500D01*
X0291715Y0351751D01*
X0292437Y0352119D01*
X0293094Y0352596D01*
X0293667Y0353169D01*
X0294144Y0353826D01*
X0294512Y0354548D01*
X0294763Y0355320D01*
X0294794Y0355517D01*
X0295538Y0353721D01*
X0296931Y0352327D01*
X0298752Y0351573D01*
X0300722Y0351573D01*
X0302542Y0352327D01*
X0303935Y0353721D01*
X0304680Y0355517D01*
X0304711Y0355320D01*
X0304961Y0354548D01*
X0305330Y0353826D01*
X0305806Y0353169D01*
X0306380Y0352596D01*
X0307036Y0352119D01*
X0307759Y0351751D01*
X0308530Y0351500D01*
X0308728Y0351469D01*
X0306931Y0350725D01*
X0305538Y0349332D01*
X0304784Y0347511D01*
X0304784Y0345541D01*
X0305538Y0343721D01*
X0306931Y0342327D01*
X0308752Y0341573D01*
X0310722Y0341573D01*
X0312542Y0342327D01*
X0313935Y0343721D01*
X0314689Y0345541D01*
X0314689Y0347511D01*
X0313935Y0349332D01*
X0312542Y0350725D01*
X0310746Y0351469D01*
X0310943Y0351500D01*
X0311715Y0351751D01*
X0312437Y0352119D01*
X0313094Y0352596D01*
X0313667Y0353169D01*
X0314144Y0353826D01*
X0314512Y0354548D01*
X0314763Y0355320D01*
X0314794Y0355517D01*
X0315538Y0353721D01*
X0316931Y0352327D01*
X0318752Y0351573D01*
X0320722Y0351573D01*
X0317849Y0351105D02*
X0311624Y0351105D01*
X0313910Y0353504D02*
X0315755Y0353504D01*
X0315279Y0348707D02*
X0314194Y0348707D01*
X0314689Y0346308D02*
X0314784Y0346308D01*
X0315460Y0343910D02*
X0314014Y0343910D01*
X0305460Y0343910D02*
X0304014Y0343910D01*
X0303935Y0343721D02*
X0304689Y0345541D01*
X0304689Y0347511D01*
X0303935Y0349332D01*
X0302542Y0350725D01*
X0300722Y0351479D01*
X0298752Y0351479D01*
X0296931Y0350725D01*
X0295538Y0349332D01*
X0294784Y0347511D01*
X0294784Y0345541D01*
X0295538Y0343721D01*
X0296931Y0342327D01*
X0298752Y0341573D01*
X0300722Y0341573D01*
X0302542Y0342327D01*
X0303935Y0343721D01*
X0304689Y0346308D02*
X0304784Y0346308D01*
X0305279Y0348707D02*
X0304194Y0348707D01*
X0301624Y0351105D02*
X0307849Y0351105D01*
X0305563Y0353504D02*
X0303719Y0353504D01*
X0304362Y0358301D02*
X0304895Y0358301D01*
X0306714Y0360699D02*
X0302568Y0360699D01*
X0296906Y0360699D02*
X0292759Y0360699D01*
X0294578Y0358301D02*
X0295111Y0358301D01*
X0295755Y0353504D02*
X0293910Y0353504D01*
X0291624Y0351105D02*
X0297849Y0351105D01*
X0295279Y0348707D02*
X0294194Y0348707D01*
X0294689Y0346308D02*
X0294784Y0346308D01*
X0295460Y0343910D02*
X0294014Y0343910D01*
X0287849Y0351105D02*
X0281624Y0351105D01*
X0283719Y0353504D02*
X0285563Y0353504D01*
X0285279Y0348707D02*
X0284194Y0348707D01*
X0284689Y0346308D02*
X0284784Y0346308D01*
X0285460Y0343910D02*
X0284014Y0343910D01*
X0277849Y0351105D02*
X0272100Y0351105D01*
X0273719Y0353504D02*
X0275755Y0353504D01*
X0274784Y0355902D02*
X0274689Y0355902D01*
X0274362Y0358301D02*
X0275111Y0358301D01*
X0276906Y0360699D02*
X0272568Y0360699D01*
X0266906Y0360699D02*
X0262568Y0360699D01*
X0262542Y0360725D02*
X0260722Y0361479D01*
X0258752Y0361479D01*
X0256931Y0360725D01*
X0255538Y0359332D01*
X0254784Y0357511D01*
X0254784Y0355541D01*
X0255538Y0353721D01*
X0256931Y0352327D01*
X0258752Y0351573D01*
X0260722Y0351573D01*
X0262542Y0352327D01*
X0263935Y0353721D01*
X0264689Y0355541D01*
X0264689Y0357511D01*
X0263935Y0359332D01*
X0262542Y0360725D01*
X0264362Y0358301D02*
X0265111Y0358301D01*
X0264784Y0355902D02*
X0264689Y0355902D01*
X0263719Y0353504D02*
X0265755Y0353504D01*
X0267374Y0351105D02*
X0261624Y0351105D01*
X0264194Y0348707D02*
X0265065Y0348707D01*
X0265287Y0343910D02*
X0264014Y0343910D01*
X0269737Y0343910D02*
X0269737Y0343910D01*
X0269737Y0346308D02*
X0269737Y0346308D01*
X0274187Y0343910D02*
X0275460Y0343910D01*
X0275279Y0348707D02*
X0274409Y0348707D01*
X0284362Y0358301D02*
X0284895Y0358301D01*
X0286714Y0360699D02*
X0282568Y0360699D01*
X0289737Y0360699D02*
X0289737Y0360699D01*
X0289737Y0358301D02*
X0289737Y0358301D01*
X0309737Y0358301D02*
X0309737Y0358301D01*
X0309737Y0360699D02*
X0309737Y0360699D01*
X0312759Y0360699D02*
X0316906Y0360699D01*
X0315111Y0358301D02*
X0314578Y0358301D01*
X0322568Y0360699D02*
X0326906Y0360699D01*
X0325111Y0358301D02*
X0324362Y0358301D01*
X0324689Y0355902D02*
X0324784Y0355902D01*
X0325755Y0353504D02*
X0323719Y0353504D01*
X0324194Y0348707D02*
X0325279Y0348707D01*
X0324784Y0346308D02*
X0324689Y0346308D01*
X0324014Y0343910D02*
X0325460Y0343910D01*
X0307784Y0298338D02*
X0307784Y0298338D01*
X0307784Y0295940D02*
X0307784Y0295940D01*
X0280284Y0295940D02*
X0280284Y0295940D01*
X0280284Y0293541D02*
X0280284Y0293541D01*
X0280284Y0288744D02*
X0280284Y0288744D01*
X0280284Y0286345D02*
X0280284Y0286345D01*
X0276402Y0286345D02*
X0143606Y0286345D01*
X0143606Y0283947D02*
X0175623Y0283947D01*
X0175362Y0281548D02*
X0143606Y0281548D01*
X0143606Y0288744D02*
X0276539Y0288744D01*
X0253803Y0252766D02*
X0331560Y0252766D01*
X0331734Y0252940D02*
X0331177Y0252383D01*
X0330739Y0251728D01*
X0330438Y0251000D01*
X0330284Y0250227D01*
X0330284Y0249833D01*
X0330284Y0249439D01*
X0330438Y0248667D01*
X0330739Y0247939D01*
X0331177Y0247283D01*
X0331734Y0246726D01*
X0332389Y0246289D01*
X0333117Y0245987D01*
X0333890Y0245833D01*
X0334284Y0245833D01*
X0334678Y0245833D01*
X0335451Y0245987D01*
X0336179Y0246289D01*
X0336834Y0246726D01*
X0337391Y0247283D01*
X0337829Y0247939D01*
X0338130Y0248667D01*
X0338284Y0249439D01*
X0338284Y0249833D01*
X0334284Y0249833D01*
X0334284Y0245833D01*
X0334284Y0249833D01*
X0334284Y0249833D01*
X0334284Y0249833D01*
X0330284Y0249833D01*
X0334284Y0249833D01*
X0334284Y0249833D01*
X0338284Y0249833D01*
X0338284Y0250227D01*
X0338130Y0251000D01*
X0337829Y0251728D01*
X0337391Y0252383D01*
X0336834Y0252940D01*
X0336179Y0253378D01*
X0335451Y0253680D01*
X0334678Y0253833D01*
X0334284Y0253833D01*
X0334284Y0249833D01*
X0334284Y0249833D01*
X0334284Y0253833D01*
X0333890Y0253833D01*
X0333117Y0253680D01*
X0332389Y0253378D01*
X0331734Y0252940D01*
X0334284Y0252766D02*
X0334284Y0252766D01*
X0334284Y0250368D02*
X0334284Y0250368D01*
X0334284Y0247969D02*
X0334284Y0247969D01*
X0337841Y0247969D02*
X0360726Y0247969D01*
X0360739Y0247939D02*
X0361177Y0247283D01*
X0361734Y0246726D01*
X0362389Y0246289D01*
X0363117Y0245987D01*
X0363890Y0245833D01*
X0364284Y0245833D01*
X0364678Y0245833D01*
X0365451Y0245987D01*
X0366179Y0246289D01*
X0366834Y0246726D01*
X0367391Y0247283D01*
X0367829Y0247939D01*
X0368130Y0248667D01*
X0368284Y0249439D01*
X0368284Y0249833D01*
X0364284Y0249833D01*
X0364284Y0245833D01*
X0364284Y0249833D01*
X0364284Y0249833D01*
X0364284Y0249833D01*
X0360284Y0249833D01*
X0360284Y0249439D01*
X0360438Y0248667D01*
X0360739Y0247939D01*
X0360284Y0249833D02*
X0364284Y0249833D01*
X0364284Y0249833D01*
X0368284Y0249833D01*
X0368284Y0250227D01*
X0368130Y0251000D01*
X0367829Y0251728D01*
X0367391Y0252383D01*
X0366834Y0252940D01*
X0366179Y0253378D01*
X0365451Y0253680D01*
X0364678Y0253833D01*
X0364284Y0253833D01*
X0364284Y0249833D01*
X0364284Y0249833D01*
X0364284Y0253833D01*
X0363890Y0253833D01*
X0363117Y0253680D01*
X0362389Y0253378D01*
X0361734Y0252940D01*
X0361177Y0252383D01*
X0360739Y0251728D01*
X0360438Y0251000D01*
X0360284Y0250227D01*
X0360284Y0249833D01*
X0360312Y0250368D02*
X0338256Y0250368D01*
X0337008Y0252766D02*
X0361560Y0252766D01*
X0364284Y0252766D02*
X0364284Y0252766D01*
X0364284Y0250368D02*
X0364284Y0250368D01*
X0364284Y0247969D02*
X0364284Y0247969D01*
X0367841Y0247969D02*
X0369489Y0247969D01*
X0369489Y0245571D02*
X0252784Y0245571D01*
X0252784Y0247969D02*
X0330726Y0247969D01*
X0330312Y0250368D02*
X0253997Y0250368D01*
X0247784Y0247969D02*
X0222424Y0247969D01*
X0222354Y0248233D02*
X0221980Y0249135D01*
X0221492Y0249981D01*
X0220897Y0250756D01*
X0220207Y0251447D01*
X0219432Y0252041D01*
X0218586Y0252529D01*
X0217684Y0252903D01*
X0216740Y0253156D01*
X0215834Y0253275D01*
X0215834Y0246383D01*
X0222726Y0246383D01*
X0222606Y0247290D01*
X0222354Y0248233D01*
X0221195Y0250368D02*
X0246571Y0250368D01*
X0246764Y0252766D02*
X0218014Y0252766D01*
X0215834Y0252766D02*
X0214734Y0252766D01*
X0214734Y0253275D02*
X0213827Y0253156D01*
X0212884Y0252903D01*
X0211982Y0252529D01*
X0211136Y0252041D01*
X0210361Y0251447D01*
X0209671Y0250756D01*
X0209076Y0249981D01*
X0208588Y0249135D01*
X0208214Y0248233D01*
X0207961Y0247290D01*
X0207842Y0246383D01*
X0214734Y0246383D01*
X0214734Y0245283D01*
X0215834Y0245283D01*
X0215834Y0238391D01*
X0216740Y0238511D01*
X0217684Y0238764D01*
X0218586Y0239137D01*
X0219432Y0239626D01*
X0220207Y0240220D01*
X0220897Y0240911D01*
X0221492Y0241685D01*
X0221980Y0242531D01*
X0222354Y0243433D01*
X0222606Y0244377D01*
X0222726Y0245283D01*
X0215834Y0245283D01*
X0215834Y0246383D01*
X0214734Y0246383D01*
X0214734Y0253275D01*
X0212554Y0252766D02*
X0186491Y0252766D01*
X0190002Y0250368D02*
X0209373Y0250368D01*
X0208143Y0247969D02*
X0191247Y0247969D01*
X0191534Y0245571D02*
X0214734Y0245571D01*
X0214734Y0245283D02*
X0207842Y0245283D01*
X0207961Y0244377D01*
X0208214Y0243433D01*
X0208588Y0242531D01*
X0209076Y0241685D01*
X0209671Y0240911D01*
X0210361Y0240220D01*
X0211136Y0239626D01*
X0211982Y0239137D01*
X0212884Y0238764D01*
X0213827Y0238511D01*
X0214734Y0238391D01*
X0214734Y0245283D01*
X0215834Y0245571D02*
X0247784Y0245571D01*
X0247784Y0243172D02*
X0222246Y0243172D01*
X0220760Y0240774D02*
X0247784Y0240774D01*
X0215834Y0240774D02*
X0214734Y0240774D01*
X0214734Y0243172D02*
X0215834Y0243172D01*
X0215834Y0247969D02*
X0214734Y0247969D01*
X0214734Y0250368D02*
X0215834Y0250368D01*
X0208322Y0243172D02*
X0191029Y0243172D01*
X0189477Y0240774D02*
X0209808Y0240774D01*
X0148018Y0291143D02*
X0143606Y0291143D01*
X0146684Y0327120D02*
X0146713Y0327120D01*
X0156931Y0342327D02*
X0158752Y0341573D01*
X0160722Y0341573D01*
X0162542Y0342327D01*
X0163935Y0343721D01*
X0164689Y0345541D01*
X0164689Y0347511D01*
X0163935Y0349332D01*
X0162542Y0350725D01*
X0160722Y0351479D01*
X0158752Y0351479D01*
X0156931Y0350725D01*
X0155538Y0349332D01*
X0154784Y0347511D01*
X0154784Y0345541D01*
X0155538Y0343721D01*
X0156931Y0342327D01*
X0155460Y0343910D02*
X0154689Y0343910D01*
X0154689Y0346308D02*
X0154784Y0346308D01*
X0154689Y0348707D02*
X0155279Y0348707D01*
X0153892Y0351105D02*
X0157849Y0351105D01*
X0155755Y0353504D02*
X0153719Y0353504D01*
X0154689Y0355902D02*
X0154784Y0355902D01*
X0155111Y0358301D02*
X0154362Y0358301D01*
X0161624Y0351105D02*
X0167849Y0351105D01*
X0165563Y0353504D02*
X0163719Y0353504D01*
X0164194Y0348707D02*
X0165279Y0348707D01*
X0164784Y0346308D02*
X0164689Y0346308D01*
X0164014Y0343910D02*
X0165460Y0343910D01*
X0174014Y0343910D02*
X0175460Y0343910D01*
X0174784Y0346308D02*
X0174689Y0346308D01*
X0174194Y0348707D02*
X0175279Y0348707D01*
X0177849Y0351105D02*
X0171624Y0351105D01*
X0173910Y0353504D02*
X0175755Y0353504D01*
X0181624Y0351105D02*
X0187374Y0351105D01*
X0185755Y0353504D02*
X0183719Y0353504D01*
X0184689Y0355902D02*
X0184784Y0355902D01*
X0185111Y0358301D02*
X0184362Y0358301D01*
X0184194Y0348707D02*
X0185065Y0348707D01*
X0185287Y0343910D02*
X0184014Y0343910D01*
X0189737Y0343910D02*
X0189737Y0343910D01*
X0189737Y0346308D02*
X0189737Y0346308D01*
X0194187Y0343910D02*
X0195460Y0343910D01*
X0195279Y0348707D02*
X0194409Y0348707D01*
X0192100Y0351105D02*
X0197849Y0351105D01*
X0195755Y0353504D02*
X0193719Y0353504D01*
X0194689Y0355902D02*
X0194784Y0355902D01*
X0195111Y0358301D02*
X0194362Y0358301D01*
X0201624Y0351105D02*
X0207849Y0351105D01*
X0205563Y0353504D02*
X0203719Y0353504D01*
X0204194Y0348707D02*
X0205279Y0348707D01*
X0204784Y0346308D02*
X0204689Y0346308D01*
X0204014Y0343910D02*
X0205460Y0343910D01*
X0211624Y0351105D02*
X0217849Y0351105D01*
X0218752Y0351479D02*
X0216931Y0350725D01*
X0215538Y0349332D01*
X0214784Y0347511D01*
X0214784Y0345541D01*
X0215538Y0343721D01*
X0216931Y0342327D01*
X0218752Y0341573D01*
X0220722Y0341573D01*
X0222542Y0342327D01*
X0223935Y0343721D01*
X0224689Y0345541D01*
X0224689Y0347511D01*
X0223935Y0349332D01*
X0222542Y0350725D01*
X0220722Y0351479D01*
X0218752Y0351479D01*
X0221624Y0351105D02*
X0227849Y0351105D01*
X0228752Y0351479D02*
X0226931Y0350725D01*
X0225538Y0349332D01*
X0224784Y0347511D01*
X0224784Y0345541D01*
X0225538Y0343721D01*
X0226931Y0342327D01*
X0228752Y0341573D01*
X0230722Y0341573D01*
X0232542Y0342327D01*
X0233935Y0343721D01*
X0234689Y0345541D01*
X0234689Y0347511D01*
X0233935Y0349332D01*
X0232542Y0350725D01*
X0230722Y0351479D01*
X0228752Y0351479D01*
X0228752Y0351573D02*
X0230722Y0351573D01*
X0232542Y0352327D01*
X0233935Y0353721D01*
X0234680Y0355517D01*
X0234711Y0355320D01*
X0234961Y0354548D01*
X0235330Y0353826D01*
X0235806Y0353169D01*
X0236380Y0352596D01*
X0237036Y0352119D01*
X0237759Y0351751D01*
X0238530Y0351500D01*
X0238728Y0351469D01*
X0236931Y0350725D01*
X0235538Y0349332D01*
X0234784Y0347511D01*
X0234784Y0345541D01*
X0235538Y0343721D01*
X0236931Y0342327D01*
X0238752Y0341573D01*
X0240722Y0341573D01*
X0242542Y0342327D01*
X0243935Y0343721D01*
X0244689Y0345541D01*
X0244689Y0347511D01*
X0243935Y0349332D01*
X0242542Y0350725D01*
X0240746Y0351469D01*
X0240943Y0351500D01*
X0241715Y0351751D01*
X0242437Y0352119D01*
X0243094Y0352596D01*
X0243667Y0353169D01*
X0244144Y0353826D01*
X0244512Y0354548D01*
X0244763Y0355320D01*
X0244794Y0355517D01*
X0245538Y0353721D01*
X0246931Y0352327D01*
X0248752Y0351573D01*
X0250722Y0351573D01*
X0252542Y0352327D01*
X0253935Y0353721D01*
X0254689Y0355541D01*
X0254689Y0357511D01*
X0253935Y0359332D01*
X0252542Y0360725D01*
X0250722Y0361479D01*
X0248752Y0361479D01*
X0246931Y0360725D01*
X0245538Y0359332D01*
X0244794Y0357535D01*
X0244763Y0357733D01*
X0244512Y0358504D01*
X0244144Y0359227D01*
X0243667Y0359883D01*
X0243094Y0360457D01*
X0242437Y0360933D01*
X0241715Y0361301D01*
X0240943Y0361552D01*
X0240142Y0361679D01*
X0239737Y0361679D01*
X0239737Y0356526D01*
X0239737Y0356526D01*
X0239737Y0361679D01*
X0239331Y0361679D01*
X0238530Y0361552D01*
X0237759Y0361301D01*
X0237036Y0360933D01*
X0236380Y0360457D01*
X0235806Y0359883D01*
X0235330Y0359227D01*
X0234961Y0358504D01*
X0234711Y0357733D01*
X0234680Y0357535D01*
X0233935Y0359332D01*
X0232542Y0360725D01*
X0230722Y0361479D01*
X0228752Y0361479D01*
X0226931Y0360725D01*
X0225538Y0359332D01*
X0224784Y0357511D01*
X0224784Y0355541D01*
X0225538Y0353721D01*
X0226931Y0352327D01*
X0228752Y0351573D01*
X0231624Y0351105D02*
X0237849Y0351105D01*
X0235563Y0353504D02*
X0233719Y0353504D01*
X0234194Y0348707D02*
X0235279Y0348707D01*
X0234784Y0346308D02*
X0234689Y0346308D01*
X0234014Y0343910D02*
X0235460Y0343910D01*
X0244014Y0343910D02*
X0245460Y0343910D01*
X0245538Y0343721D02*
X0246931Y0342327D01*
X0248752Y0341573D01*
X0250722Y0341573D01*
X0252542Y0342327D01*
X0253935Y0343721D01*
X0254689Y0345541D01*
X0254689Y0347511D01*
X0253935Y0349332D01*
X0252542Y0350725D01*
X0250722Y0351479D01*
X0248752Y0351479D01*
X0246931Y0350725D01*
X0245538Y0349332D01*
X0244784Y0347511D01*
X0244784Y0345541D01*
X0245538Y0343721D01*
X0244784Y0346308D02*
X0244689Y0346308D01*
X0244194Y0348707D02*
X0245279Y0348707D01*
X0247849Y0351105D02*
X0241624Y0351105D01*
X0243910Y0353504D02*
X0245755Y0353504D01*
X0245111Y0358301D02*
X0244578Y0358301D01*
X0242759Y0360699D02*
X0246906Y0360699D01*
X0252568Y0360699D02*
X0256906Y0360699D01*
X0255111Y0358301D02*
X0254362Y0358301D01*
X0254689Y0355902D02*
X0254784Y0355902D01*
X0255755Y0353504D02*
X0253719Y0353504D01*
X0251624Y0351105D02*
X0257849Y0351105D01*
X0255279Y0348707D02*
X0254194Y0348707D01*
X0254689Y0346308D02*
X0254784Y0346308D01*
X0255460Y0343910D02*
X0254014Y0343910D01*
X0239737Y0358301D02*
X0239737Y0358301D01*
X0239737Y0360699D02*
X0239737Y0360699D01*
X0236714Y0360699D02*
X0232568Y0360699D01*
X0234362Y0358301D02*
X0234895Y0358301D01*
X0226906Y0360699D02*
X0222568Y0360699D01*
X0224362Y0358301D02*
X0225111Y0358301D01*
X0224784Y0355902D02*
X0224689Y0355902D01*
X0223719Y0353504D02*
X0225755Y0353504D01*
X0225279Y0348707D02*
X0224194Y0348707D01*
X0224689Y0346308D02*
X0224784Y0346308D01*
X0225460Y0343910D02*
X0224014Y0343910D01*
X0215460Y0343910D02*
X0214014Y0343910D01*
X0214689Y0346308D02*
X0214784Y0346308D01*
X0215279Y0348707D02*
X0214194Y0348707D01*
X0213910Y0353504D02*
X0215755Y0353504D01*
X0231284Y0334316D02*
X0231284Y0334316D01*
X0231284Y0331917D02*
X0231284Y0331917D01*
X0366720Y0279150D02*
X0369489Y0279150D01*
X0369489Y0281548D02*
X0368206Y0281548D01*
X0367008Y0252766D02*
X0369489Y0252766D01*
X0369489Y0250368D02*
X0368256Y0250368D01*
X0369489Y0171217D02*
X0365055Y0171217D01*
X0368511Y0168818D02*
X0369489Y0168818D01*
D18*
X0364284Y0184833D03*
X0364284Y0217333D03*
X0334284Y0217333D03*
X0306784Y0217333D03*
X0282284Y0217333D03*
X0281784Y0184833D03*
X0306784Y0184833D03*
X0306784Y0152333D03*
X0281784Y0152333D03*
X0334284Y0152333D03*
X0317284Y0239833D03*
X0334284Y0249833D03*
X0364284Y0249833D03*
X0364284Y0282333D03*
X0334284Y0282333D03*
X0307784Y0297333D03*
X0280284Y0294333D03*
X0280284Y0287333D03*
X0250284Y0251333D03*
X0214284Y0282333D03*
X0179284Y0282333D03*
X0231284Y0332833D03*
X0334284Y0314833D03*
X0364284Y0314833D03*
X0214284Y0152333D03*
X0179284Y0152333D03*
X0149284Y0152333D03*
X0149284Y0177333D03*
X0154284Y0193833D03*
X0179284Y0207333D03*
X0124284Y0207333D03*
X0124284Y0177333D03*
D19*
X0250284Y0224333D02*
X0253784Y0220833D01*
X0269784Y0220833D01*
X0288784Y0239833D01*
X0317284Y0239833D01*
X0250284Y0251333D02*
X0250284Y0224333D01*
M02*
