G75*
%MOIN*%
%OFA0B0*%
%FSLAX25Y25*%
%IPPOS*%
%LPD*%
%AMOC8*
5,1,8,0,0,1.08239X$1,22.5*
%
%ADD10C,0.11427*%
%ADD11R,0.06506X0.06506*%
%ADD12C,0.06506*%
%ADD13C,0.06506*%
%ADD14C,0.10600*%
%ADD15R,0.09600X0.09600*%
%ADD16C,0.11100*%
%ADD17C,0.04200*%
D10*
X0130563Y0158613D03*
X0130563Y0351526D03*
X0358910Y0351526D03*
X0358910Y0158613D03*
D11*
X0149737Y0346526D03*
D12*
X0159737Y0346526D03*
X0169737Y0346526D03*
X0179737Y0346526D03*
X0189737Y0346526D03*
X0199737Y0346526D03*
X0209737Y0346526D03*
X0219737Y0346526D03*
X0229737Y0346526D03*
X0239737Y0346526D03*
X0249737Y0346526D03*
X0259737Y0346526D03*
X0269737Y0346526D03*
X0279737Y0346526D03*
X0289737Y0346526D03*
X0299737Y0346526D03*
X0309737Y0346526D03*
X0319737Y0346526D03*
X0329737Y0346526D03*
X0339737Y0346526D03*
X0339737Y0356526D03*
X0329737Y0356526D03*
X0319737Y0356526D03*
X0309737Y0356526D03*
X0299737Y0356526D03*
X0289737Y0356526D03*
X0279737Y0356526D03*
X0269737Y0356526D03*
X0259737Y0356526D03*
X0249737Y0356526D03*
X0239737Y0356526D03*
X0229737Y0356526D03*
X0219737Y0356526D03*
X0209737Y0356526D03*
X0199737Y0356526D03*
X0189737Y0356526D03*
X0179737Y0356526D03*
X0169737Y0356526D03*
X0159737Y0356526D03*
X0149737Y0356526D03*
D13*
X0151331Y0324833D02*
X0157237Y0324833D01*
X0157237Y0314833D02*
X0151331Y0314833D01*
X0151331Y0304833D02*
X0157237Y0304833D01*
X0157237Y0294833D02*
X0151331Y0294833D01*
D14*
X0171284Y0183833D03*
X0228284Y0183833D03*
D15*
X0261784Y0158333D03*
X0261784Y0231333D03*
D16*
X0215284Y0245833D03*
X0184284Y0245833D03*
D17*
X0149284Y0152333D03*
X0149284Y0177333D03*
X0154284Y0193833D03*
X0179284Y0207333D03*
X0124284Y0207333D03*
X0124284Y0177333D03*
X0179284Y0152333D03*
X0214284Y0152333D03*
X0281784Y0152333D03*
X0306784Y0152333D03*
X0334284Y0152333D03*
X0306784Y0184833D03*
X0281784Y0184833D03*
X0282284Y0217333D03*
X0306784Y0217333D03*
X0317284Y0239833D03*
X0334284Y0249833D03*
X0364284Y0249833D03*
X0364284Y0217333D03*
X0334284Y0217333D03*
X0364284Y0184833D03*
X0364284Y0282333D03*
X0334284Y0282333D03*
X0307784Y0297333D03*
X0280284Y0294333D03*
X0280284Y0287333D03*
X0250284Y0251333D03*
X0214284Y0282333D03*
X0179284Y0282333D03*
X0231284Y0332833D03*
X0334284Y0314833D03*
X0364284Y0314833D03*
M02*
