G75*
%MOIN*%
%OFA0B0*%
%FSLAX25Y25*%
%IPPOS*%
%LPD*%
%AMOC8*
5,1,8,0,0,1.08239X$1,22.5*
%
%ADD10C,0.00000*%
D10*
X0128595Y0144833D02*
X0290012Y0144833D01*
X0297886Y0144833D01*
X0297886Y0231448D01*
X0290012Y0231448D01*
X0297886Y0231448D01*
X0297886Y0144833D01*
X0360878Y0144833D01*
X0361163Y0144836D01*
X0361449Y0144847D01*
X0361734Y0144864D01*
X0362018Y0144888D01*
X0362302Y0144919D01*
X0362585Y0144957D01*
X0362866Y0145002D01*
X0363147Y0145053D01*
X0363427Y0145111D01*
X0363705Y0145176D01*
X0363981Y0145248D01*
X0364255Y0145326D01*
X0364528Y0145411D01*
X0364798Y0145503D01*
X0365066Y0145601D01*
X0365332Y0145705D01*
X0365595Y0145816D01*
X0365855Y0145933D01*
X0366113Y0146056D01*
X0366367Y0146186D01*
X0366618Y0146322D01*
X0366866Y0146463D01*
X0367110Y0146611D01*
X0367351Y0146764D01*
X0367587Y0146924D01*
X0367820Y0147089D01*
X0368049Y0147259D01*
X0368274Y0147435D01*
X0368494Y0147617D01*
X0368710Y0147803D01*
X0368921Y0147995D01*
X0369128Y0148192D01*
X0369330Y0148394D01*
X0369527Y0148601D01*
X0369719Y0148812D01*
X0369905Y0149028D01*
X0370087Y0149248D01*
X0370263Y0149473D01*
X0370433Y0149702D01*
X0370598Y0149935D01*
X0370758Y0150171D01*
X0370911Y0150412D01*
X0371059Y0150656D01*
X0371200Y0150904D01*
X0371336Y0151155D01*
X0371466Y0151409D01*
X0371589Y0151667D01*
X0371706Y0151927D01*
X0371817Y0152190D01*
X0371921Y0152456D01*
X0372019Y0152724D01*
X0372111Y0152994D01*
X0372196Y0153267D01*
X0372274Y0153541D01*
X0372346Y0153817D01*
X0372411Y0154095D01*
X0372469Y0154375D01*
X0372520Y0154656D01*
X0372565Y0154937D01*
X0372603Y0155220D01*
X0372634Y0155504D01*
X0372658Y0155788D01*
X0372675Y0156073D01*
X0372686Y0156359D01*
X0372689Y0156644D01*
X0372689Y0353495D01*
X0372686Y0353780D01*
X0372675Y0354066D01*
X0372658Y0354351D01*
X0372634Y0354635D01*
X0372603Y0354919D01*
X0372565Y0355202D01*
X0372520Y0355483D01*
X0372469Y0355764D01*
X0372411Y0356044D01*
X0372346Y0356322D01*
X0372274Y0356598D01*
X0372196Y0356872D01*
X0372111Y0357145D01*
X0372019Y0357415D01*
X0371921Y0357683D01*
X0371817Y0357949D01*
X0371706Y0358212D01*
X0371589Y0358472D01*
X0371466Y0358730D01*
X0371336Y0358984D01*
X0371200Y0359235D01*
X0371059Y0359483D01*
X0370911Y0359727D01*
X0370758Y0359968D01*
X0370598Y0360204D01*
X0370433Y0360437D01*
X0370263Y0360666D01*
X0370087Y0360891D01*
X0369905Y0361111D01*
X0369719Y0361327D01*
X0369527Y0361538D01*
X0369330Y0361745D01*
X0369128Y0361947D01*
X0368921Y0362144D01*
X0368710Y0362336D01*
X0368494Y0362522D01*
X0368274Y0362704D01*
X0368049Y0362880D01*
X0367820Y0363050D01*
X0367587Y0363215D01*
X0367351Y0363375D01*
X0367110Y0363528D01*
X0366866Y0363676D01*
X0366618Y0363817D01*
X0366367Y0363953D01*
X0366113Y0364083D01*
X0365855Y0364206D01*
X0365595Y0364323D01*
X0365332Y0364434D01*
X0365066Y0364538D01*
X0364798Y0364636D01*
X0364528Y0364728D01*
X0364255Y0364813D01*
X0363981Y0364891D01*
X0363705Y0364963D01*
X0363427Y0365028D01*
X0363147Y0365086D01*
X0362866Y0365137D01*
X0362585Y0365182D01*
X0362302Y0365220D01*
X0362018Y0365251D01*
X0361734Y0365275D01*
X0361449Y0365292D01*
X0361163Y0365303D01*
X0360878Y0365306D01*
X0128595Y0365306D01*
X0128310Y0365303D01*
X0128024Y0365292D01*
X0127739Y0365275D01*
X0127455Y0365251D01*
X0127171Y0365220D01*
X0126888Y0365182D01*
X0126607Y0365137D01*
X0126326Y0365086D01*
X0126046Y0365028D01*
X0125768Y0364963D01*
X0125492Y0364891D01*
X0125218Y0364813D01*
X0124945Y0364728D01*
X0124675Y0364636D01*
X0124407Y0364538D01*
X0124141Y0364434D01*
X0123878Y0364323D01*
X0123618Y0364206D01*
X0123360Y0364083D01*
X0123106Y0363953D01*
X0122855Y0363817D01*
X0122607Y0363676D01*
X0122363Y0363528D01*
X0122122Y0363375D01*
X0121886Y0363215D01*
X0121653Y0363050D01*
X0121424Y0362880D01*
X0121199Y0362704D01*
X0120979Y0362522D01*
X0120763Y0362336D01*
X0120552Y0362144D01*
X0120345Y0361947D01*
X0120143Y0361745D01*
X0119946Y0361538D01*
X0119754Y0361327D01*
X0119568Y0361111D01*
X0119386Y0360891D01*
X0119210Y0360666D01*
X0119040Y0360437D01*
X0118875Y0360204D01*
X0118715Y0359968D01*
X0118562Y0359727D01*
X0118414Y0359483D01*
X0118273Y0359235D01*
X0118137Y0358984D01*
X0118007Y0358730D01*
X0117884Y0358472D01*
X0117767Y0358212D01*
X0117656Y0357949D01*
X0117552Y0357683D01*
X0117454Y0357415D01*
X0117362Y0357145D01*
X0117277Y0356872D01*
X0117199Y0356598D01*
X0117127Y0356322D01*
X0117062Y0356044D01*
X0117004Y0355764D01*
X0116953Y0355483D01*
X0116908Y0355202D01*
X0116870Y0354919D01*
X0116839Y0354635D01*
X0116815Y0354351D01*
X0116798Y0354066D01*
X0116787Y0353780D01*
X0116784Y0353495D01*
X0116784Y0294440D01*
X0140406Y0294440D01*
X0140406Y0215699D01*
X0116784Y0215699D01*
X0116784Y0294440D01*
X0140406Y0294440D01*
X0140406Y0215699D01*
X0116784Y0215699D01*
X0116784Y0156644D01*
X0116787Y0156359D01*
X0116798Y0156073D01*
X0116815Y0155788D01*
X0116839Y0155504D01*
X0116870Y0155220D01*
X0116908Y0154937D01*
X0116953Y0154656D01*
X0117004Y0154375D01*
X0117062Y0154095D01*
X0117127Y0153817D01*
X0117199Y0153541D01*
X0117277Y0153267D01*
X0117362Y0152994D01*
X0117454Y0152724D01*
X0117552Y0152456D01*
X0117656Y0152190D01*
X0117767Y0151927D01*
X0117884Y0151667D01*
X0118007Y0151409D01*
X0118137Y0151155D01*
X0118273Y0150904D01*
X0118414Y0150656D01*
X0118562Y0150412D01*
X0118715Y0150171D01*
X0118875Y0149935D01*
X0119040Y0149702D01*
X0119210Y0149473D01*
X0119386Y0149248D01*
X0119568Y0149028D01*
X0119754Y0148812D01*
X0119946Y0148601D01*
X0120143Y0148394D01*
X0120345Y0148192D01*
X0120552Y0147995D01*
X0120763Y0147803D01*
X0120979Y0147617D01*
X0121199Y0147435D01*
X0121424Y0147259D01*
X0121653Y0147089D01*
X0121886Y0146924D01*
X0122122Y0146764D01*
X0122363Y0146611D01*
X0122607Y0146463D01*
X0122855Y0146322D01*
X0123106Y0146186D01*
X0123360Y0146056D01*
X0123618Y0145933D01*
X0123878Y0145816D01*
X0124141Y0145705D01*
X0124407Y0145601D01*
X0124675Y0145503D01*
X0124945Y0145411D01*
X0125218Y0145326D01*
X0125492Y0145248D01*
X0125768Y0145176D01*
X0126046Y0145111D01*
X0126326Y0145053D01*
X0126607Y0145002D01*
X0126888Y0144957D01*
X0127171Y0144919D01*
X0127455Y0144888D01*
X0127739Y0144864D01*
X0128024Y0144847D01*
X0128310Y0144836D01*
X0128595Y0144833D01*
X0125150Y0158613D02*
X0125152Y0158760D01*
X0125158Y0158906D01*
X0125168Y0159052D01*
X0125182Y0159198D01*
X0125200Y0159344D01*
X0125221Y0159489D01*
X0125247Y0159633D01*
X0125277Y0159777D01*
X0125310Y0159919D01*
X0125347Y0160061D01*
X0125388Y0160202D01*
X0125433Y0160341D01*
X0125482Y0160480D01*
X0125534Y0160617D01*
X0125591Y0160752D01*
X0125650Y0160886D01*
X0125714Y0161018D01*
X0125781Y0161148D01*
X0125851Y0161277D01*
X0125925Y0161404D01*
X0126002Y0161528D01*
X0126083Y0161651D01*
X0126167Y0161771D01*
X0126254Y0161889D01*
X0126344Y0162004D01*
X0126437Y0162117D01*
X0126534Y0162228D01*
X0126633Y0162336D01*
X0126735Y0162441D01*
X0126840Y0162543D01*
X0126948Y0162642D01*
X0127059Y0162739D01*
X0127172Y0162832D01*
X0127287Y0162922D01*
X0127405Y0163009D01*
X0127525Y0163093D01*
X0127648Y0163174D01*
X0127772Y0163251D01*
X0127899Y0163325D01*
X0128028Y0163395D01*
X0128158Y0163462D01*
X0128290Y0163526D01*
X0128424Y0163585D01*
X0128559Y0163642D01*
X0128696Y0163694D01*
X0128835Y0163743D01*
X0128974Y0163788D01*
X0129115Y0163829D01*
X0129257Y0163866D01*
X0129399Y0163899D01*
X0129543Y0163929D01*
X0129687Y0163955D01*
X0129832Y0163976D01*
X0129978Y0163994D01*
X0130124Y0164008D01*
X0130270Y0164018D01*
X0130416Y0164024D01*
X0130563Y0164026D01*
X0130710Y0164024D01*
X0130856Y0164018D01*
X0131002Y0164008D01*
X0131148Y0163994D01*
X0131294Y0163976D01*
X0131439Y0163955D01*
X0131583Y0163929D01*
X0131727Y0163899D01*
X0131869Y0163866D01*
X0132011Y0163829D01*
X0132152Y0163788D01*
X0132291Y0163743D01*
X0132430Y0163694D01*
X0132567Y0163642D01*
X0132702Y0163585D01*
X0132836Y0163526D01*
X0132968Y0163462D01*
X0133098Y0163395D01*
X0133227Y0163325D01*
X0133354Y0163251D01*
X0133478Y0163174D01*
X0133601Y0163093D01*
X0133721Y0163009D01*
X0133839Y0162922D01*
X0133954Y0162832D01*
X0134067Y0162739D01*
X0134178Y0162642D01*
X0134286Y0162543D01*
X0134391Y0162441D01*
X0134493Y0162336D01*
X0134592Y0162228D01*
X0134689Y0162117D01*
X0134782Y0162004D01*
X0134872Y0161889D01*
X0134959Y0161771D01*
X0135043Y0161651D01*
X0135124Y0161528D01*
X0135201Y0161404D01*
X0135275Y0161277D01*
X0135345Y0161148D01*
X0135412Y0161018D01*
X0135476Y0160886D01*
X0135535Y0160752D01*
X0135592Y0160617D01*
X0135644Y0160480D01*
X0135693Y0160341D01*
X0135738Y0160202D01*
X0135779Y0160061D01*
X0135816Y0159919D01*
X0135849Y0159777D01*
X0135879Y0159633D01*
X0135905Y0159489D01*
X0135926Y0159344D01*
X0135944Y0159198D01*
X0135958Y0159052D01*
X0135968Y0158906D01*
X0135974Y0158760D01*
X0135976Y0158613D01*
X0135974Y0158466D01*
X0135968Y0158320D01*
X0135958Y0158174D01*
X0135944Y0158028D01*
X0135926Y0157882D01*
X0135905Y0157737D01*
X0135879Y0157593D01*
X0135849Y0157449D01*
X0135816Y0157307D01*
X0135779Y0157165D01*
X0135738Y0157024D01*
X0135693Y0156885D01*
X0135644Y0156746D01*
X0135592Y0156609D01*
X0135535Y0156474D01*
X0135476Y0156340D01*
X0135412Y0156208D01*
X0135345Y0156078D01*
X0135275Y0155949D01*
X0135201Y0155822D01*
X0135124Y0155698D01*
X0135043Y0155575D01*
X0134959Y0155455D01*
X0134872Y0155337D01*
X0134782Y0155222D01*
X0134689Y0155109D01*
X0134592Y0154998D01*
X0134493Y0154890D01*
X0134391Y0154785D01*
X0134286Y0154683D01*
X0134178Y0154584D01*
X0134067Y0154487D01*
X0133954Y0154394D01*
X0133839Y0154304D01*
X0133721Y0154217D01*
X0133601Y0154133D01*
X0133478Y0154052D01*
X0133354Y0153975D01*
X0133227Y0153901D01*
X0133098Y0153831D01*
X0132968Y0153764D01*
X0132836Y0153700D01*
X0132702Y0153641D01*
X0132567Y0153584D01*
X0132430Y0153532D01*
X0132291Y0153483D01*
X0132152Y0153438D01*
X0132011Y0153397D01*
X0131869Y0153360D01*
X0131727Y0153327D01*
X0131583Y0153297D01*
X0131439Y0153271D01*
X0131294Y0153250D01*
X0131148Y0153232D01*
X0131002Y0153218D01*
X0130856Y0153208D01*
X0130710Y0153202D01*
X0130563Y0153200D01*
X0130416Y0153202D01*
X0130270Y0153208D01*
X0130124Y0153218D01*
X0129978Y0153232D01*
X0129832Y0153250D01*
X0129687Y0153271D01*
X0129543Y0153297D01*
X0129399Y0153327D01*
X0129257Y0153360D01*
X0129115Y0153397D01*
X0128974Y0153438D01*
X0128835Y0153483D01*
X0128696Y0153532D01*
X0128559Y0153584D01*
X0128424Y0153641D01*
X0128290Y0153700D01*
X0128158Y0153764D01*
X0128028Y0153831D01*
X0127899Y0153901D01*
X0127772Y0153975D01*
X0127648Y0154052D01*
X0127525Y0154133D01*
X0127405Y0154217D01*
X0127287Y0154304D01*
X0127172Y0154394D01*
X0127059Y0154487D01*
X0126948Y0154584D01*
X0126840Y0154683D01*
X0126735Y0154785D01*
X0126633Y0154890D01*
X0126534Y0154998D01*
X0126437Y0155109D01*
X0126344Y0155222D01*
X0126254Y0155337D01*
X0126167Y0155455D01*
X0126083Y0155575D01*
X0126002Y0155698D01*
X0125925Y0155822D01*
X0125851Y0155949D01*
X0125781Y0156078D01*
X0125714Y0156208D01*
X0125650Y0156340D01*
X0125591Y0156474D01*
X0125534Y0156609D01*
X0125482Y0156746D01*
X0125433Y0156885D01*
X0125388Y0157024D01*
X0125347Y0157165D01*
X0125310Y0157307D01*
X0125277Y0157449D01*
X0125247Y0157593D01*
X0125221Y0157737D01*
X0125200Y0157882D01*
X0125182Y0158028D01*
X0125168Y0158174D01*
X0125158Y0158320D01*
X0125152Y0158466D01*
X0125150Y0158613D01*
X0116784Y0215699D02*
X0116784Y0294440D01*
X0125150Y0351526D02*
X0125152Y0351673D01*
X0125158Y0351819D01*
X0125168Y0351965D01*
X0125182Y0352111D01*
X0125200Y0352257D01*
X0125221Y0352402D01*
X0125247Y0352546D01*
X0125277Y0352690D01*
X0125310Y0352832D01*
X0125347Y0352974D01*
X0125388Y0353115D01*
X0125433Y0353254D01*
X0125482Y0353393D01*
X0125534Y0353530D01*
X0125591Y0353665D01*
X0125650Y0353799D01*
X0125714Y0353931D01*
X0125781Y0354061D01*
X0125851Y0354190D01*
X0125925Y0354317D01*
X0126002Y0354441D01*
X0126083Y0354564D01*
X0126167Y0354684D01*
X0126254Y0354802D01*
X0126344Y0354917D01*
X0126437Y0355030D01*
X0126534Y0355141D01*
X0126633Y0355249D01*
X0126735Y0355354D01*
X0126840Y0355456D01*
X0126948Y0355555D01*
X0127059Y0355652D01*
X0127172Y0355745D01*
X0127287Y0355835D01*
X0127405Y0355922D01*
X0127525Y0356006D01*
X0127648Y0356087D01*
X0127772Y0356164D01*
X0127899Y0356238D01*
X0128028Y0356308D01*
X0128158Y0356375D01*
X0128290Y0356439D01*
X0128424Y0356498D01*
X0128559Y0356555D01*
X0128696Y0356607D01*
X0128835Y0356656D01*
X0128974Y0356701D01*
X0129115Y0356742D01*
X0129257Y0356779D01*
X0129399Y0356812D01*
X0129543Y0356842D01*
X0129687Y0356868D01*
X0129832Y0356889D01*
X0129978Y0356907D01*
X0130124Y0356921D01*
X0130270Y0356931D01*
X0130416Y0356937D01*
X0130563Y0356939D01*
X0130710Y0356937D01*
X0130856Y0356931D01*
X0131002Y0356921D01*
X0131148Y0356907D01*
X0131294Y0356889D01*
X0131439Y0356868D01*
X0131583Y0356842D01*
X0131727Y0356812D01*
X0131869Y0356779D01*
X0132011Y0356742D01*
X0132152Y0356701D01*
X0132291Y0356656D01*
X0132430Y0356607D01*
X0132567Y0356555D01*
X0132702Y0356498D01*
X0132836Y0356439D01*
X0132968Y0356375D01*
X0133098Y0356308D01*
X0133227Y0356238D01*
X0133354Y0356164D01*
X0133478Y0356087D01*
X0133601Y0356006D01*
X0133721Y0355922D01*
X0133839Y0355835D01*
X0133954Y0355745D01*
X0134067Y0355652D01*
X0134178Y0355555D01*
X0134286Y0355456D01*
X0134391Y0355354D01*
X0134493Y0355249D01*
X0134592Y0355141D01*
X0134689Y0355030D01*
X0134782Y0354917D01*
X0134872Y0354802D01*
X0134959Y0354684D01*
X0135043Y0354564D01*
X0135124Y0354441D01*
X0135201Y0354317D01*
X0135275Y0354190D01*
X0135345Y0354061D01*
X0135412Y0353931D01*
X0135476Y0353799D01*
X0135535Y0353665D01*
X0135592Y0353530D01*
X0135644Y0353393D01*
X0135693Y0353254D01*
X0135738Y0353115D01*
X0135779Y0352974D01*
X0135816Y0352832D01*
X0135849Y0352690D01*
X0135879Y0352546D01*
X0135905Y0352402D01*
X0135926Y0352257D01*
X0135944Y0352111D01*
X0135958Y0351965D01*
X0135968Y0351819D01*
X0135974Y0351673D01*
X0135976Y0351526D01*
X0135974Y0351379D01*
X0135968Y0351233D01*
X0135958Y0351087D01*
X0135944Y0350941D01*
X0135926Y0350795D01*
X0135905Y0350650D01*
X0135879Y0350506D01*
X0135849Y0350362D01*
X0135816Y0350220D01*
X0135779Y0350078D01*
X0135738Y0349937D01*
X0135693Y0349798D01*
X0135644Y0349659D01*
X0135592Y0349522D01*
X0135535Y0349387D01*
X0135476Y0349253D01*
X0135412Y0349121D01*
X0135345Y0348991D01*
X0135275Y0348862D01*
X0135201Y0348735D01*
X0135124Y0348611D01*
X0135043Y0348488D01*
X0134959Y0348368D01*
X0134872Y0348250D01*
X0134782Y0348135D01*
X0134689Y0348022D01*
X0134592Y0347911D01*
X0134493Y0347803D01*
X0134391Y0347698D01*
X0134286Y0347596D01*
X0134178Y0347497D01*
X0134067Y0347400D01*
X0133954Y0347307D01*
X0133839Y0347217D01*
X0133721Y0347130D01*
X0133601Y0347046D01*
X0133478Y0346965D01*
X0133354Y0346888D01*
X0133227Y0346814D01*
X0133098Y0346744D01*
X0132968Y0346677D01*
X0132836Y0346613D01*
X0132702Y0346554D01*
X0132567Y0346497D01*
X0132430Y0346445D01*
X0132291Y0346396D01*
X0132152Y0346351D01*
X0132011Y0346310D01*
X0131869Y0346273D01*
X0131727Y0346240D01*
X0131583Y0346210D01*
X0131439Y0346184D01*
X0131294Y0346163D01*
X0131148Y0346145D01*
X0131002Y0346131D01*
X0130856Y0346121D01*
X0130710Y0346115D01*
X0130563Y0346113D01*
X0130416Y0346115D01*
X0130270Y0346121D01*
X0130124Y0346131D01*
X0129978Y0346145D01*
X0129832Y0346163D01*
X0129687Y0346184D01*
X0129543Y0346210D01*
X0129399Y0346240D01*
X0129257Y0346273D01*
X0129115Y0346310D01*
X0128974Y0346351D01*
X0128835Y0346396D01*
X0128696Y0346445D01*
X0128559Y0346497D01*
X0128424Y0346554D01*
X0128290Y0346613D01*
X0128158Y0346677D01*
X0128028Y0346744D01*
X0127899Y0346814D01*
X0127772Y0346888D01*
X0127648Y0346965D01*
X0127525Y0347046D01*
X0127405Y0347130D01*
X0127287Y0347217D01*
X0127172Y0347307D01*
X0127059Y0347400D01*
X0126948Y0347497D01*
X0126840Y0347596D01*
X0126735Y0347698D01*
X0126633Y0347803D01*
X0126534Y0347911D01*
X0126437Y0348022D01*
X0126344Y0348135D01*
X0126254Y0348250D01*
X0126167Y0348368D01*
X0126083Y0348488D01*
X0126002Y0348611D01*
X0125925Y0348735D01*
X0125851Y0348862D01*
X0125781Y0348991D01*
X0125714Y0349121D01*
X0125650Y0349253D01*
X0125591Y0349387D01*
X0125534Y0349522D01*
X0125482Y0349659D01*
X0125433Y0349798D01*
X0125388Y0349937D01*
X0125347Y0350078D01*
X0125310Y0350220D01*
X0125277Y0350362D01*
X0125247Y0350506D01*
X0125221Y0350650D01*
X0125200Y0350795D01*
X0125182Y0350941D01*
X0125168Y0351087D01*
X0125158Y0351233D01*
X0125152Y0351379D01*
X0125150Y0351526D01*
X0290012Y0231448D02*
X0290012Y0144833D01*
X0290012Y0231448D01*
X0353497Y0158613D02*
X0353499Y0158760D01*
X0353505Y0158906D01*
X0353515Y0159052D01*
X0353529Y0159198D01*
X0353547Y0159344D01*
X0353568Y0159489D01*
X0353594Y0159633D01*
X0353624Y0159777D01*
X0353657Y0159919D01*
X0353694Y0160061D01*
X0353735Y0160202D01*
X0353780Y0160341D01*
X0353829Y0160480D01*
X0353881Y0160617D01*
X0353938Y0160752D01*
X0353997Y0160886D01*
X0354061Y0161018D01*
X0354128Y0161148D01*
X0354198Y0161277D01*
X0354272Y0161404D01*
X0354349Y0161528D01*
X0354430Y0161651D01*
X0354514Y0161771D01*
X0354601Y0161889D01*
X0354691Y0162004D01*
X0354784Y0162117D01*
X0354881Y0162228D01*
X0354980Y0162336D01*
X0355082Y0162441D01*
X0355187Y0162543D01*
X0355295Y0162642D01*
X0355406Y0162739D01*
X0355519Y0162832D01*
X0355634Y0162922D01*
X0355752Y0163009D01*
X0355872Y0163093D01*
X0355995Y0163174D01*
X0356119Y0163251D01*
X0356246Y0163325D01*
X0356375Y0163395D01*
X0356505Y0163462D01*
X0356637Y0163526D01*
X0356771Y0163585D01*
X0356906Y0163642D01*
X0357043Y0163694D01*
X0357182Y0163743D01*
X0357321Y0163788D01*
X0357462Y0163829D01*
X0357604Y0163866D01*
X0357746Y0163899D01*
X0357890Y0163929D01*
X0358034Y0163955D01*
X0358179Y0163976D01*
X0358325Y0163994D01*
X0358471Y0164008D01*
X0358617Y0164018D01*
X0358763Y0164024D01*
X0358910Y0164026D01*
X0359057Y0164024D01*
X0359203Y0164018D01*
X0359349Y0164008D01*
X0359495Y0163994D01*
X0359641Y0163976D01*
X0359786Y0163955D01*
X0359930Y0163929D01*
X0360074Y0163899D01*
X0360216Y0163866D01*
X0360358Y0163829D01*
X0360499Y0163788D01*
X0360638Y0163743D01*
X0360777Y0163694D01*
X0360914Y0163642D01*
X0361049Y0163585D01*
X0361183Y0163526D01*
X0361315Y0163462D01*
X0361445Y0163395D01*
X0361574Y0163325D01*
X0361701Y0163251D01*
X0361825Y0163174D01*
X0361948Y0163093D01*
X0362068Y0163009D01*
X0362186Y0162922D01*
X0362301Y0162832D01*
X0362414Y0162739D01*
X0362525Y0162642D01*
X0362633Y0162543D01*
X0362738Y0162441D01*
X0362840Y0162336D01*
X0362939Y0162228D01*
X0363036Y0162117D01*
X0363129Y0162004D01*
X0363219Y0161889D01*
X0363306Y0161771D01*
X0363390Y0161651D01*
X0363471Y0161528D01*
X0363548Y0161404D01*
X0363622Y0161277D01*
X0363692Y0161148D01*
X0363759Y0161018D01*
X0363823Y0160886D01*
X0363882Y0160752D01*
X0363939Y0160617D01*
X0363991Y0160480D01*
X0364040Y0160341D01*
X0364085Y0160202D01*
X0364126Y0160061D01*
X0364163Y0159919D01*
X0364196Y0159777D01*
X0364226Y0159633D01*
X0364252Y0159489D01*
X0364273Y0159344D01*
X0364291Y0159198D01*
X0364305Y0159052D01*
X0364315Y0158906D01*
X0364321Y0158760D01*
X0364323Y0158613D01*
X0364321Y0158466D01*
X0364315Y0158320D01*
X0364305Y0158174D01*
X0364291Y0158028D01*
X0364273Y0157882D01*
X0364252Y0157737D01*
X0364226Y0157593D01*
X0364196Y0157449D01*
X0364163Y0157307D01*
X0364126Y0157165D01*
X0364085Y0157024D01*
X0364040Y0156885D01*
X0363991Y0156746D01*
X0363939Y0156609D01*
X0363882Y0156474D01*
X0363823Y0156340D01*
X0363759Y0156208D01*
X0363692Y0156078D01*
X0363622Y0155949D01*
X0363548Y0155822D01*
X0363471Y0155698D01*
X0363390Y0155575D01*
X0363306Y0155455D01*
X0363219Y0155337D01*
X0363129Y0155222D01*
X0363036Y0155109D01*
X0362939Y0154998D01*
X0362840Y0154890D01*
X0362738Y0154785D01*
X0362633Y0154683D01*
X0362525Y0154584D01*
X0362414Y0154487D01*
X0362301Y0154394D01*
X0362186Y0154304D01*
X0362068Y0154217D01*
X0361948Y0154133D01*
X0361825Y0154052D01*
X0361701Y0153975D01*
X0361574Y0153901D01*
X0361445Y0153831D01*
X0361315Y0153764D01*
X0361183Y0153700D01*
X0361049Y0153641D01*
X0360914Y0153584D01*
X0360777Y0153532D01*
X0360638Y0153483D01*
X0360499Y0153438D01*
X0360358Y0153397D01*
X0360216Y0153360D01*
X0360074Y0153327D01*
X0359930Y0153297D01*
X0359786Y0153271D01*
X0359641Y0153250D01*
X0359495Y0153232D01*
X0359349Y0153218D01*
X0359203Y0153208D01*
X0359057Y0153202D01*
X0358910Y0153200D01*
X0358763Y0153202D01*
X0358617Y0153208D01*
X0358471Y0153218D01*
X0358325Y0153232D01*
X0358179Y0153250D01*
X0358034Y0153271D01*
X0357890Y0153297D01*
X0357746Y0153327D01*
X0357604Y0153360D01*
X0357462Y0153397D01*
X0357321Y0153438D01*
X0357182Y0153483D01*
X0357043Y0153532D01*
X0356906Y0153584D01*
X0356771Y0153641D01*
X0356637Y0153700D01*
X0356505Y0153764D01*
X0356375Y0153831D01*
X0356246Y0153901D01*
X0356119Y0153975D01*
X0355995Y0154052D01*
X0355872Y0154133D01*
X0355752Y0154217D01*
X0355634Y0154304D01*
X0355519Y0154394D01*
X0355406Y0154487D01*
X0355295Y0154584D01*
X0355187Y0154683D01*
X0355082Y0154785D01*
X0354980Y0154890D01*
X0354881Y0154998D01*
X0354784Y0155109D01*
X0354691Y0155222D01*
X0354601Y0155337D01*
X0354514Y0155455D01*
X0354430Y0155575D01*
X0354349Y0155698D01*
X0354272Y0155822D01*
X0354198Y0155949D01*
X0354128Y0156078D01*
X0354061Y0156208D01*
X0353997Y0156340D01*
X0353938Y0156474D01*
X0353881Y0156609D01*
X0353829Y0156746D01*
X0353780Y0156885D01*
X0353735Y0157024D01*
X0353694Y0157165D01*
X0353657Y0157307D01*
X0353624Y0157449D01*
X0353594Y0157593D01*
X0353568Y0157737D01*
X0353547Y0157882D01*
X0353529Y0158028D01*
X0353515Y0158174D01*
X0353505Y0158320D01*
X0353499Y0158466D01*
X0353497Y0158613D01*
X0353497Y0351526D02*
X0353499Y0351673D01*
X0353505Y0351819D01*
X0353515Y0351965D01*
X0353529Y0352111D01*
X0353547Y0352257D01*
X0353568Y0352402D01*
X0353594Y0352546D01*
X0353624Y0352690D01*
X0353657Y0352832D01*
X0353694Y0352974D01*
X0353735Y0353115D01*
X0353780Y0353254D01*
X0353829Y0353393D01*
X0353881Y0353530D01*
X0353938Y0353665D01*
X0353997Y0353799D01*
X0354061Y0353931D01*
X0354128Y0354061D01*
X0354198Y0354190D01*
X0354272Y0354317D01*
X0354349Y0354441D01*
X0354430Y0354564D01*
X0354514Y0354684D01*
X0354601Y0354802D01*
X0354691Y0354917D01*
X0354784Y0355030D01*
X0354881Y0355141D01*
X0354980Y0355249D01*
X0355082Y0355354D01*
X0355187Y0355456D01*
X0355295Y0355555D01*
X0355406Y0355652D01*
X0355519Y0355745D01*
X0355634Y0355835D01*
X0355752Y0355922D01*
X0355872Y0356006D01*
X0355995Y0356087D01*
X0356119Y0356164D01*
X0356246Y0356238D01*
X0356375Y0356308D01*
X0356505Y0356375D01*
X0356637Y0356439D01*
X0356771Y0356498D01*
X0356906Y0356555D01*
X0357043Y0356607D01*
X0357182Y0356656D01*
X0357321Y0356701D01*
X0357462Y0356742D01*
X0357604Y0356779D01*
X0357746Y0356812D01*
X0357890Y0356842D01*
X0358034Y0356868D01*
X0358179Y0356889D01*
X0358325Y0356907D01*
X0358471Y0356921D01*
X0358617Y0356931D01*
X0358763Y0356937D01*
X0358910Y0356939D01*
X0359057Y0356937D01*
X0359203Y0356931D01*
X0359349Y0356921D01*
X0359495Y0356907D01*
X0359641Y0356889D01*
X0359786Y0356868D01*
X0359930Y0356842D01*
X0360074Y0356812D01*
X0360216Y0356779D01*
X0360358Y0356742D01*
X0360499Y0356701D01*
X0360638Y0356656D01*
X0360777Y0356607D01*
X0360914Y0356555D01*
X0361049Y0356498D01*
X0361183Y0356439D01*
X0361315Y0356375D01*
X0361445Y0356308D01*
X0361574Y0356238D01*
X0361701Y0356164D01*
X0361825Y0356087D01*
X0361948Y0356006D01*
X0362068Y0355922D01*
X0362186Y0355835D01*
X0362301Y0355745D01*
X0362414Y0355652D01*
X0362525Y0355555D01*
X0362633Y0355456D01*
X0362738Y0355354D01*
X0362840Y0355249D01*
X0362939Y0355141D01*
X0363036Y0355030D01*
X0363129Y0354917D01*
X0363219Y0354802D01*
X0363306Y0354684D01*
X0363390Y0354564D01*
X0363471Y0354441D01*
X0363548Y0354317D01*
X0363622Y0354190D01*
X0363692Y0354061D01*
X0363759Y0353931D01*
X0363823Y0353799D01*
X0363882Y0353665D01*
X0363939Y0353530D01*
X0363991Y0353393D01*
X0364040Y0353254D01*
X0364085Y0353115D01*
X0364126Y0352974D01*
X0364163Y0352832D01*
X0364196Y0352690D01*
X0364226Y0352546D01*
X0364252Y0352402D01*
X0364273Y0352257D01*
X0364291Y0352111D01*
X0364305Y0351965D01*
X0364315Y0351819D01*
X0364321Y0351673D01*
X0364323Y0351526D01*
X0364321Y0351379D01*
X0364315Y0351233D01*
X0364305Y0351087D01*
X0364291Y0350941D01*
X0364273Y0350795D01*
X0364252Y0350650D01*
X0364226Y0350506D01*
X0364196Y0350362D01*
X0364163Y0350220D01*
X0364126Y0350078D01*
X0364085Y0349937D01*
X0364040Y0349798D01*
X0363991Y0349659D01*
X0363939Y0349522D01*
X0363882Y0349387D01*
X0363823Y0349253D01*
X0363759Y0349121D01*
X0363692Y0348991D01*
X0363622Y0348862D01*
X0363548Y0348735D01*
X0363471Y0348611D01*
X0363390Y0348488D01*
X0363306Y0348368D01*
X0363219Y0348250D01*
X0363129Y0348135D01*
X0363036Y0348022D01*
X0362939Y0347911D01*
X0362840Y0347803D01*
X0362738Y0347698D01*
X0362633Y0347596D01*
X0362525Y0347497D01*
X0362414Y0347400D01*
X0362301Y0347307D01*
X0362186Y0347217D01*
X0362068Y0347130D01*
X0361948Y0347046D01*
X0361825Y0346965D01*
X0361701Y0346888D01*
X0361574Y0346814D01*
X0361445Y0346744D01*
X0361315Y0346677D01*
X0361183Y0346613D01*
X0361049Y0346554D01*
X0360914Y0346497D01*
X0360777Y0346445D01*
X0360638Y0346396D01*
X0360499Y0346351D01*
X0360358Y0346310D01*
X0360216Y0346273D01*
X0360074Y0346240D01*
X0359930Y0346210D01*
X0359786Y0346184D01*
X0359641Y0346163D01*
X0359495Y0346145D01*
X0359349Y0346131D01*
X0359203Y0346121D01*
X0359057Y0346115D01*
X0358910Y0346113D01*
X0358763Y0346115D01*
X0358617Y0346121D01*
X0358471Y0346131D01*
X0358325Y0346145D01*
X0358179Y0346163D01*
X0358034Y0346184D01*
X0357890Y0346210D01*
X0357746Y0346240D01*
X0357604Y0346273D01*
X0357462Y0346310D01*
X0357321Y0346351D01*
X0357182Y0346396D01*
X0357043Y0346445D01*
X0356906Y0346497D01*
X0356771Y0346554D01*
X0356637Y0346613D01*
X0356505Y0346677D01*
X0356375Y0346744D01*
X0356246Y0346814D01*
X0356119Y0346888D01*
X0355995Y0346965D01*
X0355872Y0347046D01*
X0355752Y0347130D01*
X0355634Y0347217D01*
X0355519Y0347307D01*
X0355406Y0347400D01*
X0355295Y0347497D01*
X0355187Y0347596D01*
X0355082Y0347698D01*
X0354980Y0347803D01*
X0354881Y0347911D01*
X0354784Y0348022D01*
X0354691Y0348135D01*
X0354601Y0348250D01*
X0354514Y0348368D01*
X0354430Y0348488D01*
X0354349Y0348611D01*
X0354272Y0348735D01*
X0354198Y0348862D01*
X0354128Y0348991D01*
X0354061Y0349121D01*
X0353997Y0349253D01*
X0353938Y0349387D01*
X0353881Y0349522D01*
X0353829Y0349659D01*
X0353780Y0349798D01*
X0353735Y0349937D01*
X0353694Y0350078D01*
X0353657Y0350220D01*
X0353624Y0350362D01*
X0353594Y0350506D01*
X0353568Y0350650D01*
X0353547Y0350795D01*
X0353529Y0350941D01*
X0353515Y0351087D01*
X0353505Y0351233D01*
X0353499Y0351379D01*
X0353497Y0351526D01*
M02*
