G75*
%MOIN*%
%OFA0B0*%
%FSLAX25Y25*%
%IPPOS*%
%LPD*%
%AMOC8*
5,1,8,0,0,1.08239X$1,22.5*
%
%ADD10C,0.11427*%
%ADD11R,0.06112X0.04537*%
%ADD12R,0.06506X0.06506*%
%ADD13C,0.06506*%
%ADD14R,0.06899X0.11230*%
%ADD15R,0.05718X0.06506*%
%ADD16C,0.03201*%
%ADD17C,0.06506*%
%ADD18C,0.10600*%
%ADD19R,0.09600X0.09600*%
%ADD20R,0.05718X0.06702*%
%ADD21C,0.11100*%
%ADD22R,0.06506X0.05718*%
%ADD23R,0.02962X0.09261*%
%ADD24C,0.04200*%
D10*
X0130563Y0158613D03*
X0130563Y0351526D03*
X0358910Y0351526D03*
X0358910Y0158613D03*
D11*
X0295615Y0242093D03*
X0286953Y0245833D03*
X0295615Y0249573D03*
D12*
X0149737Y0346526D03*
D13*
X0159737Y0346526D03*
X0169737Y0346526D03*
X0179737Y0346526D03*
X0189737Y0346526D03*
X0199737Y0346526D03*
X0209737Y0346526D03*
X0219737Y0346526D03*
X0229737Y0346526D03*
X0239737Y0346526D03*
X0249737Y0346526D03*
X0259737Y0346526D03*
X0269737Y0346526D03*
X0279737Y0346526D03*
X0289737Y0346526D03*
X0299737Y0346526D03*
X0309737Y0346526D03*
X0319737Y0346526D03*
X0329737Y0346526D03*
X0339737Y0346526D03*
X0339737Y0356526D03*
X0329737Y0356526D03*
X0319737Y0356526D03*
X0309737Y0356526D03*
X0299737Y0356526D03*
X0289737Y0356526D03*
X0279737Y0356526D03*
X0269737Y0356526D03*
X0259737Y0356526D03*
X0249737Y0356526D03*
X0239737Y0356526D03*
X0229737Y0356526D03*
X0219737Y0356526D03*
X0209737Y0356526D03*
X0199737Y0356526D03*
X0189737Y0356526D03*
X0179737Y0356526D03*
X0169737Y0356526D03*
X0159737Y0356526D03*
X0149737Y0356526D03*
D14*
X0265272Y0272333D03*
X0276296Y0272333D03*
X0287272Y0266833D03*
X0298296Y0266833D03*
X0276296Y0259833D03*
X0265272Y0259833D03*
D15*
X0249524Y0272333D03*
X0242044Y0272333D03*
X0210524Y0260833D03*
X0203044Y0260833D03*
X0192524Y0260833D03*
X0185044Y0260833D03*
X0299044Y0278333D03*
X0306524Y0278333D03*
X0317544Y0302833D03*
X0325024Y0302833D03*
X0325024Y0310833D03*
X0317544Y0310833D03*
D16*
X0269968Y0324382D02*
X0252884Y0324382D01*
X0252884Y0333986D01*
X0269968Y0333986D01*
X0269968Y0324382D01*
X0269968Y0327582D02*
X0252884Y0327582D01*
X0252884Y0330782D02*
X0269968Y0330782D01*
X0269968Y0333982D02*
X0252884Y0333982D01*
X0252884Y0290285D02*
X0269968Y0290285D01*
X0269968Y0280681D01*
X0252884Y0280681D01*
X0252884Y0290285D01*
X0252884Y0283881D02*
X0269968Y0283881D01*
X0269968Y0287081D02*
X0252884Y0287081D01*
X0252884Y0290281D02*
X0269968Y0290281D01*
D17*
X0157237Y0294833D02*
X0151331Y0294833D01*
X0151331Y0304833D02*
X0157237Y0304833D01*
X0157237Y0314833D02*
X0151331Y0314833D01*
X0151331Y0324833D02*
X0157237Y0324833D01*
D18*
X0171284Y0183833D03*
X0228284Y0183833D03*
D19*
X0261784Y0158333D03*
X0261784Y0231333D03*
D20*
X0163142Y0234684D03*
X0163142Y0224983D03*
X0145426Y0224983D03*
X0145426Y0234684D03*
X0145426Y0265983D03*
X0163142Y0265983D03*
X0163142Y0193684D03*
X0145426Y0193684D03*
D21*
X0184284Y0245833D03*
X0215284Y0245833D03*
D22*
X0317284Y0270093D03*
X0317284Y0277573D03*
X0317284Y0286593D03*
X0317284Y0294073D03*
D23*
X0308284Y0288097D03*
X0303284Y0288097D03*
X0298284Y0288097D03*
X0293284Y0288097D03*
X0293284Y0308570D03*
X0298284Y0308570D03*
X0303284Y0308570D03*
X0308284Y0308570D03*
D24*
X0149284Y0152333D03*
X0149284Y0177333D03*
X0154284Y0193833D03*
X0179284Y0207333D03*
X0124284Y0207333D03*
X0124284Y0177333D03*
X0179284Y0152333D03*
X0214284Y0152333D03*
X0281784Y0152333D03*
X0306784Y0152333D03*
X0334284Y0152333D03*
X0306784Y0184833D03*
X0281784Y0184833D03*
X0282284Y0217333D03*
X0306784Y0217333D03*
X0317284Y0239833D03*
X0334284Y0249833D03*
X0364284Y0249833D03*
X0364284Y0217333D03*
X0334284Y0217333D03*
X0364284Y0184833D03*
X0364284Y0282333D03*
X0334284Y0282333D03*
X0307784Y0297333D03*
X0280284Y0294333D03*
X0280284Y0287333D03*
X0250284Y0251333D03*
X0214284Y0282333D03*
X0179284Y0282333D03*
X0231284Y0332833D03*
X0334284Y0314833D03*
X0364284Y0314833D03*
M02*
