G75*
%MOIN*%
%OFA0B0*%
%FSLAX25Y25*%
%IPPOS*%
%LPD*%
%AMOC8*
5,1,8,0,0,1.08239X$1,22.5*
%
%ADD10R,0.05512X0.03937*%
%ADD11R,0.06299X0.10630*%
%ADD12R,0.05118X0.05906*%
%ADD13C,0.03051*%
%ADD14R,0.05118X0.06102*%
%ADD15R,0.05906X0.05118*%
%ADD16R,0.02362X0.08661*%
D10*
X0286953Y0245833D03*
X0295615Y0242093D03*
X0295615Y0249573D03*
D11*
X0298296Y0266833D03*
X0287272Y0266833D03*
X0276296Y0272333D03*
X0265272Y0272333D03*
X0265272Y0259833D03*
X0276296Y0259833D03*
D12*
X0299044Y0278333D03*
X0306524Y0278333D03*
X0317544Y0302833D03*
X0325024Y0302833D03*
X0325024Y0310833D03*
X0317544Y0310833D03*
X0249524Y0272333D03*
X0242044Y0272333D03*
X0210524Y0260833D03*
X0203044Y0260833D03*
X0192524Y0260833D03*
X0185044Y0260833D03*
D13*
X0253109Y0290060D02*
X0269743Y0290060D01*
X0269743Y0280906D01*
X0253109Y0280906D01*
X0253109Y0290060D01*
X0253109Y0283956D02*
X0269743Y0283956D01*
X0269743Y0287006D02*
X0253109Y0287006D01*
X0253109Y0290056D02*
X0269743Y0290056D01*
X0269743Y0324607D02*
X0253109Y0324607D01*
X0253109Y0333761D01*
X0269743Y0333761D01*
X0269743Y0324607D01*
X0269743Y0327657D02*
X0253109Y0327657D01*
X0253109Y0330707D02*
X0269743Y0330707D01*
X0269743Y0333757D02*
X0253109Y0333757D01*
D14*
X0145426Y0193684D03*
X0163142Y0193684D03*
X0163142Y0224983D03*
X0163142Y0234684D03*
X0145426Y0234684D03*
X0145426Y0224983D03*
X0145426Y0265983D03*
X0163142Y0265983D03*
D15*
X0317284Y0270093D03*
X0317284Y0277573D03*
X0317284Y0286593D03*
X0317284Y0294073D03*
D16*
X0308284Y0288097D03*
X0303284Y0288097D03*
X0298284Y0288097D03*
X0293284Y0288097D03*
X0293284Y0308570D03*
X0298284Y0308570D03*
X0303284Y0308570D03*
X0308284Y0308570D03*
M02*
