G75*
%MOIN*%
%OFA0B0*%
%FSLAX25Y25*%
%IPPOS*%
%LPD*%
%AMOC8*
5,1,8,0,0,1.08239X$1,22.5*
%
%ADD10R,0.05512X0.03937*%
%ADD11R,0.05906X0.05906*%
%ADD12C,0.05906*%
%ADD13R,0.06299X0.10630*%
%ADD14R,0.05118X0.05906*%
%ADD15C,0.03051*%
%ADD16C,0.05906*%
%ADD17C,0.10000*%
%ADD18R,0.09000X0.09000*%
%ADD19R,0.05118X0.06102*%
%ADD20C,0.10500*%
%ADD21R,0.05906X0.05118*%
%ADD22R,0.02362X0.08661*%
%ADD23C,0.03600*%
%ADD24C,0.02400*%
%ADD25C,0.01000*%
%ADD26C,0.01200*%
%ADD27C,0.01600*%
%ADD28C,0.00800*%
%ADD29C,0.04000*%
D10*
X0286953Y0245833D03*
X0295615Y0242093D03*
X0295615Y0249573D03*
D11*
X0149737Y0346526D03*
D12*
X0159737Y0346526D03*
X0169737Y0346526D03*
X0179737Y0346526D03*
X0189737Y0346526D03*
X0199737Y0346526D03*
X0209737Y0346526D03*
X0219737Y0346526D03*
X0229737Y0346526D03*
X0239737Y0346526D03*
X0249737Y0346526D03*
X0259737Y0346526D03*
X0269737Y0346526D03*
X0279737Y0346526D03*
X0289737Y0346526D03*
X0299737Y0346526D03*
X0309737Y0346526D03*
X0319737Y0346526D03*
X0329737Y0346526D03*
X0339737Y0346526D03*
X0339737Y0356526D03*
X0329737Y0356526D03*
X0319737Y0356526D03*
X0309737Y0356526D03*
X0299737Y0356526D03*
X0289737Y0356526D03*
X0279737Y0356526D03*
X0269737Y0356526D03*
X0259737Y0356526D03*
X0249737Y0356526D03*
X0239737Y0356526D03*
X0229737Y0356526D03*
X0219737Y0356526D03*
X0209737Y0356526D03*
X0199737Y0356526D03*
X0189737Y0356526D03*
X0179737Y0356526D03*
X0169737Y0356526D03*
X0159737Y0356526D03*
X0149737Y0356526D03*
D13*
X0265272Y0272333D03*
X0276296Y0272333D03*
X0287272Y0266833D03*
X0298296Y0266833D03*
X0276296Y0259833D03*
X0265272Y0259833D03*
D14*
X0249524Y0272333D03*
X0242044Y0272333D03*
X0210524Y0260833D03*
X0203044Y0260833D03*
X0192524Y0260833D03*
X0185044Y0260833D03*
X0299044Y0278333D03*
X0306524Y0278333D03*
X0317544Y0302833D03*
X0325024Y0302833D03*
X0325024Y0310833D03*
X0317544Y0310833D03*
D15*
X0269743Y0324607D02*
X0253109Y0324607D01*
X0253109Y0333761D01*
X0269743Y0333761D01*
X0269743Y0324607D01*
X0269743Y0327657D02*
X0253109Y0327657D01*
X0253109Y0330707D02*
X0269743Y0330707D01*
X0269743Y0333757D02*
X0253109Y0333757D01*
X0253109Y0290060D02*
X0269743Y0290060D01*
X0269743Y0280906D01*
X0253109Y0280906D01*
X0253109Y0290060D01*
X0253109Y0283956D02*
X0269743Y0283956D01*
X0269743Y0287006D02*
X0253109Y0287006D01*
X0253109Y0290056D02*
X0269743Y0290056D01*
D16*
X0157237Y0294833D02*
X0151331Y0294833D01*
X0151331Y0304833D02*
X0157237Y0304833D01*
X0157237Y0314833D02*
X0151331Y0314833D01*
X0151331Y0324833D02*
X0157237Y0324833D01*
D17*
X0171284Y0183833D03*
X0228284Y0183833D03*
D18*
X0261784Y0158333D03*
X0261784Y0231333D03*
D19*
X0163142Y0234684D03*
X0163142Y0224983D03*
X0145426Y0224983D03*
X0145426Y0234684D03*
X0145426Y0265983D03*
X0163142Y0265983D03*
X0163142Y0193684D03*
X0145426Y0193684D03*
D20*
X0184284Y0245833D03*
X0215284Y0245833D03*
D21*
X0317284Y0270093D03*
X0317284Y0277573D03*
X0317284Y0286593D03*
X0317284Y0294073D03*
D22*
X0308284Y0288097D03*
X0303284Y0288097D03*
X0298284Y0288097D03*
X0293284Y0288097D03*
X0293284Y0308570D03*
X0298284Y0308570D03*
X0303284Y0308570D03*
X0308284Y0308570D03*
D23*
X0307784Y0297333D03*
X0280284Y0294333D03*
X0280284Y0287333D03*
X0250284Y0251333D03*
X0214284Y0282333D03*
X0179284Y0282333D03*
X0231284Y0332833D03*
X0334284Y0314833D03*
X0364284Y0314833D03*
X0364284Y0282333D03*
X0334284Y0282333D03*
X0334284Y0249833D03*
X0317284Y0239833D03*
X0306784Y0217333D03*
X0282284Y0217333D03*
X0281784Y0184833D03*
X0306784Y0184833D03*
X0334284Y0217333D03*
X0364284Y0217333D03*
X0364284Y0184833D03*
X0334284Y0152333D03*
X0306784Y0152333D03*
X0281784Y0152333D03*
X0214284Y0152333D03*
X0179284Y0152333D03*
X0149284Y0152333D03*
X0149284Y0177333D03*
X0154284Y0193833D03*
X0179284Y0207333D03*
X0124284Y0207333D03*
X0124284Y0177333D03*
X0364284Y0249833D03*
D24*
X0141773Y0149888D02*
X0139758Y0148033D01*
X0286812Y0148033D01*
X0286812Y0232084D01*
X0287299Y0233260D01*
X0288200Y0234160D01*
X0289376Y0234647D01*
X0298523Y0234647D01*
X0299699Y0234160D01*
X0300599Y0233260D01*
X0301086Y0232084D01*
X0301086Y0148033D01*
X0349486Y0148033D01*
X0349289Y0148162D01*
X0349289Y0148162D01*
X0349289Y0148162D01*
X0346417Y0151852D01*
X0346417Y0151852D01*
X0344899Y0156275D01*
X0344899Y0160951D01*
X0346417Y0165374D01*
X0346417Y0165374D01*
X0349289Y0169064D01*
X0349289Y0169064D01*
X0353204Y0171621D01*
X0353204Y0171621D01*
X0357737Y0172769D01*
X0362397Y0172383D01*
X0366679Y0170505D01*
X0366679Y0170505D01*
X0369489Y0167917D01*
X0369489Y0342222D01*
X0366679Y0339635D01*
X0366679Y0339635D01*
X0362397Y0337756D01*
X0362397Y0337756D01*
X0357737Y0337370D01*
X0357737Y0337370D01*
X0353204Y0338518D01*
X0353204Y0338518D01*
X0349289Y0341075D01*
X0349289Y0341075D01*
X0349289Y0341075D01*
X0346417Y0344766D01*
X0346417Y0344766D01*
X0344899Y0349188D01*
X0344899Y0353864D01*
X0346417Y0358287D01*
X0346417Y0358287D01*
X0349289Y0361977D01*
X0349289Y0361977D01*
X0349289Y0361977D01*
X0349486Y0362106D01*
X0247551Y0362106D01*
X0248346Y0361311D01*
X0248752Y0361479D01*
X0250722Y0361479D01*
X0252542Y0360725D01*
X0253935Y0359332D01*
X0254689Y0357511D01*
X0254689Y0355541D01*
X0253935Y0353721D01*
X0252542Y0352327D01*
X0250722Y0351573D01*
X0248752Y0351573D01*
X0246931Y0352327D01*
X0245538Y0353721D01*
X0244794Y0355517D01*
X0244763Y0355320D01*
X0244512Y0354548D01*
X0244144Y0353826D01*
X0243667Y0353169D01*
X0243094Y0352596D01*
X0242437Y0352119D01*
X0241715Y0351751D01*
X0240943Y0351500D01*
X0240746Y0351469D01*
X0242542Y0350725D01*
X0243935Y0349332D01*
X0244689Y0347511D01*
X0244689Y0345541D01*
X0243935Y0343721D01*
X0242542Y0342327D01*
X0240722Y0341573D01*
X0238752Y0341573D01*
X0236931Y0342327D01*
X0235538Y0343721D01*
X0234784Y0345541D01*
X0234784Y0347511D01*
X0235538Y0349332D01*
X0236931Y0350725D01*
X0238728Y0351469D01*
X0238530Y0351500D01*
X0237759Y0351751D01*
X0237036Y0352119D01*
X0236380Y0352596D01*
X0235806Y0353169D01*
X0235330Y0353826D01*
X0234961Y0354548D01*
X0234711Y0355320D01*
X0234680Y0355517D01*
X0233935Y0353721D01*
X0232542Y0352327D01*
X0230722Y0351573D01*
X0228752Y0351573D01*
X0226931Y0352327D01*
X0225538Y0353721D01*
X0224784Y0355541D01*
X0224784Y0357511D01*
X0225538Y0359332D01*
X0226640Y0360433D01*
X0222834Y0360433D01*
X0223935Y0359332D01*
X0224689Y0357511D01*
X0224689Y0355541D01*
X0223935Y0353721D01*
X0222542Y0352327D01*
X0220722Y0351573D01*
X0218752Y0351573D01*
X0216931Y0352327D01*
X0215538Y0353721D01*
X0214794Y0355517D01*
X0214763Y0355320D01*
X0214512Y0354548D01*
X0214144Y0353826D01*
X0213667Y0353169D01*
X0213094Y0352596D01*
X0212437Y0352119D01*
X0211715Y0351751D01*
X0210943Y0351500D01*
X0210746Y0351469D01*
X0212542Y0350725D01*
X0213935Y0349332D01*
X0214689Y0347511D01*
X0214689Y0345541D01*
X0213935Y0343721D01*
X0212542Y0342327D01*
X0210722Y0341573D01*
X0208752Y0341573D01*
X0206931Y0342327D01*
X0205538Y0343721D01*
X0204784Y0345541D01*
X0204784Y0347511D01*
X0205538Y0349332D01*
X0206931Y0350725D01*
X0208728Y0351469D01*
X0208530Y0351500D01*
X0207759Y0351751D01*
X0207036Y0352119D01*
X0206380Y0352596D01*
X0205806Y0353169D01*
X0205330Y0353826D01*
X0204961Y0354548D01*
X0204711Y0355320D01*
X0204680Y0355517D01*
X0203935Y0353721D01*
X0202542Y0352327D01*
X0200722Y0351573D01*
X0198752Y0351573D01*
X0196931Y0352327D01*
X0195538Y0353721D01*
X0194784Y0355541D01*
X0194784Y0357511D01*
X0195538Y0359332D01*
X0196640Y0360433D01*
X0192834Y0360433D01*
X0193935Y0359332D01*
X0194689Y0357511D01*
X0194689Y0355541D01*
X0193935Y0353721D01*
X0192542Y0352327D01*
X0190746Y0351583D01*
X0190943Y0351552D01*
X0191715Y0351301D01*
X0192437Y0350933D01*
X0193094Y0350457D01*
X0193667Y0349883D01*
X0194144Y0349227D01*
X0194512Y0348504D01*
X0194763Y0347733D01*
X0194794Y0347535D01*
X0195538Y0349332D01*
X0196931Y0350725D01*
X0198752Y0351479D01*
X0200722Y0351479D01*
X0202542Y0350725D01*
X0203935Y0349332D01*
X0204689Y0347511D01*
X0204689Y0345541D01*
X0203935Y0343721D01*
X0202542Y0342327D01*
X0200722Y0341573D01*
X0198752Y0341573D01*
X0196931Y0342327D01*
X0195538Y0343721D01*
X0194794Y0345517D01*
X0194763Y0345320D01*
X0194512Y0344548D01*
X0194144Y0343826D01*
X0193667Y0343169D01*
X0193094Y0342596D01*
X0192437Y0342119D01*
X0191715Y0341751D01*
X0190943Y0341500D01*
X0190142Y0341373D01*
X0189737Y0341373D01*
X0189737Y0346526D01*
X0189737Y0346526D01*
X0189737Y0341373D01*
X0189331Y0341373D01*
X0188530Y0341500D01*
X0187759Y0341751D01*
X0187036Y0342119D01*
X0186380Y0342596D01*
X0185806Y0343169D01*
X0185330Y0343826D01*
X0184961Y0344548D01*
X0184711Y0345320D01*
X0184680Y0345517D01*
X0183935Y0343721D01*
X0182542Y0342327D01*
X0180722Y0341573D01*
X0178752Y0341573D01*
X0176931Y0342327D01*
X0175538Y0343721D01*
X0174784Y0345541D01*
X0174784Y0347511D01*
X0175538Y0349332D01*
X0176931Y0350725D01*
X0178752Y0351479D01*
X0180722Y0351479D01*
X0182542Y0350725D01*
X0183935Y0349332D01*
X0184680Y0347535D01*
X0184711Y0347733D01*
X0184961Y0348504D01*
X0185330Y0349227D01*
X0185806Y0349883D01*
X0186380Y0350457D01*
X0187036Y0350933D01*
X0187759Y0351301D01*
X0188530Y0351552D01*
X0188728Y0351583D01*
X0186931Y0352327D01*
X0185538Y0353721D01*
X0184784Y0355541D01*
X0184784Y0357511D01*
X0185538Y0359332D01*
X0186640Y0360433D01*
X0182834Y0360433D01*
X0183935Y0359332D01*
X0184689Y0357511D01*
X0184689Y0355541D01*
X0183935Y0353721D01*
X0182542Y0352327D01*
X0180722Y0351573D01*
X0178752Y0351573D01*
X0176931Y0352327D01*
X0175538Y0353721D01*
X0174794Y0355517D01*
X0174763Y0355320D01*
X0174512Y0354548D01*
X0174144Y0353826D01*
X0173667Y0353169D01*
X0173094Y0352596D01*
X0172437Y0352119D01*
X0171715Y0351751D01*
X0170943Y0351500D01*
X0170746Y0351469D01*
X0172542Y0350725D01*
X0173935Y0349332D01*
X0174689Y0347511D01*
X0174689Y0345541D01*
X0173935Y0343721D01*
X0173396Y0343181D01*
X0176444Y0340133D01*
X0206841Y0340133D01*
X0207870Y0339707D01*
X0243984Y0303593D01*
X0243984Y0336390D01*
X0244410Y0337419D01*
X0246410Y0339419D01*
X0246410Y0339419D01*
X0247198Y0340207D01*
X0248227Y0340633D01*
X0276227Y0340633D01*
X0277341Y0340633D01*
X0278370Y0340207D01*
X0301870Y0316707D01*
X0302658Y0315919D01*
X0303080Y0314900D01*
X0305293Y0314900D01*
X0305784Y0314410D01*
X0306274Y0314900D01*
X0310293Y0314900D01*
X0311449Y0313744D01*
X0312147Y0314033D01*
X0312985Y0314033D01*
X0312985Y0314615D01*
X0314156Y0315786D01*
X0320931Y0315786D01*
X0321284Y0315433D01*
X0321637Y0315786D01*
X0328412Y0315786D01*
X0329583Y0314615D01*
X0329583Y0307052D01*
X0329364Y0306833D01*
X0329583Y0306615D01*
X0329583Y0299052D01*
X0328412Y0297881D01*
X0322056Y0297881D01*
X0322287Y0297482D01*
X0322437Y0296922D01*
X0322437Y0294153D01*
X0317364Y0294153D01*
X0317364Y0293994D01*
X0322437Y0293994D01*
X0322437Y0291225D01*
X0322287Y0290665D01*
X0322018Y0290199D01*
X0322237Y0289981D01*
X0322237Y0283206D01*
X0321284Y0282253D01*
X0321284Y0281914D01*
X0322237Y0280961D01*
X0322237Y0274186D01*
X0321884Y0273833D01*
X0322237Y0273481D01*
X0322237Y0266706D01*
X0321065Y0265534D01*
X0319784Y0265534D01*
X0319784Y0242707D01*
X0320505Y0241986D01*
X0321084Y0240589D01*
X0321084Y0239077D01*
X0320505Y0237681D01*
X0319436Y0236612D01*
X0318040Y0236033D01*
X0316528Y0236033D01*
X0315131Y0236612D01*
X0314062Y0237681D01*
X0313484Y0239077D01*
X0313484Y0240589D01*
X0314062Y0241986D01*
X0314784Y0242707D01*
X0314784Y0265534D01*
X0313503Y0265534D01*
X0312331Y0266706D01*
X0312331Y0273481D01*
X0312684Y0273833D01*
X0312331Y0274186D01*
X0312331Y0280961D01*
X0313284Y0281914D01*
X0313284Y0282253D01*
X0312944Y0282593D01*
X0311728Y0282593D01*
X0311298Y0282771D01*
X0310961Y0282434D01*
X0311133Y0282135D01*
X0311283Y0281576D01*
X0311283Y0278413D01*
X0306604Y0278413D01*
X0306604Y0278254D01*
X0311283Y0278254D01*
X0311283Y0275091D01*
X0311133Y0274531D01*
X0310844Y0274030D01*
X0310434Y0273620D01*
X0309932Y0273330D01*
X0309373Y0273181D01*
X0306604Y0273181D01*
X0306604Y0278254D01*
X0306445Y0278254D01*
X0306445Y0275227D01*
X0306584Y0274890D01*
X0306584Y0248276D01*
X0306158Y0247247D01*
X0305370Y0246460D01*
X0304341Y0246033D01*
X0299627Y0246033D01*
X0299528Y0245934D01*
X0299721Y0245822D01*
X0300131Y0245412D01*
X0300421Y0244911D01*
X0300571Y0244351D01*
X0300571Y0242093D01*
X0295615Y0242093D01*
X0295615Y0242093D01*
X0295615Y0237925D01*
X0298660Y0237925D01*
X0299220Y0238075D01*
X0299721Y0238364D01*
X0300131Y0238774D01*
X0300421Y0239275D01*
X0300571Y0239835D01*
X0300571Y0242093D01*
X0295615Y0242093D01*
X0295615Y0242093D01*
X0295615Y0237925D01*
X0292569Y0237925D01*
X0292010Y0238075D01*
X0291508Y0238364D01*
X0291098Y0238774D01*
X0290809Y0239275D01*
X0290659Y0239835D01*
X0290659Y0241986D01*
X0290538Y0241865D01*
X0290084Y0241865D01*
X0290084Y0240776D01*
X0289658Y0239747D01*
X0288870Y0238960D01*
X0271370Y0221460D01*
X0270341Y0221033D01*
X0254727Y0221033D01*
X0253698Y0221460D01*
X0252910Y0222247D01*
X0250910Y0224247D01*
X0250484Y0225276D01*
X0250484Y0235390D01*
X0250910Y0236419D01*
X0256698Y0242207D01*
X0257727Y0242633D01*
X0272124Y0242633D01*
X0284698Y0255207D01*
X0285727Y0255633D01*
X0287841Y0255633D01*
X0287984Y0255574D01*
X0287984Y0257890D01*
X0288410Y0258919D01*
X0288809Y0259318D01*
X0287647Y0259318D01*
X0287647Y0266458D01*
X0286897Y0266458D01*
X0286897Y0259318D01*
X0283833Y0259318D01*
X0283273Y0259468D01*
X0282772Y0259758D01*
X0282362Y0260168D01*
X0282072Y0260669D01*
X0281923Y0261229D01*
X0281923Y0266459D01*
X0286897Y0266459D01*
X0286897Y0267208D01*
X0281923Y0267208D01*
X0281923Y0272438D01*
X0282072Y0272997D01*
X0282362Y0273499D01*
X0282772Y0273909D01*
X0283273Y0274198D01*
X0283833Y0274348D01*
X0286897Y0274348D01*
X0286897Y0267208D01*
X0287647Y0267208D01*
X0287647Y0274348D01*
X0289984Y0274348D01*
X0289984Y0281390D01*
X0290410Y0282419D01*
X0291198Y0283207D01*
X0292984Y0284993D01*
X0292984Y0299033D01*
X0274525Y0299033D01*
X0274584Y0298890D01*
X0274584Y0279848D01*
X0275921Y0279848D01*
X0275921Y0272708D01*
X0276671Y0272708D01*
X0281645Y0272708D01*
X0281645Y0277938D01*
X0281495Y0278497D01*
X0281206Y0278999D01*
X0280796Y0279409D01*
X0280295Y0279698D01*
X0279735Y0279848D01*
X0276671Y0279848D01*
X0276671Y0272708D01*
X0276671Y0271959D01*
X0281645Y0271959D01*
X0281645Y0266729D01*
X0281495Y0266169D01*
X0281446Y0266083D01*
X0281495Y0265997D01*
X0281645Y0265438D01*
X0281645Y0260208D01*
X0276671Y0260208D01*
X0276671Y0259459D01*
X0281645Y0259459D01*
X0281645Y0254229D01*
X0281495Y0253669D01*
X0281206Y0253168D01*
X0280796Y0252758D01*
X0280295Y0252468D01*
X0279735Y0252318D01*
X0276671Y0252318D01*
X0276671Y0259458D01*
X0275921Y0259458D01*
X0275921Y0252318D01*
X0274187Y0252318D01*
X0274158Y0252247D01*
X0272158Y0250247D01*
X0272158Y0250247D01*
X0271370Y0249460D01*
X0270341Y0249033D01*
X0260227Y0249033D01*
X0259198Y0249460D01*
X0255572Y0253086D01*
X0254084Y0251598D01*
X0254084Y0250577D01*
X0253505Y0249181D01*
X0252436Y0248112D01*
X0251040Y0247533D01*
X0249528Y0247533D01*
X0248131Y0248112D01*
X0247062Y0249181D01*
X0246484Y0250577D01*
X0246484Y0252089D01*
X0247062Y0253486D01*
X0248131Y0254555D01*
X0249528Y0255133D01*
X0250548Y0255133D01*
X0252036Y0256621D01*
X0245198Y0263460D01*
X0244410Y0264247D01*
X0243984Y0265276D01*
X0243984Y0267181D01*
X0242123Y0267181D01*
X0242123Y0272254D01*
X0241964Y0272254D01*
X0237285Y0272254D01*
X0237285Y0269091D01*
X0237435Y0268531D01*
X0237724Y0268030D01*
X0238134Y0267620D01*
X0238636Y0267330D01*
X0239195Y0267181D01*
X0241964Y0267181D01*
X0241964Y0272254D01*
X0241964Y0272413D01*
X0237285Y0272413D01*
X0237285Y0275576D01*
X0237435Y0276135D01*
X0237724Y0276637D01*
X0238134Y0277047D01*
X0238636Y0277336D01*
X0239195Y0277486D01*
X0241635Y0277486D01*
X0201634Y0317033D01*
X0172326Y0317033D01*
X0172313Y0317028D01*
X0171770Y0317033D01*
X0171227Y0317033D01*
X0171213Y0317039D01*
X0171199Y0317039D01*
X0170699Y0317252D01*
X0170198Y0317460D01*
X0170188Y0317470D01*
X0170174Y0317476D01*
X0169794Y0317864D01*
X0169410Y0318247D01*
X0169405Y0318261D01*
X0162355Y0325454D01*
X0162389Y0325239D01*
X0162389Y0324833D01*
X0154284Y0324833D01*
X0154284Y0324833D01*
X0162389Y0324833D01*
X0162389Y0324428D01*
X0162263Y0323627D01*
X0162012Y0322855D01*
X0161644Y0322133D01*
X0161167Y0321477D01*
X0160594Y0320903D01*
X0159937Y0320426D01*
X0159215Y0320058D01*
X0158443Y0319807D01*
X0158246Y0319776D01*
X0160042Y0319032D01*
X0161435Y0317639D01*
X0162189Y0315818D01*
X0162189Y0313848D01*
X0161435Y0312028D01*
X0160042Y0310635D01*
X0158246Y0309890D01*
X0158443Y0309859D01*
X0159215Y0309609D01*
X0159937Y0309240D01*
X0160594Y0308764D01*
X0161167Y0308190D01*
X0161644Y0307534D01*
X0162012Y0306811D01*
X0162263Y0306040D01*
X0162389Y0305239D01*
X0162389Y0304833D01*
X0154284Y0304833D01*
X0154284Y0304833D01*
X0162389Y0304833D01*
X0162389Y0304428D01*
X0162263Y0303627D01*
X0162012Y0302855D01*
X0161644Y0302133D01*
X0161167Y0301477D01*
X0160594Y0300903D01*
X0159937Y0300426D01*
X0159215Y0300058D01*
X0158443Y0299807D01*
X0158246Y0299776D01*
X0160042Y0299032D01*
X0161435Y0297639D01*
X0162189Y0295818D01*
X0162189Y0293848D01*
X0161435Y0292028D01*
X0160042Y0290635D01*
X0158222Y0289881D01*
X0156684Y0289881D01*
X0156684Y0234835D01*
X0158383Y0233136D01*
X0158383Y0234604D01*
X0163063Y0234604D01*
X0163063Y0234763D01*
X0158383Y0234763D01*
X0158383Y0238025D01*
X0158533Y0238584D01*
X0158823Y0239086D01*
X0159232Y0239495D01*
X0159734Y0239785D01*
X0160294Y0239935D01*
X0163063Y0239935D01*
X0163063Y0234763D01*
X0163222Y0234763D01*
X0167901Y0234763D01*
X0167901Y0238025D01*
X0167751Y0238584D01*
X0167462Y0239086D01*
X0167052Y0239495D01*
X0166550Y0239785D01*
X0165991Y0239935D01*
X0163222Y0239935D01*
X0163222Y0234763D01*
X0163222Y0234604D01*
X0167901Y0234604D01*
X0167901Y0231343D01*
X0167751Y0230783D01*
X0167462Y0230282D01*
X0167052Y0229872D01*
X0166824Y0229740D01*
X0167701Y0228863D01*
X0167701Y0221103D01*
X0166530Y0219932D01*
X0165542Y0219932D01*
X0165542Y0198735D01*
X0166530Y0198735D01*
X0167701Y0197563D01*
X0167701Y0190079D01*
X0168093Y0190305D01*
X0168965Y0190666D01*
X0169876Y0190910D01*
X0170812Y0191033D01*
X0171284Y0191033D01*
X0171284Y0183833D01*
X0171284Y0176633D01*
X0171756Y0176633D01*
X0172692Y0176757D01*
X0173603Y0177001D01*
X0174475Y0177362D01*
X0175293Y0177834D01*
X0176041Y0178408D01*
X0176709Y0179076D01*
X0177283Y0179825D01*
X0177755Y0180642D01*
X0178116Y0181514D01*
X0178361Y0182426D01*
X0178484Y0183361D01*
X0178484Y0183833D01*
X0171284Y0183833D01*
X0171284Y0183833D01*
X0171284Y0176633D01*
X0170812Y0176633D01*
X0169876Y0176757D01*
X0168965Y0177001D01*
X0168093Y0177362D01*
X0167275Y0177834D01*
X0166526Y0178408D01*
X0165859Y0179076D01*
X0165285Y0179825D01*
X0164813Y0180642D01*
X0164451Y0181514D01*
X0164207Y0182426D01*
X0164084Y0183361D01*
X0164084Y0183833D01*
X0171284Y0183833D01*
X0171284Y0183833D01*
X0171284Y0183833D01*
X0178484Y0183833D01*
X0178484Y0184305D01*
X0178361Y0185241D01*
X0178116Y0186153D01*
X0177755Y0187025D01*
X0177283Y0187842D01*
X0176709Y0188591D01*
X0176041Y0189258D01*
X0175293Y0189833D01*
X0174475Y0190305D01*
X0173603Y0190666D01*
X0172692Y0190910D01*
X0171756Y0191033D01*
X0171284Y0191033D01*
X0171284Y0183833D01*
X0164084Y0183833D01*
X0164084Y0184305D01*
X0164207Y0185241D01*
X0164451Y0186153D01*
X0164813Y0187025D01*
X0165285Y0187842D01*
X0165859Y0188591D01*
X0165901Y0188633D01*
X0159755Y0188633D01*
X0158583Y0189804D01*
X0158583Y0197563D01*
X0159755Y0198735D01*
X0160742Y0198735D01*
X0160742Y0219932D01*
X0159755Y0219932D01*
X0158583Y0221103D01*
X0158583Y0226148D01*
X0152249Y0232482D01*
X0151884Y0233364D01*
X0151884Y0289881D01*
X0150346Y0289881D01*
X0148526Y0290635D01*
X0147132Y0292028D01*
X0146684Y0293111D01*
X0146684Y0274327D01*
X0146785Y0274226D01*
X0147460Y0273551D01*
X0147826Y0272669D01*
X0147826Y0271034D01*
X0148813Y0271034D01*
X0149985Y0269863D01*
X0149985Y0262103D01*
X0148813Y0260932D01*
X0147826Y0260932D01*
X0147826Y0239735D01*
X0148813Y0239735D01*
X0149985Y0238563D01*
X0149985Y0230804D01*
X0149107Y0229926D01*
X0149336Y0229795D01*
X0149745Y0229385D01*
X0150035Y0228883D01*
X0150185Y0228324D01*
X0150185Y0225062D01*
X0145505Y0225062D01*
X0145505Y0224903D01*
X0145505Y0219732D01*
X0148274Y0219732D01*
X0148834Y0219882D01*
X0149336Y0220171D01*
X0149745Y0220581D01*
X0150035Y0221083D01*
X0150185Y0221642D01*
X0150185Y0224903D01*
X0145505Y0224903D01*
X0145346Y0224903D01*
X0145346Y0219732D01*
X0143606Y0219732D01*
X0143606Y0215063D01*
X0143119Y0213887D01*
X0142219Y0212987D01*
X0141043Y0212499D01*
X0119984Y0212499D01*
X0119984Y0167832D01*
X0120943Y0169064D01*
X0120943Y0169064D01*
X0120943Y0169064D01*
X0124858Y0171621D01*
X0124858Y0171621D01*
X0129390Y0172769D01*
X0129390Y0172769D01*
X0134051Y0172383D01*
X0134051Y0172383D01*
X0138333Y0170505D01*
X0138333Y0170505D01*
X0141773Y0167338D01*
X0141773Y0167338D01*
X0143999Y0163225D01*
X0143999Y0163225D01*
X0144768Y0158613D01*
X0144768Y0158613D01*
X0143999Y0154001D01*
X0141773Y0149888D01*
X0141493Y0149630D02*
X0146330Y0149630D01*
X0146177Y0149783D02*
X0146734Y0149226D01*
X0147389Y0148789D01*
X0148117Y0148487D01*
X0148890Y0148333D01*
X0149284Y0148333D01*
X0149678Y0148333D01*
X0150451Y0148487D01*
X0151179Y0148789D01*
X0151834Y0149226D01*
X0152391Y0149783D01*
X0152829Y0150439D01*
X0153130Y0151167D01*
X0153284Y0151939D01*
X0153284Y0152333D01*
X0149284Y0152333D01*
X0149284Y0148333D01*
X0149284Y0152333D01*
X0149284Y0152333D01*
X0149284Y0152333D01*
X0145284Y0152333D01*
X0145284Y0151939D01*
X0145438Y0151167D01*
X0145739Y0150439D01*
X0146177Y0149783D01*
X0145284Y0152029D02*
X0142931Y0152029D01*
X0145284Y0152333D02*
X0149284Y0152333D01*
X0149284Y0152333D01*
X0153284Y0152333D01*
X0153284Y0152727D01*
X0153130Y0153500D01*
X0152829Y0154228D01*
X0152391Y0154883D01*
X0151834Y0155440D01*
X0151179Y0155878D01*
X0150451Y0156180D01*
X0149678Y0156333D01*
X0149284Y0156333D01*
X0149284Y0152333D01*
X0149284Y0152333D01*
X0149284Y0156333D01*
X0148890Y0156333D01*
X0148117Y0156180D01*
X0147389Y0155878D01*
X0146734Y0155440D01*
X0146177Y0154883D01*
X0145739Y0154228D01*
X0145438Y0153500D01*
X0145284Y0152727D01*
X0145284Y0152333D01*
X0145872Y0154427D02*
X0144070Y0154427D01*
X0144470Y0156826D02*
X0250484Y0156826D01*
X0250484Y0155776D02*
X0250910Y0154747D01*
X0251698Y0153960D01*
X0252727Y0153533D01*
X0255284Y0153533D01*
X0255284Y0153005D01*
X0256456Y0151833D01*
X0267112Y0151833D01*
X0268284Y0153005D01*
X0268284Y0153533D01*
X0270841Y0153533D01*
X0271870Y0153960D01*
X0272658Y0154747D01*
X0273084Y0155776D01*
X0273084Y0173782D01*
X0273086Y0173787D01*
X0273084Y0174339D01*
X0273084Y0174890D01*
X0273082Y0174895D01*
X0273082Y0174901D01*
X0272868Y0175411D01*
X0272658Y0175919D01*
X0272654Y0175923D01*
X0272652Y0175928D01*
X0272259Y0176318D01*
X0271870Y0176707D01*
X0271865Y0176709D01*
X0206584Y0241499D01*
X0206584Y0256033D01*
X0206650Y0256099D01*
X0207116Y0255830D01*
X0207675Y0255681D01*
X0210445Y0255681D01*
X0210445Y0260754D01*
X0210604Y0260754D01*
X0210604Y0260913D01*
X0215283Y0260913D01*
X0215283Y0264076D01*
X0215133Y0264635D01*
X0214844Y0265137D01*
X0214434Y0265547D01*
X0213932Y0265836D01*
X0213373Y0265986D01*
X0210604Y0265986D01*
X0210604Y0260913D01*
X0210445Y0260913D01*
X0210445Y0265986D01*
X0207675Y0265986D01*
X0207116Y0265836D01*
X0206650Y0265567D01*
X0206584Y0265633D01*
X0206584Y0269390D01*
X0206158Y0270419D01*
X0205370Y0271207D01*
X0204341Y0271633D01*
X0191727Y0271633D01*
X0190698Y0271207D01*
X0189910Y0270419D01*
X0189484Y0269390D01*
X0189484Y0265786D01*
X0189137Y0265786D01*
X0189084Y0265733D01*
X0189084Y0271390D01*
X0188658Y0272419D01*
X0187870Y0273207D01*
X0186841Y0273633D01*
X0175727Y0273633D01*
X0174698Y0273207D01*
X0173910Y0272419D01*
X0173484Y0271390D01*
X0173484Y0241776D01*
X0173910Y0240747D01*
X0179198Y0235460D01*
X0180227Y0235033D01*
X0181341Y0235033D01*
X0186727Y0235033D01*
X0187841Y0235033D01*
X0188870Y0235460D01*
X0192107Y0238697D01*
X0192002Y0235434D01*
X0191984Y0235390D01*
X0191984Y0234878D01*
X0191967Y0234367D01*
X0191984Y0234323D01*
X0191984Y0234276D01*
X0192180Y0233804D01*
X0192360Y0233325D01*
X0192392Y0233290D01*
X0192410Y0233247D01*
X0192772Y0232885D01*
X0193122Y0232512D01*
X0193165Y0232493D01*
X0250484Y0175174D01*
X0250484Y0155776D01*
X0251230Y0154427D02*
X0217696Y0154427D01*
X0217829Y0154228D02*
X0217391Y0154883D01*
X0216834Y0155440D01*
X0216179Y0155878D01*
X0215451Y0156180D01*
X0214678Y0156333D01*
X0214284Y0156333D01*
X0214284Y0152333D01*
X0214284Y0148333D01*
X0214678Y0148333D01*
X0215451Y0148487D01*
X0216179Y0148789D01*
X0216834Y0149226D01*
X0217391Y0149783D01*
X0217829Y0150439D01*
X0218130Y0151167D01*
X0218284Y0151939D01*
X0218284Y0152333D01*
X0214284Y0152333D01*
X0214284Y0152333D01*
X0214284Y0148333D01*
X0213890Y0148333D01*
X0213117Y0148487D01*
X0212389Y0148789D01*
X0211734Y0149226D01*
X0211177Y0149783D01*
X0210739Y0150439D01*
X0210438Y0151167D01*
X0210284Y0151939D01*
X0210284Y0152333D01*
X0214284Y0152333D01*
X0214284Y0152333D01*
X0214284Y0152333D01*
X0218284Y0152333D01*
X0218284Y0152727D01*
X0218130Y0153500D01*
X0217829Y0154228D01*
X0218284Y0152029D02*
X0256260Y0152029D01*
X0250484Y0159224D02*
X0144666Y0159224D01*
X0144266Y0161623D02*
X0250484Y0161623D01*
X0250484Y0164021D02*
X0143568Y0164021D01*
X0142270Y0166420D02*
X0250484Y0166420D01*
X0250484Y0168818D02*
X0140164Y0168818D01*
X0136709Y0171217D02*
X0250484Y0171217D01*
X0250484Y0173615D02*
X0150761Y0173615D01*
X0150451Y0173487D02*
X0151179Y0173789D01*
X0151834Y0174226D01*
X0152391Y0174783D01*
X0152829Y0175439D01*
X0153130Y0176167D01*
X0153284Y0176939D01*
X0153284Y0177333D01*
X0149284Y0177333D01*
X0149284Y0173333D01*
X0149678Y0173333D01*
X0150451Y0173487D01*
X0149284Y0173615D02*
X0149284Y0173615D01*
X0149284Y0173333D02*
X0149284Y0177333D01*
X0149284Y0177333D01*
X0149284Y0177333D01*
X0145284Y0177333D01*
X0145284Y0176939D01*
X0145438Y0176167D01*
X0145739Y0175439D01*
X0146177Y0174783D01*
X0146734Y0174226D01*
X0147389Y0173789D01*
X0148117Y0173487D01*
X0148890Y0173333D01*
X0149284Y0173333D01*
X0147807Y0173615D02*
X0125761Y0173615D01*
X0125451Y0173487D02*
X0126179Y0173789D01*
X0126834Y0174226D01*
X0127391Y0174783D01*
X0127829Y0175439D01*
X0128130Y0176167D01*
X0128284Y0176939D01*
X0128284Y0177333D01*
X0124284Y0177333D01*
X0124284Y0173333D01*
X0124678Y0173333D01*
X0125451Y0173487D01*
X0124284Y0173615D02*
X0124284Y0173615D01*
X0124284Y0173333D02*
X0124284Y0177333D01*
X0124284Y0177333D01*
X0124284Y0177333D01*
X0120284Y0177333D01*
X0120284Y0176939D01*
X0120438Y0176167D01*
X0120739Y0175439D01*
X0121177Y0174783D01*
X0121734Y0174226D01*
X0122389Y0173789D01*
X0123117Y0173487D01*
X0123890Y0173333D01*
X0124284Y0173333D01*
X0122807Y0173615D02*
X0119984Y0173615D01*
X0119984Y0171217D02*
X0124239Y0171217D01*
X0120752Y0168818D02*
X0119984Y0168818D01*
X0119984Y0176014D02*
X0120501Y0176014D01*
X0120284Y0177333D02*
X0124284Y0177333D01*
X0124284Y0177333D01*
X0128284Y0177333D01*
X0128284Y0177727D01*
X0128130Y0178500D01*
X0127829Y0179228D01*
X0127391Y0179883D01*
X0126834Y0180440D01*
X0126179Y0180878D01*
X0125451Y0181180D01*
X0124678Y0181333D01*
X0124284Y0181333D01*
X0124284Y0177333D01*
X0124284Y0177333D01*
X0124284Y0181333D01*
X0123890Y0181333D01*
X0123117Y0181180D01*
X0122389Y0180878D01*
X0121734Y0180440D01*
X0121177Y0179883D01*
X0120739Y0179228D01*
X0120438Y0178500D01*
X0120284Y0177727D01*
X0120284Y0177333D01*
X0120420Y0178412D02*
X0119984Y0178412D01*
X0119984Y0180811D02*
X0122289Y0180811D01*
X0124284Y0180811D02*
X0124284Y0180811D01*
X0126279Y0180811D02*
X0147289Y0180811D01*
X0147389Y0180878D02*
X0146734Y0180440D01*
X0146177Y0179883D01*
X0145739Y0179228D01*
X0145438Y0178500D01*
X0145284Y0177727D01*
X0145284Y0177333D01*
X0149284Y0177333D01*
X0149284Y0177333D01*
X0153284Y0177333D01*
X0153284Y0177727D01*
X0153130Y0178500D01*
X0152829Y0179228D01*
X0152391Y0179883D01*
X0151834Y0180440D01*
X0151179Y0180878D01*
X0150451Y0181180D01*
X0149678Y0181333D01*
X0149284Y0181333D01*
X0149284Y0177333D01*
X0149284Y0177333D01*
X0149284Y0181333D01*
X0148890Y0181333D01*
X0148117Y0181180D01*
X0147389Y0180878D01*
X0149284Y0180811D02*
X0149284Y0180811D01*
X0151279Y0180811D02*
X0164743Y0180811D01*
X0164104Y0183210D02*
X0119984Y0183210D01*
X0119984Y0185608D02*
X0164305Y0185608D01*
X0165411Y0188007D02*
X0119984Y0188007D01*
X0119984Y0190405D02*
X0140667Y0190405D01*
X0140667Y0190343D02*
X0140817Y0189783D01*
X0141106Y0189282D01*
X0141516Y0188872D01*
X0142017Y0188582D01*
X0142577Y0188433D01*
X0145346Y0188433D01*
X0145346Y0193604D01*
X0145505Y0193604D01*
X0145505Y0188433D01*
X0148274Y0188433D01*
X0148834Y0188582D01*
X0149336Y0188872D01*
X0149745Y0189282D01*
X0150035Y0189783D01*
X0150185Y0190343D01*
X0150185Y0193604D01*
X0145505Y0193604D01*
X0145505Y0193763D01*
X0145346Y0193763D01*
X0145346Y0193604D01*
X0140667Y0193604D01*
X0140667Y0190343D01*
X0140667Y0192804D02*
X0119984Y0192804D01*
X0119984Y0195202D02*
X0140667Y0195202D01*
X0140667Y0193763D02*
X0145346Y0193763D01*
X0145346Y0198935D01*
X0142577Y0198935D01*
X0142017Y0198785D01*
X0141516Y0198495D01*
X0141106Y0198086D01*
X0140817Y0197584D01*
X0140667Y0197025D01*
X0140667Y0193763D01*
X0140826Y0197601D02*
X0119984Y0197601D01*
X0119984Y0199999D02*
X0160742Y0199999D01*
X0160742Y0202398D02*
X0119984Y0202398D01*
X0119984Y0204796D02*
X0121169Y0204796D01*
X0121177Y0204783D02*
X0121734Y0204226D01*
X0122389Y0203789D01*
X0123117Y0203487D01*
X0123890Y0203333D01*
X0124284Y0203333D01*
X0124678Y0203333D01*
X0125451Y0203487D01*
X0126179Y0203789D01*
X0126834Y0204226D01*
X0127391Y0204783D01*
X0127829Y0205439D01*
X0128130Y0206167D01*
X0128284Y0206939D01*
X0128284Y0207333D01*
X0124284Y0207333D01*
X0124284Y0203333D01*
X0124284Y0207333D01*
X0124284Y0207333D01*
X0124284Y0207333D01*
X0120284Y0207333D01*
X0120284Y0206939D01*
X0120438Y0206167D01*
X0120739Y0205439D01*
X0121177Y0204783D01*
X0120284Y0207195D02*
X0119984Y0207195D01*
X0120284Y0207333D02*
X0124284Y0207333D01*
X0124284Y0207333D01*
X0128284Y0207333D01*
X0128284Y0207727D01*
X0128130Y0208500D01*
X0127829Y0209228D01*
X0127391Y0209883D01*
X0126834Y0210440D01*
X0126179Y0210878D01*
X0125451Y0211180D01*
X0124678Y0211333D01*
X0124284Y0211333D01*
X0124284Y0207333D01*
X0124284Y0207333D01*
X0124284Y0211333D01*
X0123890Y0211333D01*
X0123117Y0211180D01*
X0122389Y0210878D01*
X0121734Y0210440D01*
X0121177Y0209883D01*
X0120739Y0209228D01*
X0120438Y0208500D01*
X0120284Y0207727D01*
X0120284Y0207333D01*
X0119984Y0209593D02*
X0120983Y0209593D01*
X0119984Y0211992D02*
X0160742Y0211992D01*
X0160742Y0214390D02*
X0143327Y0214390D01*
X0143606Y0216789D02*
X0160742Y0216789D01*
X0160742Y0219187D02*
X0143606Y0219187D01*
X0145346Y0221586D02*
X0145505Y0221586D01*
X0145505Y0223984D02*
X0145346Y0223984D01*
X0150185Y0223984D02*
X0158583Y0223984D01*
X0158583Y0221586D02*
X0150170Y0221586D01*
X0150185Y0226383D02*
X0158348Y0226383D01*
X0155950Y0228781D02*
X0150062Y0228781D01*
X0149985Y0231180D02*
X0153551Y0231180D01*
X0151884Y0233578D02*
X0149985Y0233578D01*
X0149985Y0235977D02*
X0151884Y0235977D01*
X0151884Y0238375D02*
X0149985Y0238375D01*
X0151884Y0240774D02*
X0147826Y0240774D01*
X0147826Y0243172D02*
X0151884Y0243172D01*
X0151884Y0245571D02*
X0147826Y0245571D01*
X0147826Y0247969D02*
X0151884Y0247969D01*
X0151884Y0250368D02*
X0147826Y0250368D01*
X0147826Y0252766D02*
X0151884Y0252766D01*
X0151884Y0255165D02*
X0147826Y0255165D01*
X0147826Y0257563D02*
X0151884Y0257563D01*
X0151884Y0259962D02*
X0147826Y0259962D01*
X0149985Y0262360D02*
X0151884Y0262360D01*
X0151884Y0264759D02*
X0149985Y0264759D01*
X0149985Y0267157D02*
X0151884Y0267157D01*
X0151884Y0269556D02*
X0149985Y0269556D01*
X0151884Y0271954D02*
X0147826Y0271954D01*
X0146684Y0274353D02*
X0151884Y0274353D01*
X0151884Y0276751D02*
X0146684Y0276751D01*
X0146684Y0279150D02*
X0151884Y0279150D01*
X0151884Y0281548D02*
X0146684Y0281548D01*
X0146684Y0283947D02*
X0151884Y0283947D01*
X0151884Y0286345D02*
X0146684Y0286345D01*
X0146684Y0288744D02*
X0151884Y0288744D01*
X0148018Y0291143D02*
X0146684Y0291143D01*
X0156684Y0288744D02*
X0230248Y0288744D01*
X0232674Y0286345D02*
X0156684Y0286345D01*
X0156684Y0283947D02*
X0175623Y0283947D01*
X0175739Y0284228D02*
X0175438Y0283500D01*
X0175284Y0282727D01*
X0175284Y0282333D01*
X0175284Y0281939D01*
X0175438Y0281167D01*
X0175739Y0280439D01*
X0176177Y0279783D01*
X0176734Y0279226D01*
X0177389Y0278789D01*
X0178117Y0278487D01*
X0178890Y0278333D01*
X0179284Y0278333D01*
X0179678Y0278333D01*
X0180451Y0278487D01*
X0181179Y0278789D01*
X0181834Y0279226D01*
X0182391Y0279783D01*
X0182829Y0280439D01*
X0183130Y0281167D01*
X0183284Y0281939D01*
X0183284Y0282333D01*
X0179284Y0282333D01*
X0179284Y0278333D01*
X0179284Y0282333D01*
X0179284Y0282333D01*
X0179284Y0282333D01*
X0175284Y0282333D01*
X0179284Y0282333D01*
X0179284Y0282333D01*
X0183284Y0282333D01*
X0183284Y0282727D01*
X0183130Y0283500D01*
X0182829Y0284228D01*
X0182391Y0284883D01*
X0181834Y0285440D01*
X0181179Y0285878D01*
X0180451Y0286180D01*
X0179678Y0286333D01*
X0179284Y0286333D01*
X0179284Y0282333D01*
X0179284Y0282333D01*
X0179284Y0286333D01*
X0178890Y0286333D01*
X0178117Y0286180D01*
X0177389Y0285878D01*
X0176734Y0285440D01*
X0176177Y0284883D01*
X0175739Y0284228D01*
X0175362Y0281548D02*
X0156684Y0281548D01*
X0156684Y0279150D02*
X0176848Y0279150D01*
X0179284Y0279150D02*
X0179284Y0279150D01*
X0179284Y0281548D02*
X0179284Y0281548D01*
X0179284Y0283947D02*
X0179284Y0283947D01*
X0182945Y0283947D02*
X0210623Y0283947D01*
X0210739Y0284228D02*
X0210438Y0283500D01*
X0210284Y0282727D01*
X0210284Y0282333D01*
X0210284Y0281939D01*
X0210438Y0281167D01*
X0210739Y0280439D01*
X0211177Y0279783D01*
X0211734Y0279226D01*
X0212389Y0278789D01*
X0213117Y0278487D01*
X0213890Y0278333D01*
X0214284Y0278333D01*
X0214678Y0278333D01*
X0215451Y0278487D01*
X0216179Y0278789D01*
X0216834Y0279226D01*
X0217391Y0279783D01*
X0217829Y0280439D01*
X0218130Y0281167D01*
X0218284Y0281939D01*
X0218284Y0282333D01*
X0214284Y0282333D01*
X0214284Y0278333D01*
X0214284Y0282333D01*
X0214284Y0282333D01*
X0214284Y0282333D01*
X0210284Y0282333D01*
X0214284Y0282333D01*
X0214284Y0282333D01*
X0218284Y0282333D01*
X0218284Y0282727D01*
X0218130Y0283500D01*
X0217829Y0284228D01*
X0217391Y0284883D01*
X0216834Y0285440D01*
X0216179Y0285878D01*
X0215451Y0286180D01*
X0214678Y0286333D01*
X0214284Y0286333D01*
X0214284Y0282333D01*
X0214284Y0282333D01*
X0214284Y0286333D01*
X0213890Y0286333D01*
X0213117Y0286180D01*
X0212389Y0285878D01*
X0211734Y0285440D01*
X0211177Y0284883D01*
X0210739Y0284228D01*
X0210362Y0281548D02*
X0183206Y0281548D01*
X0181720Y0279150D02*
X0211848Y0279150D01*
X0214284Y0279150D02*
X0214284Y0279150D01*
X0214284Y0281548D02*
X0214284Y0281548D01*
X0214284Y0283947D02*
X0214284Y0283947D01*
X0217945Y0283947D02*
X0235100Y0283947D01*
X0237526Y0281548D02*
X0218206Y0281548D01*
X0216720Y0279150D02*
X0239952Y0279150D01*
X0237839Y0276751D02*
X0156684Y0276751D01*
X0156684Y0274353D02*
X0237285Y0274353D01*
X0237285Y0271954D02*
X0188850Y0271954D01*
X0189084Y0269556D02*
X0189553Y0269556D01*
X0189484Y0267157D02*
X0189084Y0267157D01*
X0173484Y0267157D02*
X0167901Y0267157D01*
X0167901Y0266062D02*
X0167901Y0269324D01*
X0167751Y0269883D01*
X0167462Y0270385D01*
X0167052Y0270795D01*
X0166550Y0271084D01*
X0165991Y0271234D01*
X0163222Y0271234D01*
X0163222Y0266063D01*
X0163063Y0266063D01*
X0163063Y0271234D01*
X0160294Y0271234D01*
X0159734Y0271084D01*
X0159232Y0270795D01*
X0158823Y0270385D01*
X0158533Y0269883D01*
X0158383Y0269324D01*
X0158383Y0266062D01*
X0163063Y0266062D01*
X0163063Y0265903D01*
X0163222Y0265903D01*
X0163222Y0260732D01*
X0165991Y0260732D01*
X0166550Y0260882D01*
X0167052Y0261171D01*
X0167462Y0261581D01*
X0167751Y0262083D01*
X0167901Y0262642D01*
X0167901Y0265903D01*
X0163222Y0265903D01*
X0163222Y0266062D01*
X0167901Y0266062D01*
X0167901Y0264759D02*
X0173484Y0264759D01*
X0173484Y0262360D02*
X0167826Y0262360D01*
X0163222Y0262360D02*
X0163063Y0262360D01*
X0163063Y0260732D02*
X0163063Y0265903D01*
X0158383Y0265903D01*
X0158383Y0262642D01*
X0158533Y0262083D01*
X0158823Y0261581D01*
X0159232Y0261171D01*
X0159734Y0260882D01*
X0160294Y0260732D01*
X0163063Y0260732D01*
X0163063Y0264759D02*
X0163222Y0264759D01*
X0163222Y0267157D02*
X0163063Y0267157D01*
X0163063Y0269556D02*
X0163222Y0269556D01*
X0167839Y0269556D02*
X0173484Y0269556D01*
X0173718Y0271954D02*
X0156684Y0271954D01*
X0156684Y0269556D02*
X0158445Y0269556D01*
X0158383Y0267157D02*
X0156684Y0267157D01*
X0156684Y0264759D02*
X0158383Y0264759D01*
X0158459Y0262360D02*
X0156684Y0262360D01*
X0156684Y0259962D02*
X0173484Y0259962D01*
X0173484Y0257563D02*
X0156684Y0257563D01*
X0156684Y0255165D02*
X0173484Y0255165D01*
X0173484Y0252766D02*
X0156684Y0252766D01*
X0156684Y0250368D02*
X0173484Y0250368D01*
X0173484Y0247969D02*
X0156684Y0247969D01*
X0156684Y0245571D02*
X0173484Y0245571D01*
X0173484Y0243172D02*
X0156684Y0243172D01*
X0156684Y0240774D02*
X0173899Y0240774D01*
X0176282Y0238375D02*
X0167807Y0238375D01*
X0167901Y0235977D02*
X0178681Y0235977D01*
X0189387Y0235977D02*
X0192019Y0235977D01*
X0192097Y0238375D02*
X0191786Y0238375D01*
X0192265Y0233578D02*
X0167901Y0233578D01*
X0167858Y0231180D02*
X0194478Y0231180D01*
X0196876Y0228781D02*
X0167701Y0228781D01*
X0167701Y0226383D02*
X0199275Y0226383D01*
X0201673Y0223984D02*
X0167701Y0223984D01*
X0167701Y0221586D02*
X0204072Y0221586D01*
X0206470Y0219187D02*
X0165542Y0219187D01*
X0165542Y0216789D02*
X0208869Y0216789D01*
X0211267Y0214390D02*
X0165542Y0214390D01*
X0165542Y0211992D02*
X0213666Y0211992D01*
X0216064Y0209593D02*
X0182585Y0209593D01*
X0182391Y0209883D02*
X0181834Y0210440D01*
X0181179Y0210878D01*
X0180451Y0211180D01*
X0179678Y0211333D01*
X0179284Y0211333D01*
X0179284Y0207333D01*
X0179284Y0203333D01*
X0179678Y0203333D01*
X0180451Y0203487D01*
X0181179Y0203789D01*
X0181834Y0204226D01*
X0182391Y0204783D01*
X0182829Y0205439D01*
X0183130Y0206167D01*
X0183284Y0206939D01*
X0183284Y0207333D01*
X0179284Y0207333D01*
X0179284Y0207333D01*
X0179284Y0203333D01*
X0178890Y0203333D01*
X0178117Y0203487D01*
X0177389Y0203789D01*
X0176734Y0204226D01*
X0176177Y0204783D01*
X0175739Y0205439D01*
X0175438Y0206167D01*
X0175284Y0206939D01*
X0175284Y0207333D01*
X0179284Y0207333D01*
X0179284Y0207333D01*
X0179284Y0207333D01*
X0183284Y0207333D01*
X0183284Y0207727D01*
X0183130Y0208500D01*
X0182829Y0209228D01*
X0182391Y0209883D01*
X0183284Y0207195D02*
X0218463Y0207195D01*
X0220861Y0204796D02*
X0182399Y0204796D01*
X0179284Y0204796D02*
X0179284Y0204796D01*
X0179284Y0207195D02*
X0179284Y0207195D01*
X0179284Y0207333D02*
X0175284Y0207333D01*
X0175284Y0207727D01*
X0175438Y0208500D01*
X0175739Y0209228D01*
X0176177Y0209883D01*
X0176734Y0210440D01*
X0177389Y0210878D01*
X0178117Y0211180D01*
X0178890Y0211333D01*
X0179284Y0211333D01*
X0179284Y0207333D01*
X0179284Y0207333D01*
X0179284Y0209593D02*
X0179284Y0209593D01*
X0175983Y0209593D02*
X0165542Y0209593D01*
X0165542Y0207195D02*
X0175284Y0207195D01*
X0176169Y0204796D02*
X0165542Y0204796D01*
X0165542Y0202398D02*
X0223260Y0202398D01*
X0225658Y0199999D02*
X0165542Y0199999D01*
X0167664Y0197601D02*
X0228057Y0197601D01*
X0230455Y0195202D02*
X0167701Y0195202D01*
X0167701Y0192804D02*
X0232854Y0192804D01*
X0231475Y0190305D02*
X0230603Y0190666D01*
X0229692Y0190910D01*
X0228756Y0191033D01*
X0228284Y0191033D01*
X0228284Y0183833D01*
X0228284Y0176633D01*
X0228756Y0176633D01*
X0229692Y0176757D01*
X0230603Y0177001D01*
X0231475Y0177362D01*
X0232293Y0177834D01*
X0233041Y0178408D01*
X0233709Y0179076D01*
X0234283Y0179825D01*
X0234755Y0180642D01*
X0235116Y0181514D01*
X0235361Y0182426D01*
X0235484Y0183361D01*
X0235484Y0183833D01*
X0228284Y0183833D01*
X0228284Y0183833D01*
X0228284Y0176633D01*
X0227812Y0176633D01*
X0226876Y0176757D01*
X0225965Y0177001D01*
X0225093Y0177362D01*
X0224275Y0177834D01*
X0223526Y0178408D01*
X0222859Y0179076D01*
X0222285Y0179825D01*
X0221813Y0180642D01*
X0221451Y0181514D01*
X0221207Y0182426D01*
X0221084Y0183361D01*
X0221084Y0183833D01*
X0228284Y0183833D01*
X0228284Y0183833D01*
X0228284Y0183833D01*
X0235484Y0183833D01*
X0235484Y0184305D01*
X0235361Y0185241D01*
X0235116Y0186153D01*
X0234755Y0187025D01*
X0234283Y0187842D01*
X0233709Y0188591D01*
X0233041Y0189258D01*
X0232293Y0189833D01*
X0231475Y0190305D01*
X0231233Y0190405D02*
X0235252Y0190405D01*
X0234157Y0188007D02*
X0237651Y0188007D01*
X0235262Y0185608D02*
X0240049Y0185608D01*
X0242448Y0183210D02*
X0235464Y0183210D01*
X0234825Y0180811D02*
X0244846Y0180811D01*
X0247245Y0178412D02*
X0233045Y0178412D01*
X0228284Y0178412D02*
X0228284Y0178412D01*
X0228284Y0180811D02*
X0228284Y0180811D01*
X0228284Y0183210D02*
X0228284Y0183210D01*
X0228284Y0183833D02*
X0221084Y0183833D01*
X0221084Y0184305D01*
X0221207Y0185241D01*
X0221451Y0186153D01*
X0221813Y0187025D01*
X0222285Y0187842D01*
X0222859Y0188591D01*
X0223526Y0189258D01*
X0224275Y0189833D01*
X0225093Y0190305D01*
X0225965Y0190666D01*
X0226876Y0190910D01*
X0227812Y0191033D01*
X0228284Y0191033D01*
X0228284Y0183833D01*
X0228284Y0183833D01*
X0228284Y0185608D02*
X0228284Y0185608D01*
X0228284Y0188007D02*
X0228284Y0188007D01*
X0228284Y0190405D02*
X0228284Y0190405D01*
X0225335Y0190405D02*
X0174233Y0190405D01*
X0171284Y0190405D02*
X0171284Y0190405D01*
X0171284Y0188007D02*
X0171284Y0188007D01*
X0171284Y0185608D02*
X0171284Y0185608D01*
X0171284Y0183833D02*
X0171284Y0183833D01*
X0171284Y0183210D02*
X0171284Y0183210D01*
X0171284Y0180811D02*
X0171284Y0180811D01*
X0171284Y0178412D02*
X0171284Y0178412D01*
X0176045Y0178412D02*
X0223522Y0178412D01*
X0221743Y0180811D02*
X0177825Y0180811D01*
X0178464Y0183210D02*
X0221104Y0183210D01*
X0221305Y0185608D02*
X0178262Y0185608D01*
X0177157Y0188007D02*
X0222411Y0188007D01*
X0243565Y0204796D02*
X0286812Y0204796D01*
X0286812Y0202398D02*
X0245982Y0202398D01*
X0248399Y0199999D02*
X0286812Y0199999D01*
X0286812Y0197601D02*
X0250815Y0197601D01*
X0253232Y0195202D02*
X0286812Y0195202D01*
X0286812Y0192804D02*
X0255649Y0192804D01*
X0258065Y0190405D02*
X0286812Y0190405D01*
X0286812Y0188007D02*
X0284235Y0188007D01*
X0284334Y0187940D02*
X0283679Y0188378D01*
X0282951Y0188680D01*
X0282178Y0188833D01*
X0281784Y0188833D01*
X0281784Y0184833D01*
X0281784Y0180833D01*
X0282178Y0180833D01*
X0282951Y0180987D01*
X0283679Y0181289D01*
X0284334Y0181726D01*
X0284891Y0182283D01*
X0285329Y0182939D01*
X0285630Y0183667D01*
X0285784Y0184439D01*
X0285784Y0184833D01*
X0281784Y0184833D01*
X0281784Y0184833D01*
X0281784Y0180833D01*
X0281390Y0180833D01*
X0280617Y0180987D01*
X0279889Y0181289D01*
X0279234Y0181726D01*
X0278677Y0182283D01*
X0278239Y0182939D01*
X0277938Y0183667D01*
X0277784Y0184439D01*
X0277784Y0184833D01*
X0281784Y0184833D01*
X0281784Y0184833D01*
X0281784Y0184833D01*
X0285784Y0184833D01*
X0285784Y0185227D01*
X0285630Y0186000D01*
X0285329Y0186728D01*
X0284891Y0187383D01*
X0284334Y0187940D01*
X0281784Y0188007D02*
X0281784Y0188007D01*
X0281784Y0188833D02*
X0281784Y0184833D01*
X0277784Y0184833D01*
X0277784Y0185227D01*
X0277938Y0186000D01*
X0278239Y0186728D01*
X0278677Y0187383D01*
X0279234Y0187940D01*
X0279889Y0188378D01*
X0280617Y0188680D01*
X0281390Y0188833D01*
X0281784Y0188833D01*
X0279333Y0188007D02*
X0260482Y0188007D01*
X0262899Y0185608D02*
X0277860Y0185608D01*
X0278127Y0183210D02*
X0265315Y0183210D01*
X0267732Y0180811D02*
X0286812Y0180811D01*
X0286812Y0183210D02*
X0285441Y0183210D01*
X0285708Y0185608D02*
X0286812Y0185608D01*
X0281784Y0185608D02*
X0281784Y0185608D01*
X0281784Y0184833D02*
X0281784Y0184833D01*
X0281784Y0183210D02*
X0281784Y0183210D01*
X0286812Y0178412D02*
X0270149Y0178412D01*
X0272565Y0176014D02*
X0286812Y0176014D01*
X0286812Y0173615D02*
X0273084Y0173615D01*
X0273084Y0171217D02*
X0286812Y0171217D01*
X0286812Y0168818D02*
X0273084Y0168818D01*
X0273084Y0166420D02*
X0286812Y0166420D01*
X0286812Y0164021D02*
X0273084Y0164021D01*
X0273084Y0161623D02*
X0286812Y0161623D01*
X0286812Y0159224D02*
X0273084Y0159224D01*
X0273084Y0156826D02*
X0286812Y0156826D01*
X0286812Y0154427D02*
X0285196Y0154427D01*
X0285329Y0154228D02*
X0284891Y0154883D01*
X0284334Y0155440D01*
X0283679Y0155878D01*
X0282951Y0156180D01*
X0282178Y0156333D01*
X0281784Y0156333D01*
X0281784Y0152333D01*
X0281784Y0148333D01*
X0282178Y0148333D01*
X0282951Y0148487D01*
X0283679Y0148789D01*
X0284334Y0149226D01*
X0284891Y0149783D01*
X0285329Y0150439D01*
X0285630Y0151167D01*
X0285784Y0151939D01*
X0285784Y0152333D01*
X0281784Y0152333D01*
X0281784Y0152333D01*
X0281784Y0148333D01*
X0281390Y0148333D01*
X0280617Y0148487D01*
X0279889Y0148789D01*
X0279234Y0149226D01*
X0278677Y0149783D01*
X0278239Y0150439D01*
X0277938Y0151167D01*
X0277784Y0151939D01*
X0277784Y0152333D01*
X0281784Y0152333D01*
X0281784Y0152333D01*
X0281784Y0152333D01*
X0285784Y0152333D01*
X0285784Y0152727D01*
X0285630Y0153500D01*
X0285329Y0154228D01*
X0285784Y0152029D02*
X0286812Y0152029D01*
X0286812Y0149630D02*
X0284738Y0149630D01*
X0281784Y0149630D02*
X0281784Y0149630D01*
X0281784Y0152029D02*
X0281784Y0152029D01*
X0281784Y0152333D02*
X0277784Y0152333D01*
X0277784Y0152727D01*
X0277938Y0153500D01*
X0278239Y0154228D01*
X0278677Y0154883D01*
X0279234Y0155440D01*
X0279889Y0155878D01*
X0280617Y0156180D01*
X0281390Y0156333D01*
X0281784Y0156333D01*
X0281784Y0152333D01*
X0281784Y0152333D01*
X0281784Y0154427D02*
X0281784Y0154427D01*
X0278372Y0154427D02*
X0272338Y0154427D01*
X0267308Y0152029D02*
X0277784Y0152029D01*
X0278830Y0149630D02*
X0217238Y0149630D01*
X0214284Y0149630D02*
X0214284Y0149630D01*
X0214284Y0152029D02*
X0214284Y0152029D01*
X0214284Y0152333D02*
X0210284Y0152333D01*
X0210284Y0152727D01*
X0210438Y0153500D01*
X0210739Y0154228D01*
X0211177Y0154883D01*
X0211734Y0155440D01*
X0212389Y0155878D01*
X0213117Y0156180D01*
X0213890Y0156333D01*
X0214284Y0156333D01*
X0214284Y0152333D01*
X0214284Y0152333D01*
X0214284Y0154427D02*
X0214284Y0154427D01*
X0210872Y0154427D02*
X0182696Y0154427D01*
X0182829Y0154228D02*
X0182391Y0154883D01*
X0181834Y0155440D01*
X0181179Y0155878D01*
X0180451Y0156180D01*
X0179678Y0156333D01*
X0179284Y0156333D01*
X0179284Y0152333D01*
X0179284Y0148333D01*
X0179678Y0148333D01*
X0180451Y0148487D01*
X0181179Y0148789D01*
X0181834Y0149226D01*
X0182391Y0149783D01*
X0182829Y0150439D01*
X0183130Y0151167D01*
X0183284Y0151939D01*
X0183284Y0152333D01*
X0179284Y0152333D01*
X0179284Y0152333D01*
X0179284Y0148333D01*
X0178890Y0148333D01*
X0178117Y0148487D01*
X0177389Y0148789D01*
X0176734Y0149226D01*
X0176177Y0149783D01*
X0175739Y0150439D01*
X0175438Y0151167D01*
X0175284Y0151939D01*
X0175284Y0152333D01*
X0179284Y0152333D01*
X0179284Y0152333D01*
X0179284Y0152333D01*
X0183284Y0152333D01*
X0183284Y0152727D01*
X0183130Y0153500D01*
X0182829Y0154228D01*
X0183284Y0152029D02*
X0210284Y0152029D01*
X0211330Y0149630D02*
X0182238Y0149630D01*
X0179284Y0149630D02*
X0179284Y0149630D01*
X0179284Y0152029D02*
X0179284Y0152029D01*
X0179284Y0152333D02*
X0175284Y0152333D01*
X0175284Y0152727D01*
X0175438Y0153500D01*
X0175739Y0154228D01*
X0176177Y0154883D01*
X0176734Y0155440D01*
X0177389Y0155878D01*
X0178117Y0156180D01*
X0178890Y0156333D01*
X0179284Y0156333D01*
X0179284Y0152333D01*
X0179284Y0152333D01*
X0179284Y0154427D02*
X0179284Y0154427D01*
X0175872Y0154427D02*
X0152696Y0154427D01*
X0153284Y0152029D02*
X0175284Y0152029D01*
X0176330Y0149630D02*
X0152238Y0149630D01*
X0149284Y0149630D02*
X0149284Y0149630D01*
X0149284Y0152029D02*
X0149284Y0152029D01*
X0149284Y0154427D02*
X0149284Y0154427D01*
X0149284Y0176014D02*
X0149284Y0176014D01*
X0149284Y0178412D02*
X0149284Y0178412D01*
X0153148Y0178412D02*
X0166522Y0178412D01*
X0167701Y0190405D02*
X0168335Y0190405D01*
X0158583Y0190405D02*
X0156353Y0190405D01*
X0156179Y0190289D02*
X0156834Y0190726D01*
X0157391Y0191283D01*
X0157829Y0191939D01*
X0158130Y0192667D01*
X0158284Y0193439D01*
X0158284Y0193833D01*
X0154284Y0193833D01*
X0154284Y0189833D01*
X0154678Y0189833D01*
X0155451Y0189987D01*
X0156179Y0190289D01*
X0154284Y0190405D02*
X0154284Y0190405D01*
X0154284Y0189833D02*
X0154284Y0193833D01*
X0154284Y0193833D01*
X0154284Y0193833D01*
X0150284Y0193833D01*
X0150284Y0193439D01*
X0150438Y0192667D01*
X0150739Y0191939D01*
X0151177Y0191283D01*
X0151734Y0190726D01*
X0152389Y0190289D01*
X0153117Y0189987D01*
X0153890Y0189833D01*
X0154284Y0189833D01*
X0152215Y0190405D02*
X0150185Y0190405D01*
X0150185Y0192804D02*
X0150410Y0192804D01*
X0150185Y0193763D02*
X0150185Y0197025D01*
X0150035Y0197584D01*
X0149745Y0198086D01*
X0149336Y0198495D01*
X0148834Y0198785D01*
X0148274Y0198935D01*
X0145505Y0198935D01*
X0145505Y0193763D01*
X0150185Y0193763D01*
X0150284Y0193833D02*
X0154284Y0193833D01*
X0154284Y0193833D01*
X0158284Y0193833D01*
X0158284Y0194227D01*
X0158130Y0195000D01*
X0157829Y0195728D01*
X0157391Y0196383D01*
X0156834Y0196940D01*
X0156179Y0197378D01*
X0155451Y0197680D01*
X0154678Y0197833D01*
X0154284Y0197833D01*
X0154284Y0193833D01*
X0154284Y0193833D01*
X0154284Y0197833D01*
X0153890Y0197833D01*
X0153117Y0197680D01*
X0152389Y0197378D01*
X0151734Y0196940D01*
X0151177Y0196383D01*
X0150739Y0195728D01*
X0150438Y0195000D01*
X0150284Y0194227D01*
X0150284Y0193833D01*
X0150185Y0195202D02*
X0150521Y0195202D01*
X0150025Y0197601D02*
X0152926Y0197601D01*
X0154284Y0197601D02*
X0154284Y0197601D01*
X0155641Y0197601D02*
X0158620Y0197601D01*
X0158583Y0195202D02*
X0158047Y0195202D01*
X0158157Y0192804D02*
X0158583Y0192804D01*
X0154284Y0192804D02*
X0154284Y0192804D01*
X0154284Y0195202D02*
X0154284Y0195202D01*
X0145505Y0195202D02*
X0145346Y0195202D01*
X0145346Y0192804D02*
X0145505Y0192804D01*
X0145505Y0190405D02*
X0145346Y0190405D01*
X0145346Y0197601D02*
X0145505Y0197601D01*
X0160742Y0204796D02*
X0127399Y0204796D01*
X0128284Y0207195D02*
X0160742Y0207195D01*
X0160742Y0209593D02*
X0127585Y0209593D01*
X0124284Y0209593D02*
X0124284Y0209593D01*
X0124284Y0207195D02*
X0124284Y0207195D01*
X0124284Y0204796D02*
X0124284Y0204796D01*
X0124284Y0178412D02*
X0124284Y0178412D01*
X0124284Y0176014D02*
X0124284Y0176014D01*
X0128067Y0176014D02*
X0145501Y0176014D01*
X0145420Y0178412D02*
X0128148Y0178412D01*
X0153067Y0176014D02*
X0249644Y0176014D01*
X0241149Y0207195D02*
X0286812Y0207195D01*
X0286812Y0209593D02*
X0238732Y0209593D01*
X0236315Y0211992D02*
X0286812Y0211992D01*
X0286812Y0214390D02*
X0284998Y0214390D01*
X0284834Y0214226D02*
X0285391Y0214783D01*
X0285829Y0215439D01*
X0286130Y0216167D01*
X0286284Y0216939D01*
X0286284Y0217333D01*
X0282284Y0217333D01*
X0282284Y0213333D01*
X0282678Y0213333D01*
X0283451Y0213487D01*
X0284179Y0213789D01*
X0284834Y0214226D01*
X0282284Y0214390D02*
X0282284Y0214390D01*
X0282284Y0213333D02*
X0282284Y0217333D01*
X0282284Y0217333D01*
X0282284Y0217333D01*
X0278284Y0217333D01*
X0278284Y0216939D01*
X0278438Y0216167D01*
X0278739Y0215439D01*
X0279177Y0214783D01*
X0279734Y0214226D01*
X0280389Y0213789D01*
X0281117Y0213487D01*
X0281890Y0213333D01*
X0282284Y0213333D01*
X0279570Y0214390D02*
X0233898Y0214390D01*
X0231482Y0216789D02*
X0278314Y0216789D01*
X0278284Y0217333D02*
X0282284Y0217333D01*
X0282284Y0217333D01*
X0286284Y0217333D01*
X0286284Y0217727D01*
X0286130Y0218500D01*
X0285829Y0219228D01*
X0285391Y0219883D01*
X0284834Y0220440D01*
X0284179Y0220878D01*
X0283451Y0221180D01*
X0282678Y0221333D01*
X0282284Y0221333D01*
X0282284Y0217333D01*
X0282284Y0217333D01*
X0282284Y0221333D01*
X0281890Y0221333D01*
X0281117Y0221180D01*
X0280389Y0220878D01*
X0279734Y0220440D01*
X0279177Y0219883D01*
X0278739Y0219228D01*
X0278438Y0218500D01*
X0278284Y0217727D01*
X0278284Y0217333D01*
X0278722Y0219187D02*
X0229065Y0219187D01*
X0226648Y0221586D02*
X0253572Y0221586D01*
X0251173Y0223984D02*
X0224232Y0223984D01*
X0221815Y0226383D02*
X0250484Y0226383D01*
X0250484Y0228781D02*
X0219398Y0228781D01*
X0216982Y0231180D02*
X0250484Y0231180D01*
X0250484Y0233578D02*
X0214565Y0233578D01*
X0212148Y0235977D02*
X0250727Y0235977D01*
X0252866Y0238375D02*
X0209732Y0238375D01*
X0211136Y0239626D02*
X0211982Y0239137D01*
X0212884Y0238764D01*
X0213827Y0238511D01*
X0214734Y0238391D01*
X0214734Y0245283D01*
X0215834Y0245283D01*
X0215834Y0238391D01*
X0216740Y0238511D01*
X0217684Y0238764D01*
X0218586Y0239137D01*
X0219432Y0239626D01*
X0220207Y0240220D01*
X0220897Y0240911D01*
X0221492Y0241685D01*
X0221980Y0242531D01*
X0222354Y0243433D01*
X0222606Y0244377D01*
X0222726Y0245283D01*
X0215834Y0245283D01*
X0215834Y0246383D01*
X0222726Y0246383D01*
X0222606Y0247290D01*
X0222354Y0248233D01*
X0221980Y0249135D01*
X0221492Y0249981D01*
X0220897Y0250756D01*
X0220207Y0251447D01*
X0219432Y0252041D01*
X0218586Y0252529D01*
X0217684Y0252903D01*
X0216740Y0253156D01*
X0215834Y0253275D01*
X0215834Y0246383D01*
X0214734Y0246383D01*
X0214734Y0245283D01*
X0207842Y0245283D01*
X0207961Y0244377D01*
X0208214Y0243433D01*
X0208588Y0242531D01*
X0209076Y0241685D01*
X0209671Y0240911D01*
X0210361Y0240220D01*
X0211136Y0239626D01*
X0209808Y0240774D02*
X0207315Y0240774D01*
X0206584Y0243172D02*
X0208322Y0243172D01*
X0206584Y0245571D02*
X0214734Y0245571D01*
X0214734Y0246383D02*
X0207842Y0246383D01*
X0207961Y0247290D01*
X0208214Y0248233D01*
X0208588Y0249135D01*
X0209076Y0249981D01*
X0209671Y0250756D01*
X0210361Y0251447D01*
X0211136Y0252041D01*
X0211982Y0252529D01*
X0212884Y0252903D01*
X0213827Y0253156D01*
X0214734Y0253275D01*
X0214734Y0246383D01*
X0215834Y0245571D02*
X0275062Y0245571D01*
X0277460Y0247969D02*
X0252092Y0247969D01*
X0253997Y0250368D02*
X0258290Y0250368D01*
X0255891Y0252766D02*
X0255252Y0252766D01*
X0250580Y0255165D02*
X0206584Y0255165D01*
X0206584Y0252766D02*
X0212554Y0252766D01*
X0214734Y0252766D02*
X0215834Y0252766D01*
X0218014Y0252766D02*
X0246764Y0252766D01*
X0246571Y0250368D02*
X0221195Y0250368D01*
X0222424Y0247969D02*
X0248476Y0247969D01*
X0255265Y0240774D02*
X0220760Y0240774D01*
X0222246Y0243172D02*
X0272663Y0243172D01*
X0272278Y0250368D02*
X0279859Y0250368D01*
X0280805Y0252766D02*
X0282257Y0252766D01*
X0281645Y0255165D02*
X0284656Y0255165D01*
X0281645Y0257563D02*
X0287984Y0257563D01*
X0287647Y0259962D02*
X0286897Y0259962D01*
X0286897Y0262360D02*
X0287647Y0262360D01*
X0287647Y0264759D02*
X0286897Y0264759D01*
X0286897Y0267157D02*
X0281645Y0267157D01*
X0281645Y0264759D02*
X0281923Y0264759D01*
X0281923Y0262360D02*
X0281645Y0262360D01*
X0282568Y0259962D02*
X0276671Y0259962D01*
X0276671Y0260208D02*
X0275921Y0260208D01*
X0275921Y0271958D01*
X0276671Y0271958D01*
X0276671Y0264818D01*
X0276671Y0260208D01*
X0276671Y0262360D02*
X0275921Y0262360D01*
X0275921Y0264759D02*
X0276671Y0264759D01*
X0276671Y0267157D02*
X0275921Y0267157D01*
X0275921Y0269556D02*
X0276671Y0269556D01*
X0276671Y0271954D02*
X0275921Y0271954D01*
X0275921Y0274353D02*
X0276671Y0274353D01*
X0276671Y0276751D02*
X0275921Y0276751D01*
X0275921Y0279150D02*
X0276671Y0279150D01*
X0274584Y0281548D02*
X0290049Y0281548D01*
X0289984Y0279150D02*
X0281055Y0279150D01*
X0281645Y0276751D02*
X0289984Y0276751D01*
X0289984Y0274353D02*
X0281645Y0274353D01*
X0281645Y0271954D02*
X0281923Y0271954D01*
X0281923Y0269556D02*
X0281645Y0269556D01*
X0286897Y0269556D02*
X0287647Y0269556D01*
X0287647Y0271954D02*
X0286897Y0271954D01*
X0282179Y0283789D02*
X0281451Y0283487D01*
X0280678Y0283333D01*
X0280284Y0283333D01*
X0280284Y0287333D01*
X0280284Y0287333D01*
X0280284Y0283333D01*
X0279890Y0283333D01*
X0279117Y0283487D01*
X0278389Y0283789D01*
X0277734Y0284226D01*
X0277177Y0284783D01*
X0276739Y0285439D01*
X0276438Y0286167D01*
X0276284Y0286939D01*
X0276284Y0287333D01*
X0280284Y0287333D01*
X0280284Y0287333D01*
X0284284Y0287333D01*
X0284284Y0286939D01*
X0284130Y0286167D01*
X0283829Y0285439D01*
X0283391Y0284783D01*
X0282834Y0284226D01*
X0282179Y0283789D01*
X0282416Y0283947D02*
X0291938Y0283947D01*
X0292984Y0286345D02*
X0284166Y0286345D01*
X0284284Y0287333D02*
X0284284Y0287727D01*
X0284130Y0288500D01*
X0283829Y0289228D01*
X0283391Y0289883D01*
X0282834Y0290440D01*
X0282246Y0290833D01*
X0282834Y0291226D01*
X0283391Y0291783D01*
X0283829Y0292439D01*
X0284130Y0293167D01*
X0284284Y0293939D01*
X0284284Y0294333D01*
X0280284Y0294333D01*
X0280284Y0290333D01*
X0280284Y0287333D01*
X0280284Y0287333D01*
X0284284Y0287333D01*
X0284029Y0288744D02*
X0292984Y0288744D01*
X0292984Y0291143D02*
X0282708Y0291143D01*
X0280284Y0291143D02*
X0280284Y0291143D01*
X0278322Y0290833D02*
X0277734Y0290440D01*
X0277177Y0289883D01*
X0276739Y0289228D01*
X0276438Y0288500D01*
X0276284Y0287727D01*
X0276284Y0287333D01*
X0280284Y0287333D01*
X0280284Y0287333D01*
X0280284Y0294333D01*
X0280284Y0294333D01*
X0280284Y0294333D01*
X0276284Y0294333D01*
X0276284Y0293939D01*
X0276438Y0293167D01*
X0276739Y0292439D01*
X0277177Y0291783D01*
X0277734Y0291226D01*
X0278322Y0290833D01*
X0277860Y0291143D02*
X0274584Y0291143D01*
X0274584Y0293541D02*
X0276363Y0293541D01*
X0276284Y0294333D02*
X0280284Y0294333D01*
X0280284Y0294333D01*
X0284284Y0294333D01*
X0284284Y0294727D01*
X0284130Y0295500D01*
X0283829Y0296228D01*
X0283391Y0296883D01*
X0282834Y0297440D01*
X0282179Y0297878D01*
X0281451Y0298180D01*
X0280678Y0298333D01*
X0280284Y0298333D01*
X0280284Y0294333D01*
X0280284Y0294333D01*
X0280284Y0298333D01*
X0279890Y0298333D01*
X0279117Y0298180D01*
X0278389Y0297878D01*
X0277734Y0297440D01*
X0277177Y0296883D01*
X0276739Y0296228D01*
X0276438Y0295500D01*
X0276284Y0294727D01*
X0276284Y0294333D01*
X0276620Y0295940D02*
X0274584Y0295940D01*
X0274584Y0298338D02*
X0292984Y0298338D01*
X0292984Y0295940D02*
X0283948Y0295940D01*
X0284205Y0293541D02*
X0292984Y0293541D01*
X0303084Y0294628D02*
X0303084Y0298098D01*
X0304290Y0299303D01*
X0304239Y0299228D01*
X0303938Y0298500D01*
X0303784Y0297727D01*
X0303784Y0297333D01*
X0303784Y0296939D01*
X0303938Y0296167D01*
X0304239Y0295439D01*
X0304677Y0294783D01*
X0304861Y0294599D01*
X0304755Y0294628D01*
X0303284Y0294628D01*
X0303284Y0288097D01*
X0303284Y0283381D01*
X0303284Y0288097D01*
X0303284Y0288097D01*
X0303284Y0288097D01*
X0303284Y0294628D01*
X0303084Y0294628D01*
X0303284Y0293541D02*
X0303284Y0293541D01*
X0303284Y0291143D02*
X0303284Y0291143D01*
X0303284Y0288744D02*
X0303284Y0288744D01*
X0303284Y0287833D02*
X0303284Y0283333D01*
X0306284Y0280333D01*
X0306284Y0279833D01*
X0306784Y0278333D02*
X0306784Y0273333D01*
X0307284Y0272833D01*
X0306584Y0271954D02*
X0312331Y0271954D01*
X0312331Y0269556D02*
X0306584Y0269556D01*
X0306584Y0267157D02*
X0312331Y0267157D01*
X0314784Y0264759D02*
X0306584Y0264759D01*
X0306584Y0262360D02*
X0314784Y0262360D01*
X0314784Y0259962D02*
X0306584Y0259962D01*
X0306584Y0257563D02*
X0314784Y0257563D01*
X0314784Y0255165D02*
X0306584Y0255165D01*
X0306584Y0252766D02*
X0314784Y0252766D01*
X0314784Y0250368D02*
X0306584Y0250368D01*
X0306457Y0247969D02*
X0314784Y0247969D01*
X0314784Y0245571D02*
X0299973Y0245571D01*
X0300571Y0243172D02*
X0314784Y0243172D01*
X0313560Y0240774D02*
X0300571Y0240774D01*
X0299732Y0238375D02*
X0313775Y0238375D01*
X0320793Y0238375D02*
X0369489Y0238375D01*
X0369489Y0235977D02*
X0285887Y0235977D01*
X0287618Y0233578D02*
X0283489Y0233578D01*
X0281090Y0231180D02*
X0286812Y0231180D01*
X0286812Y0228781D02*
X0278692Y0228781D01*
X0276293Y0226383D02*
X0286812Y0226383D01*
X0286812Y0223984D02*
X0273895Y0223984D01*
X0271496Y0221586D02*
X0286812Y0221586D01*
X0286812Y0219187D02*
X0285846Y0219187D01*
X0286254Y0216789D02*
X0286812Y0216789D01*
X0282284Y0216789D02*
X0282284Y0216789D01*
X0282284Y0219187D02*
X0282284Y0219187D01*
X0300281Y0233578D02*
X0369489Y0233578D01*
X0369489Y0231180D02*
X0301086Y0231180D01*
X0301086Y0228781D02*
X0369489Y0228781D01*
X0369489Y0226383D02*
X0301086Y0226383D01*
X0301086Y0223984D02*
X0369489Y0223984D01*
X0369489Y0221586D02*
X0301086Y0221586D01*
X0301086Y0219187D02*
X0303222Y0219187D01*
X0303239Y0219228D02*
X0302938Y0218500D01*
X0302784Y0217727D01*
X0302784Y0217333D01*
X0302784Y0216939D01*
X0302938Y0216167D01*
X0303239Y0215439D01*
X0303677Y0214783D01*
X0304234Y0214226D01*
X0304889Y0213789D01*
X0305617Y0213487D01*
X0306390Y0213333D01*
X0306784Y0213333D01*
X0307178Y0213333D01*
X0307951Y0213487D01*
X0308679Y0213789D01*
X0309334Y0214226D01*
X0309891Y0214783D01*
X0310329Y0215439D01*
X0310630Y0216167D01*
X0310784Y0216939D01*
X0310784Y0217333D01*
X0306784Y0217333D01*
X0306784Y0213333D01*
X0306784Y0217333D01*
X0306784Y0217333D01*
X0306784Y0217333D01*
X0302784Y0217333D01*
X0306784Y0217333D01*
X0306784Y0217333D01*
X0310784Y0217333D01*
X0310784Y0217727D01*
X0310630Y0218500D01*
X0310329Y0219228D01*
X0309891Y0219883D01*
X0309334Y0220440D01*
X0308679Y0220878D01*
X0307951Y0221180D01*
X0307178Y0221333D01*
X0306784Y0221333D01*
X0306784Y0217333D01*
X0306784Y0217333D01*
X0306784Y0221333D01*
X0306390Y0221333D01*
X0305617Y0221180D01*
X0304889Y0220878D01*
X0304234Y0220440D01*
X0303677Y0219883D01*
X0303239Y0219228D01*
X0302814Y0216789D02*
X0301086Y0216789D01*
X0301086Y0214390D02*
X0304070Y0214390D01*
X0306784Y0214390D02*
X0306784Y0214390D01*
X0306784Y0216789D02*
X0306784Y0216789D01*
X0306784Y0219187D02*
X0306784Y0219187D01*
X0310346Y0219187D02*
X0330722Y0219187D01*
X0330739Y0219228D02*
X0330438Y0218500D01*
X0330284Y0217727D01*
X0330284Y0217333D01*
X0330284Y0216939D01*
X0330438Y0216167D01*
X0330739Y0215439D01*
X0331177Y0214783D01*
X0331734Y0214226D01*
X0332389Y0213789D01*
X0333117Y0213487D01*
X0333890Y0213333D01*
X0334284Y0213333D01*
X0334678Y0213333D01*
X0335451Y0213487D01*
X0336179Y0213789D01*
X0336834Y0214226D01*
X0337391Y0214783D01*
X0337829Y0215439D01*
X0338130Y0216167D01*
X0338284Y0216939D01*
X0338284Y0217333D01*
X0334284Y0217333D01*
X0334284Y0213333D01*
X0334284Y0217333D01*
X0334284Y0217333D01*
X0334284Y0217333D01*
X0330284Y0217333D01*
X0334284Y0217333D01*
X0334284Y0217333D01*
X0338284Y0217333D01*
X0338284Y0217727D01*
X0338130Y0218500D01*
X0337829Y0219228D01*
X0337391Y0219883D01*
X0336834Y0220440D01*
X0336179Y0220878D01*
X0335451Y0221180D01*
X0334678Y0221333D01*
X0334284Y0221333D01*
X0334284Y0217333D01*
X0334284Y0217333D01*
X0334284Y0221333D01*
X0333890Y0221333D01*
X0333117Y0221180D01*
X0332389Y0220878D01*
X0331734Y0220440D01*
X0331177Y0219883D01*
X0330739Y0219228D01*
X0330314Y0216789D02*
X0310754Y0216789D01*
X0309498Y0214390D02*
X0331570Y0214390D01*
X0334284Y0214390D02*
X0334284Y0214390D01*
X0334284Y0216789D02*
X0334284Y0216789D01*
X0334284Y0219187D02*
X0334284Y0219187D01*
X0337846Y0219187D02*
X0360722Y0219187D01*
X0360739Y0219228D02*
X0360438Y0218500D01*
X0360284Y0217727D01*
X0360284Y0217333D01*
X0360284Y0216939D01*
X0360438Y0216167D01*
X0360739Y0215439D01*
X0361177Y0214783D01*
X0361734Y0214226D01*
X0362389Y0213789D01*
X0363117Y0213487D01*
X0363890Y0213333D01*
X0364284Y0213333D01*
X0364678Y0213333D01*
X0365451Y0213487D01*
X0366179Y0213789D01*
X0366834Y0214226D01*
X0367391Y0214783D01*
X0367829Y0215439D01*
X0368130Y0216167D01*
X0368284Y0216939D01*
X0368284Y0217333D01*
X0364284Y0217333D01*
X0364284Y0213333D01*
X0364284Y0217333D01*
X0364284Y0217333D01*
X0364284Y0217333D01*
X0360284Y0217333D01*
X0364284Y0217333D01*
X0364284Y0217333D01*
X0368284Y0217333D01*
X0368284Y0217727D01*
X0368130Y0218500D01*
X0367829Y0219228D01*
X0367391Y0219883D01*
X0366834Y0220440D01*
X0366179Y0220878D01*
X0365451Y0221180D01*
X0364678Y0221333D01*
X0364284Y0221333D01*
X0364284Y0217333D01*
X0364284Y0217333D01*
X0364284Y0221333D01*
X0363890Y0221333D01*
X0363117Y0221180D01*
X0362389Y0220878D01*
X0361734Y0220440D01*
X0361177Y0219883D01*
X0360739Y0219228D01*
X0360314Y0216789D02*
X0338254Y0216789D01*
X0336998Y0214390D02*
X0361570Y0214390D01*
X0364284Y0214390D02*
X0364284Y0214390D01*
X0364284Y0216789D02*
X0364284Y0216789D01*
X0364284Y0219187D02*
X0364284Y0219187D01*
X0367846Y0219187D02*
X0369489Y0219187D01*
X0369489Y0216789D02*
X0368254Y0216789D01*
X0369489Y0214390D02*
X0366998Y0214390D01*
X0369489Y0211992D02*
X0301086Y0211992D01*
X0301086Y0209593D02*
X0369489Y0209593D01*
X0369489Y0207195D02*
X0301086Y0207195D01*
X0301086Y0204796D02*
X0369489Y0204796D01*
X0369489Y0202398D02*
X0301086Y0202398D01*
X0301086Y0199999D02*
X0369489Y0199999D01*
X0369489Y0197601D02*
X0301086Y0197601D01*
X0301086Y0195202D02*
X0369489Y0195202D01*
X0369489Y0192804D02*
X0301086Y0192804D01*
X0301086Y0190405D02*
X0369489Y0190405D01*
X0369489Y0188007D02*
X0366735Y0188007D01*
X0366834Y0187940D02*
X0366179Y0188378D01*
X0365451Y0188680D01*
X0364678Y0188833D01*
X0364284Y0188833D01*
X0364284Y0184833D01*
X0364284Y0180833D01*
X0364678Y0180833D01*
X0365451Y0180987D01*
X0366179Y0181289D01*
X0366834Y0181726D01*
X0367391Y0182283D01*
X0367829Y0182939D01*
X0368130Y0183667D01*
X0368284Y0184439D01*
X0368284Y0184833D01*
X0364284Y0184833D01*
X0364284Y0184833D01*
X0364284Y0180833D01*
X0363890Y0180833D01*
X0363117Y0180987D01*
X0362389Y0181289D01*
X0361734Y0181726D01*
X0361177Y0182283D01*
X0360739Y0182939D01*
X0360438Y0183667D01*
X0360284Y0184439D01*
X0360284Y0184833D01*
X0364284Y0184833D01*
X0364284Y0184833D01*
X0364284Y0184833D01*
X0368284Y0184833D01*
X0368284Y0185227D01*
X0368130Y0186000D01*
X0367829Y0186728D01*
X0367391Y0187383D01*
X0366834Y0187940D01*
X0364284Y0188007D02*
X0364284Y0188007D01*
X0364284Y0188833D02*
X0364284Y0184833D01*
X0360284Y0184833D01*
X0360284Y0185227D01*
X0360438Y0186000D01*
X0360739Y0186728D01*
X0361177Y0187383D01*
X0361734Y0187940D01*
X0362389Y0188378D01*
X0363117Y0188680D01*
X0363890Y0188833D01*
X0364284Y0188833D01*
X0361833Y0188007D02*
X0309235Y0188007D01*
X0309334Y0187940D02*
X0308679Y0188378D01*
X0307951Y0188680D01*
X0307178Y0188833D01*
X0306784Y0188833D01*
X0306784Y0184833D01*
X0306784Y0180833D01*
X0307178Y0180833D01*
X0307951Y0180987D01*
X0308679Y0181289D01*
X0309334Y0181726D01*
X0309891Y0182283D01*
X0310329Y0182939D01*
X0310630Y0183667D01*
X0310784Y0184439D01*
X0310784Y0184833D01*
X0306784Y0184833D01*
X0306784Y0184833D01*
X0306784Y0180833D01*
X0306390Y0180833D01*
X0305617Y0180987D01*
X0304889Y0181289D01*
X0304234Y0181726D01*
X0303677Y0182283D01*
X0303239Y0182939D01*
X0302938Y0183667D01*
X0302784Y0184439D01*
X0302784Y0184833D01*
X0306784Y0184833D01*
X0306784Y0184833D01*
X0306784Y0184833D01*
X0310784Y0184833D01*
X0310784Y0185227D01*
X0310630Y0186000D01*
X0310329Y0186728D01*
X0309891Y0187383D01*
X0309334Y0187940D01*
X0306784Y0188007D02*
X0306784Y0188007D01*
X0306784Y0188833D02*
X0306784Y0184833D01*
X0302784Y0184833D01*
X0302784Y0185227D01*
X0302938Y0186000D01*
X0303239Y0186728D01*
X0303677Y0187383D01*
X0304234Y0187940D01*
X0304889Y0188378D01*
X0305617Y0188680D01*
X0306390Y0188833D01*
X0306784Y0188833D01*
X0304333Y0188007D02*
X0301086Y0188007D01*
X0301086Y0185608D02*
X0302860Y0185608D01*
X0303127Y0183210D02*
X0301086Y0183210D01*
X0301086Y0180811D02*
X0369489Y0180811D01*
X0369489Y0183210D02*
X0367941Y0183210D01*
X0368208Y0185608D02*
X0369489Y0185608D01*
X0364284Y0185608D02*
X0364284Y0185608D01*
X0364284Y0184833D02*
X0364284Y0184833D01*
X0364284Y0183210D02*
X0364284Y0183210D01*
X0360627Y0183210D02*
X0310441Y0183210D01*
X0310708Y0185608D02*
X0360360Y0185608D01*
X0369489Y0178412D02*
X0301086Y0178412D01*
X0301086Y0176014D02*
X0369489Y0176014D01*
X0369489Y0173615D02*
X0301086Y0173615D01*
X0301086Y0171217D02*
X0352585Y0171217D01*
X0349099Y0168818D02*
X0301086Y0168818D01*
X0301086Y0166420D02*
X0347232Y0166420D01*
X0345953Y0164021D02*
X0301086Y0164021D01*
X0301086Y0161623D02*
X0345130Y0161623D01*
X0344899Y0159224D02*
X0301086Y0159224D01*
X0301086Y0156826D02*
X0344899Y0156826D01*
X0345533Y0154427D02*
X0337696Y0154427D01*
X0337829Y0154228D02*
X0337391Y0154883D01*
X0336834Y0155440D01*
X0336179Y0155878D01*
X0335451Y0156180D01*
X0334678Y0156333D01*
X0334284Y0156333D01*
X0334284Y0152333D01*
X0334284Y0148333D01*
X0334678Y0148333D01*
X0335451Y0148487D01*
X0336179Y0148789D01*
X0336834Y0149226D01*
X0337391Y0149783D01*
X0337829Y0150439D01*
X0338130Y0151167D01*
X0338284Y0151939D01*
X0338284Y0152333D01*
X0334284Y0152333D01*
X0334284Y0152333D01*
X0334284Y0148333D01*
X0333890Y0148333D01*
X0333117Y0148487D01*
X0332389Y0148789D01*
X0331734Y0149226D01*
X0331177Y0149783D01*
X0330739Y0150439D01*
X0330438Y0151167D01*
X0330284Y0151939D01*
X0330284Y0152333D01*
X0334284Y0152333D01*
X0334284Y0152333D01*
X0334284Y0152333D01*
X0338284Y0152333D01*
X0338284Y0152727D01*
X0338130Y0153500D01*
X0337829Y0154228D01*
X0338284Y0152029D02*
X0346357Y0152029D01*
X0348147Y0149630D02*
X0337238Y0149630D01*
X0334284Y0149630D02*
X0334284Y0149630D01*
X0334284Y0152029D02*
X0334284Y0152029D01*
X0334284Y0152333D02*
X0330284Y0152333D01*
X0330284Y0152727D01*
X0330438Y0153500D01*
X0330739Y0154228D01*
X0331177Y0154883D01*
X0331734Y0155440D01*
X0332389Y0155878D01*
X0333117Y0156180D01*
X0333890Y0156333D01*
X0334284Y0156333D01*
X0334284Y0152333D01*
X0334284Y0152333D01*
X0334284Y0154427D02*
X0334284Y0154427D01*
X0330872Y0154427D02*
X0310196Y0154427D01*
X0310329Y0154228D02*
X0309891Y0154883D01*
X0309334Y0155440D01*
X0308679Y0155878D01*
X0307951Y0156180D01*
X0307178Y0156333D01*
X0306784Y0156333D01*
X0306784Y0152333D01*
X0306784Y0148333D01*
X0307178Y0148333D01*
X0307951Y0148487D01*
X0308679Y0148789D01*
X0309334Y0149226D01*
X0309891Y0149783D01*
X0310329Y0150439D01*
X0310630Y0151167D01*
X0310784Y0151939D01*
X0310784Y0152333D01*
X0306784Y0152333D01*
X0306784Y0152333D01*
X0306784Y0148333D01*
X0306390Y0148333D01*
X0305617Y0148487D01*
X0304889Y0148789D01*
X0304234Y0149226D01*
X0303677Y0149783D01*
X0303239Y0150439D01*
X0302938Y0151167D01*
X0302784Y0151939D01*
X0302784Y0152333D01*
X0306784Y0152333D01*
X0306784Y0152333D01*
X0306784Y0152333D01*
X0310784Y0152333D01*
X0310784Y0152727D01*
X0310630Y0153500D01*
X0310329Y0154228D01*
X0310784Y0152029D02*
X0330284Y0152029D01*
X0331330Y0149630D02*
X0309738Y0149630D01*
X0306784Y0149630D02*
X0306784Y0149630D01*
X0306784Y0152029D02*
X0306784Y0152029D01*
X0306784Y0152333D02*
X0302784Y0152333D01*
X0302784Y0152727D01*
X0302938Y0153500D01*
X0303239Y0154228D01*
X0303677Y0154883D01*
X0304234Y0155440D01*
X0304889Y0155878D01*
X0305617Y0156180D01*
X0306390Y0156333D01*
X0306784Y0156333D01*
X0306784Y0152333D01*
X0306784Y0152333D01*
X0306784Y0154427D02*
X0306784Y0154427D01*
X0303372Y0154427D02*
X0301086Y0154427D01*
X0301086Y0152029D02*
X0302784Y0152029D01*
X0303830Y0149630D02*
X0301086Y0149630D01*
X0306784Y0183210D02*
X0306784Y0183210D01*
X0306784Y0184833D02*
X0306784Y0184833D01*
X0306784Y0185608D02*
X0306784Y0185608D01*
X0365055Y0171217D02*
X0369489Y0171217D01*
X0369489Y0168818D02*
X0368511Y0168818D01*
X0369489Y0240774D02*
X0321007Y0240774D01*
X0319784Y0243172D02*
X0369489Y0243172D01*
X0369489Y0245571D02*
X0319784Y0245571D01*
X0319784Y0247969D02*
X0330726Y0247969D01*
X0330739Y0247939D02*
X0331177Y0247283D01*
X0331734Y0246726D01*
X0332389Y0246289D01*
X0333117Y0245987D01*
X0333890Y0245833D01*
X0334284Y0245833D01*
X0334678Y0245833D01*
X0335451Y0245987D01*
X0336179Y0246289D01*
X0336834Y0246726D01*
X0337391Y0247283D01*
X0337829Y0247939D01*
X0338130Y0248667D01*
X0338284Y0249439D01*
X0338284Y0249833D01*
X0334284Y0249833D01*
X0334284Y0245833D01*
X0334284Y0249833D01*
X0334284Y0249833D01*
X0334284Y0249833D01*
X0330284Y0249833D01*
X0330284Y0249439D01*
X0330438Y0248667D01*
X0330739Y0247939D01*
X0330284Y0249833D02*
X0334284Y0249833D01*
X0334284Y0249833D01*
X0338284Y0249833D01*
X0338284Y0250227D01*
X0338130Y0251000D01*
X0337829Y0251728D01*
X0337391Y0252383D01*
X0336834Y0252940D01*
X0336179Y0253378D01*
X0335451Y0253680D01*
X0334678Y0253833D01*
X0334284Y0253833D01*
X0334284Y0249833D01*
X0334284Y0249833D01*
X0334284Y0253833D01*
X0333890Y0253833D01*
X0333117Y0253680D01*
X0332389Y0253378D01*
X0331734Y0252940D01*
X0331177Y0252383D01*
X0330739Y0251728D01*
X0330438Y0251000D01*
X0330284Y0250227D01*
X0330284Y0249833D01*
X0330312Y0250368D02*
X0319784Y0250368D01*
X0319784Y0252766D02*
X0331560Y0252766D01*
X0334284Y0252766D02*
X0334284Y0252766D01*
X0334284Y0250368D02*
X0334284Y0250368D01*
X0334284Y0247969D02*
X0334284Y0247969D01*
X0337841Y0247969D02*
X0360726Y0247969D01*
X0360739Y0247939D02*
X0361177Y0247283D01*
X0361734Y0246726D01*
X0362389Y0246289D01*
X0363117Y0245987D01*
X0363890Y0245833D01*
X0364284Y0245833D01*
X0364678Y0245833D01*
X0365451Y0245987D01*
X0366179Y0246289D01*
X0366834Y0246726D01*
X0367391Y0247283D01*
X0367829Y0247939D01*
X0368130Y0248667D01*
X0368284Y0249439D01*
X0368284Y0249833D01*
X0364284Y0249833D01*
X0364284Y0245833D01*
X0364284Y0249833D01*
X0364284Y0249833D01*
X0364284Y0249833D01*
X0360284Y0249833D01*
X0360284Y0249439D01*
X0360438Y0248667D01*
X0360739Y0247939D01*
X0360284Y0249833D02*
X0364284Y0249833D01*
X0364284Y0249833D01*
X0368284Y0249833D01*
X0368284Y0250227D01*
X0368130Y0251000D01*
X0367829Y0251728D01*
X0367391Y0252383D01*
X0366834Y0252940D01*
X0366179Y0253378D01*
X0365451Y0253680D01*
X0364678Y0253833D01*
X0364284Y0253833D01*
X0364284Y0249833D01*
X0364284Y0249833D01*
X0364284Y0253833D01*
X0363890Y0253833D01*
X0363117Y0253680D01*
X0362389Y0253378D01*
X0361734Y0252940D01*
X0361177Y0252383D01*
X0360739Y0251728D01*
X0360438Y0251000D01*
X0360284Y0250227D01*
X0360284Y0249833D01*
X0360312Y0250368D02*
X0338256Y0250368D01*
X0337008Y0252766D02*
X0361560Y0252766D01*
X0364284Y0252766D02*
X0364284Y0252766D01*
X0364284Y0250368D02*
X0364284Y0250368D01*
X0364284Y0247969D02*
X0364284Y0247969D01*
X0367841Y0247969D02*
X0369489Y0247969D01*
X0369489Y0250368D02*
X0368256Y0250368D01*
X0369489Y0252766D02*
X0367008Y0252766D01*
X0369489Y0255165D02*
X0319784Y0255165D01*
X0319784Y0257563D02*
X0369489Y0257563D01*
X0369489Y0259962D02*
X0319784Y0259962D01*
X0319784Y0262360D02*
X0369489Y0262360D01*
X0369489Y0264759D02*
X0319784Y0264759D01*
X0322237Y0267157D02*
X0369489Y0267157D01*
X0369489Y0269556D02*
X0322237Y0269556D01*
X0322237Y0271954D02*
X0369489Y0271954D01*
X0369489Y0274353D02*
X0322237Y0274353D01*
X0322237Y0276751D02*
X0369489Y0276751D01*
X0369489Y0279150D02*
X0366720Y0279150D01*
X0366834Y0279226D02*
X0367391Y0279783D01*
X0367829Y0280439D01*
X0368130Y0281167D01*
X0368284Y0281939D01*
X0368284Y0282333D01*
X0364284Y0282333D01*
X0364284Y0278333D01*
X0364678Y0278333D01*
X0365451Y0278487D01*
X0366179Y0278789D01*
X0366834Y0279226D01*
X0364284Y0279150D02*
X0364284Y0279150D01*
X0364284Y0278333D02*
X0364284Y0282333D01*
X0364284Y0282333D01*
X0364284Y0282333D01*
X0360284Y0282333D01*
X0360284Y0281939D01*
X0360438Y0281167D01*
X0360739Y0280439D01*
X0361177Y0279783D01*
X0361734Y0279226D01*
X0362389Y0278789D01*
X0363117Y0278487D01*
X0363890Y0278333D01*
X0364284Y0278333D01*
X0361848Y0279150D02*
X0336720Y0279150D01*
X0336834Y0279226D02*
X0337391Y0279783D01*
X0337829Y0280439D01*
X0338130Y0281167D01*
X0338284Y0281939D01*
X0338284Y0282333D01*
X0334284Y0282333D01*
X0334284Y0278333D01*
X0334678Y0278333D01*
X0335451Y0278487D01*
X0336179Y0278789D01*
X0336834Y0279226D01*
X0334284Y0279150D02*
X0334284Y0279150D01*
X0334284Y0278333D02*
X0334284Y0282333D01*
X0334284Y0282333D01*
X0334284Y0282333D01*
X0330284Y0282333D01*
X0330284Y0281939D01*
X0330438Y0281167D01*
X0330739Y0280439D01*
X0331177Y0279783D01*
X0331734Y0279226D01*
X0332389Y0278789D01*
X0333117Y0278487D01*
X0333890Y0278333D01*
X0334284Y0278333D01*
X0331848Y0279150D02*
X0322237Y0279150D01*
X0321649Y0281548D02*
X0330362Y0281548D01*
X0330284Y0282333D02*
X0334284Y0282333D01*
X0334284Y0282333D01*
X0338284Y0282333D01*
X0338284Y0282727D01*
X0338130Y0283500D01*
X0337829Y0284228D01*
X0337391Y0284883D01*
X0336834Y0285440D01*
X0336179Y0285878D01*
X0335451Y0286180D01*
X0334678Y0286333D01*
X0334284Y0286333D01*
X0334284Y0282333D01*
X0334284Y0282333D01*
X0334284Y0286333D01*
X0333890Y0286333D01*
X0333117Y0286180D01*
X0332389Y0285878D01*
X0331734Y0285440D01*
X0331177Y0284883D01*
X0330739Y0284228D01*
X0330438Y0283500D01*
X0330284Y0282727D01*
X0330284Y0282333D01*
X0330623Y0283947D02*
X0322237Y0283947D01*
X0322237Y0286345D02*
X0369489Y0286345D01*
X0369489Y0283947D02*
X0367945Y0283947D01*
X0367829Y0284228D02*
X0367391Y0284883D01*
X0366834Y0285440D01*
X0366179Y0285878D01*
X0365451Y0286180D01*
X0364678Y0286333D01*
X0364284Y0286333D01*
X0364284Y0282333D01*
X0364284Y0282333D01*
X0368284Y0282333D01*
X0368284Y0282727D01*
X0368130Y0283500D01*
X0367829Y0284228D01*
X0368206Y0281548D02*
X0369489Y0281548D01*
X0364284Y0281548D02*
X0364284Y0281548D01*
X0364284Y0282333D02*
X0360284Y0282333D01*
X0360284Y0282727D01*
X0360438Y0283500D01*
X0360739Y0284228D01*
X0361177Y0284883D01*
X0361734Y0285440D01*
X0362389Y0285878D01*
X0363117Y0286180D01*
X0363890Y0286333D01*
X0364284Y0286333D01*
X0364284Y0282333D01*
X0364284Y0282333D01*
X0364284Y0283947D02*
X0364284Y0283947D01*
X0360623Y0283947D02*
X0337945Y0283947D01*
X0338206Y0281548D02*
X0360362Y0281548D01*
X0369489Y0288744D02*
X0322237Y0288744D01*
X0322415Y0291143D02*
X0369489Y0291143D01*
X0369489Y0293541D02*
X0322437Y0293541D01*
X0322437Y0295940D02*
X0369489Y0295940D01*
X0369489Y0298338D02*
X0328869Y0298338D01*
X0329583Y0300737D02*
X0369489Y0300737D01*
X0369489Y0303135D02*
X0329583Y0303135D01*
X0329583Y0305534D02*
X0369489Y0305534D01*
X0369489Y0307932D02*
X0329583Y0307932D01*
X0329583Y0310331D02*
X0369489Y0310331D01*
X0369489Y0312729D02*
X0367689Y0312729D01*
X0367829Y0312939D02*
X0368130Y0313667D01*
X0368284Y0314439D01*
X0368284Y0314833D01*
X0364284Y0314833D01*
X0364284Y0310833D01*
X0364678Y0310833D01*
X0365451Y0310987D01*
X0366179Y0311289D01*
X0366834Y0311726D01*
X0367391Y0312283D01*
X0367829Y0312939D01*
X0368284Y0314833D02*
X0364284Y0314833D01*
X0364284Y0314833D01*
X0364284Y0310833D01*
X0363890Y0310833D01*
X0363117Y0310987D01*
X0362389Y0311289D01*
X0361734Y0311726D01*
X0361177Y0312283D01*
X0360739Y0312939D01*
X0360438Y0313667D01*
X0360284Y0314439D01*
X0360284Y0314833D01*
X0364284Y0314833D01*
X0364284Y0314833D01*
X0364284Y0314833D01*
X0360284Y0314833D01*
X0360284Y0315227D01*
X0360438Y0316000D01*
X0360739Y0316728D01*
X0361177Y0317383D01*
X0361734Y0317940D01*
X0362389Y0318378D01*
X0363117Y0318680D01*
X0363890Y0318833D01*
X0364284Y0318833D01*
X0364678Y0318833D01*
X0365451Y0318680D01*
X0366179Y0318378D01*
X0366834Y0317940D01*
X0367391Y0317383D01*
X0367829Y0316728D01*
X0368130Y0316000D01*
X0368284Y0315227D01*
X0368284Y0314833D01*
X0368284Y0315128D02*
X0369489Y0315128D01*
X0369489Y0317526D02*
X0367248Y0317526D01*
X0364284Y0317526D02*
X0364284Y0317526D01*
X0364284Y0318833D02*
X0364284Y0314833D01*
X0364284Y0314833D01*
X0364284Y0318833D01*
X0361320Y0317526D02*
X0337248Y0317526D01*
X0337391Y0317383D02*
X0336834Y0317940D01*
X0336179Y0318378D01*
X0335451Y0318680D01*
X0334678Y0318833D01*
X0334284Y0318833D01*
X0334284Y0314833D01*
X0334284Y0310833D01*
X0334678Y0310833D01*
X0335451Y0310987D01*
X0336179Y0311289D01*
X0336834Y0311726D01*
X0337391Y0312283D01*
X0337829Y0312939D01*
X0338130Y0313667D01*
X0338284Y0314439D01*
X0338284Y0314833D01*
X0334284Y0314833D01*
X0334284Y0314833D01*
X0334284Y0310833D01*
X0333890Y0310833D01*
X0333117Y0310987D01*
X0332389Y0311289D01*
X0331734Y0311726D01*
X0331177Y0312283D01*
X0330739Y0312939D01*
X0330438Y0313667D01*
X0330284Y0314439D01*
X0330284Y0314833D01*
X0334284Y0314833D01*
X0334284Y0314833D01*
X0334284Y0314833D01*
X0338284Y0314833D01*
X0338284Y0315227D01*
X0338130Y0316000D01*
X0337829Y0316728D01*
X0337391Y0317383D01*
X0338284Y0315128D02*
X0360284Y0315128D01*
X0360879Y0312729D02*
X0337689Y0312729D01*
X0334284Y0312729D02*
X0334284Y0312729D01*
X0334284Y0314833D02*
X0330284Y0314833D01*
X0330284Y0315227D01*
X0330438Y0316000D01*
X0330739Y0316728D01*
X0331177Y0317383D01*
X0331734Y0317940D01*
X0332389Y0318378D01*
X0333117Y0318680D01*
X0333890Y0318833D01*
X0334284Y0318833D01*
X0334284Y0314833D01*
X0334284Y0314833D01*
X0334284Y0315128D02*
X0334284Y0315128D01*
X0334284Y0317526D02*
X0334284Y0317526D01*
X0331320Y0317526D02*
X0301051Y0317526D01*
X0302986Y0315128D02*
X0313498Y0315128D01*
X0312784Y0310833D02*
X0317544Y0310833D01*
X0312784Y0310833D02*
X0310520Y0308570D01*
X0308284Y0308570D01*
X0311465Y0305497D02*
X0311465Y0303410D01*
X0310293Y0302239D01*
X0306274Y0302239D01*
X0305784Y0302729D01*
X0305784Y0301336D01*
X0305481Y0300606D01*
X0305889Y0300878D01*
X0306617Y0301180D01*
X0307390Y0301333D01*
X0307784Y0301333D01*
X0307784Y0297333D01*
X0307784Y0297333D01*
X0311784Y0297333D01*
X0311784Y0296939D01*
X0311630Y0296167D01*
X0311329Y0295439D01*
X0310891Y0294783D01*
X0310414Y0294307D01*
X0311465Y0293256D01*
X0311465Y0291833D01*
X0312080Y0291833D01*
X0312131Y0291812D01*
X0312131Y0293994D01*
X0317204Y0293994D01*
X0317204Y0294153D01*
X0312131Y0294153D01*
X0312131Y0296922D01*
X0312281Y0297482D01*
X0312571Y0297983D01*
X0312980Y0298393D01*
X0313223Y0298533D01*
X0312935Y0299031D01*
X0312785Y0299591D01*
X0312785Y0302754D01*
X0317464Y0302754D01*
X0317464Y0302913D01*
X0312785Y0302913D01*
X0312785Y0306076D01*
X0312870Y0306394D01*
X0312333Y0305857D01*
X0311465Y0305497D01*
X0311553Y0305534D02*
X0312785Y0305534D01*
X0312785Y0303135D02*
X0311190Y0303135D01*
X0309679Y0300878D02*
X0308951Y0301180D01*
X0308178Y0301333D01*
X0307784Y0301333D01*
X0307784Y0297333D01*
X0303784Y0297333D01*
X0307784Y0297333D01*
X0307784Y0297333D01*
X0311784Y0297333D01*
X0311784Y0297727D01*
X0311630Y0298500D01*
X0311329Y0299228D01*
X0310891Y0299883D01*
X0310334Y0300440D01*
X0309679Y0300878D01*
X0309890Y0300737D02*
X0312785Y0300737D01*
X0312925Y0298338D02*
X0311662Y0298338D01*
X0311536Y0295940D02*
X0312131Y0295940D01*
X0312131Y0293541D02*
X0311180Y0293541D01*
X0307784Y0297333D02*
X0307784Y0297333D01*
X0307784Y0298338D02*
X0307784Y0298338D01*
X0307784Y0300737D02*
X0307784Y0300737D01*
X0305677Y0300737D02*
X0305536Y0300737D01*
X0303905Y0298338D02*
X0303324Y0298338D01*
X0303084Y0295940D02*
X0304032Y0295940D01*
X0308284Y0288097D02*
X0308548Y0287833D01*
X0309784Y0287833D01*
X0311283Y0281548D02*
X0312919Y0281548D01*
X0312331Y0279150D02*
X0311283Y0279150D01*
X0311283Y0276751D02*
X0312331Y0276751D01*
X0312331Y0274353D02*
X0311030Y0274353D01*
X0306604Y0274353D02*
X0306584Y0274353D01*
X0306604Y0276751D02*
X0306445Y0276751D01*
X0303284Y0283381D02*
X0303284Y0283381D01*
X0303284Y0283947D02*
X0303284Y0283947D01*
X0303284Y0286345D02*
X0303284Y0286345D01*
X0317204Y0294153D02*
X0317204Y0297681D01*
X0317363Y0297681D01*
X0317363Y0294153D01*
X0317204Y0294153D01*
X0317284Y0294833D02*
X0317284Y0300833D01*
X0317204Y0295940D02*
X0317363Y0295940D01*
X0325024Y0302833D02*
X0325024Y0310833D01*
X0329583Y0312729D02*
X0330879Y0312729D01*
X0330284Y0315128D02*
X0329070Y0315128D01*
X0328752Y0341573D02*
X0326931Y0342327D01*
X0325538Y0343721D01*
X0324784Y0345541D01*
X0324784Y0347511D01*
X0325538Y0349332D01*
X0326931Y0350725D01*
X0328752Y0351479D01*
X0330722Y0351479D01*
X0332542Y0350725D01*
X0333935Y0349332D01*
X0334680Y0347535D01*
X0334711Y0347733D01*
X0334961Y0348504D01*
X0335330Y0349227D01*
X0335806Y0349883D01*
X0336380Y0350457D01*
X0337036Y0350933D01*
X0337759Y0351301D01*
X0338530Y0351552D01*
X0338728Y0351583D01*
X0336931Y0352327D01*
X0335538Y0353721D01*
X0334784Y0355541D01*
X0334784Y0357511D01*
X0335538Y0359332D01*
X0336931Y0360725D01*
X0338752Y0361479D01*
X0340722Y0361479D01*
X0342542Y0360725D01*
X0343935Y0359332D01*
X0344689Y0357511D01*
X0344689Y0355541D01*
X0343935Y0353721D01*
X0342542Y0352327D01*
X0340746Y0351583D01*
X0340943Y0351552D01*
X0341715Y0351301D01*
X0342437Y0350933D01*
X0343094Y0350457D01*
X0343667Y0349883D01*
X0344144Y0349227D01*
X0344512Y0348504D01*
X0344763Y0347733D01*
X0344889Y0346932D01*
X0344889Y0346526D01*
X0339737Y0346526D01*
X0339737Y0346526D01*
X0339737Y0341373D01*
X0340142Y0341373D01*
X0340943Y0341500D01*
X0341715Y0341751D01*
X0342437Y0342119D01*
X0343094Y0342596D01*
X0343667Y0343169D01*
X0344144Y0343826D01*
X0344512Y0344548D01*
X0344763Y0345320D01*
X0344889Y0346121D01*
X0344889Y0346526D01*
X0339737Y0346526D01*
X0339737Y0346526D01*
X0339737Y0341373D01*
X0339331Y0341373D01*
X0338530Y0341500D01*
X0337759Y0341751D01*
X0337036Y0342119D01*
X0336380Y0342596D01*
X0335806Y0343169D01*
X0335330Y0343826D01*
X0334961Y0344548D01*
X0334711Y0345320D01*
X0334680Y0345517D01*
X0333935Y0343721D01*
X0332542Y0342327D01*
X0330722Y0341573D01*
X0328752Y0341573D01*
X0325460Y0343910D02*
X0324014Y0343910D01*
X0323935Y0343721D02*
X0324689Y0345541D01*
X0324689Y0347511D01*
X0323935Y0349332D01*
X0322542Y0350725D01*
X0320722Y0351479D01*
X0318752Y0351479D01*
X0316931Y0350725D01*
X0315538Y0349332D01*
X0314784Y0347511D01*
X0314784Y0345541D01*
X0315538Y0343721D01*
X0316931Y0342327D01*
X0318752Y0341573D01*
X0320722Y0341573D01*
X0322542Y0342327D01*
X0323935Y0343721D01*
X0324689Y0346308D02*
X0324784Y0346308D01*
X0325279Y0348707D02*
X0324194Y0348707D01*
X0321624Y0351105D02*
X0327849Y0351105D01*
X0328752Y0351573D02*
X0326931Y0352327D01*
X0325538Y0353721D01*
X0324784Y0355541D01*
X0324784Y0357511D01*
X0325538Y0359332D01*
X0326931Y0360725D01*
X0328752Y0361479D01*
X0330722Y0361479D01*
X0332542Y0360725D01*
X0333935Y0359332D01*
X0334689Y0357511D01*
X0334689Y0355541D01*
X0333935Y0353721D01*
X0332542Y0352327D01*
X0330722Y0351573D01*
X0328752Y0351573D01*
X0331624Y0351105D02*
X0337374Y0351105D01*
X0335755Y0353504D02*
X0333719Y0353504D01*
X0334689Y0355902D02*
X0334784Y0355902D01*
X0335111Y0358301D02*
X0334362Y0358301D01*
X0332568Y0360699D02*
X0336906Y0360699D01*
X0342568Y0360699D02*
X0348295Y0360699D01*
X0346428Y0358301D02*
X0344362Y0358301D01*
X0344689Y0355902D02*
X0345599Y0355902D01*
X0344899Y0353504D02*
X0343719Y0353504D01*
X0344899Y0351105D02*
X0342100Y0351105D01*
X0344409Y0348707D02*
X0345064Y0348707D01*
X0344889Y0346308D02*
X0345888Y0346308D01*
X0347083Y0343910D02*
X0344187Y0343910D01*
X0340977Y0341511D02*
X0348950Y0341511D01*
X0352294Y0339113D02*
X0279464Y0339113D01*
X0278752Y0341573D02*
X0280722Y0341573D01*
X0282542Y0342327D01*
X0283935Y0343721D01*
X0284689Y0345541D01*
X0284689Y0347511D01*
X0283935Y0349332D01*
X0282542Y0350725D01*
X0280722Y0351479D01*
X0278752Y0351479D01*
X0276931Y0350725D01*
X0275538Y0349332D01*
X0274794Y0347535D01*
X0274763Y0347733D01*
X0274512Y0348504D01*
X0274144Y0349227D01*
X0273667Y0349883D01*
X0273094Y0350457D01*
X0272437Y0350933D01*
X0271715Y0351301D01*
X0270943Y0351552D01*
X0270746Y0351583D01*
X0272542Y0352327D01*
X0273935Y0353721D01*
X0274689Y0355541D01*
X0274689Y0357511D01*
X0273935Y0359332D01*
X0272542Y0360725D01*
X0270722Y0361479D01*
X0268752Y0361479D01*
X0266931Y0360725D01*
X0265538Y0359332D01*
X0264784Y0357511D01*
X0264784Y0355541D01*
X0265538Y0353721D01*
X0266931Y0352327D01*
X0268728Y0351583D01*
X0268530Y0351552D01*
X0267759Y0351301D01*
X0267036Y0350933D01*
X0266380Y0350457D01*
X0265806Y0349883D01*
X0265330Y0349227D01*
X0264961Y0348504D01*
X0264711Y0347733D01*
X0264680Y0347535D01*
X0263935Y0349332D01*
X0262542Y0350725D01*
X0260722Y0351479D01*
X0258752Y0351479D01*
X0256931Y0350725D01*
X0255538Y0349332D01*
X0254784Y0347511D01*
X0254784Y0345541D01*
X0255538Y0343721D01*
X0256931Y0342327D01*
X0258752Y0341573D01*
X0260722Y0341573D01*
X0262542Y0342327D01*
X0263935Y0343721D01*
X0264680Y0345517D01*
X0264711Y0345320D01*
X0264961Y0344548D01*
X0265330Y0343826D01*
X0265806Y0343169D01*
X0266380Y0342596D01*
X0267036Y0342119D01*
X0267759Y0341751D01*
X0268530Y0341500D01*
X0269331Y0341373D01*
X0269737Y0341373D01*
X0270142Y0341373D01*
X0270943Y0341500D01*
X0271715Y0341751D01*
X0272437Y0342119D01*
X0273094Y0342596D01*
X0273667Y0343169D01*
X0274144Y0343826D01*
X0274512Y0344548D01*
X0274763Y0345320D01*
X0274794Y0345517D01*
X0275538Y0343721D01*
X0276931Y0342327D01*
X0278752Y0341573D01*
X0275460Y0343910D02*
X0274187Y0343910D01*
X0270977Y0341511D02*
X0338497Y0341511D01*
X0339737Y0341511D02*
X0339737Y0341511D01*
X0339737Y0343910D02*
X0339737Y0343910D01*
X0339737Y0346308D02*
X0339737Y0346308D01*
X0335287Y0343910D02*
X0334014Y0343910D01*
X0334194Y0348707D02*
X0335065Y0348707D01*
X0325755Y0353504D02*
X0323719Y0353504D01*
X0323935Y0353721D02*
X0324689Y0355541D01*
X0324689Y0357511D01*
X0323935Y0359332D01*
X0322542Y0360725D01*
X0320722Y0361479D01*
X0318752Y0361479D01*
X0316931Y0360725D01*
X0315538Y0359332D01*
X0314794Y0357535D01*
X0314763Y0357733D01*
X0314512Y0358504D01*
X0314144Y0359227D01*
X0313667Y0359883D01*
X0313094Y0360457D01*
X0312437Y0360933D01*
X0311715Y0361301D01*
X0310943Y0361552D01*
X0310142Y0361679D01*
X0309737Y0361679D01*
X0309737Y0356526D01*
X0309737Y0356526D01*
X0309737Y0361679D01*
X0309331Y0361679D01*
X0308530Y0361552D01*
X0307759Y0361301D01*
X0307036Y0360933D01*
X0306380Y0360457D01*
X0305806Y0359883D01*
X0305330Y0359227D01*
X0304961Y0358504D01*
X0304711Y0357733D01*
X0304680Y0357535D01*
X0303935Y0359332D01*
X0302542Y0360725D01*
X0300722Y0361479D01*
X0298752Y0361479D01*
X0296931Y0360725D01*
X0295538Y0359332D01*
X0294794Y0357535D01*
X0294763Y0357733D01*
X0294512Y0358504D01*
X0294144Y0359227D01*
X0293667Y0359883D01*
X0293094Y0360457D01*
X0292437Y0360933D01*
X0291715Y0361301D01*
X0290943Y0361552D01*
X0290142Y0361679D01*
X0289737Y0361679D01*
X0289737Y0356526D01*
X0289737Y0356526D01*
X0289737Y0361679D01*
X0289331Y0361679D01*
X0288530Y0361552D01*
X0287759Y0361301D01*
X0287036Y0360933D01*
X0286380Y0360457D01*
X0285806Y0359883D01*
X0285330Y0359227D01*
X0284961Y0358504D01*
X0284711Y0357733D01*
X0284680Y0357535D01*
X0283935Y0359332D01*
X0282542Y0360725D01*
X0280722Y0361479D01*
X0278752Y0361479D01*
X0276931Y0360725D01*
X0275538Y0359332D01*
X0274784Y0357511D01*
X0274784Y0355541D01*
X0275538Y0353721D01*
X0276931Y0352327D01*
X0278752Y0351573D01*
X0280722Y0351573D01*
X0282542Y0352327D01*
X0283935Y0353721D01*
X0284680Y0355517D01*
X0284711Y0355320D01*
X0284961Y0354548D01*
X0285330Y0353826D01*
X0285806Y0353169D01*
X0286380Y0352596D01*
X0287036Y0352119D01*
X0287759Y0351751D01*
X0288530Y0351500D01*
X0288728Y0351469D01*
X0286931Y0350725D01*
X0285538Y0349332D01*
X0284784Y0347511D01*
X0284784Y0345541D01*
X0285538Y0343721D01*
X0286931Y0342327D01*
X0288752Y0341573D01*
X0290722Y0341573D01*
X0292542Y0342327D01*
X0293935Y0343721D01*
X0294689Y0345541D01*
X0294689Y0347511D01*
X0293935Y0349332D01*
X0292542Y0350725D01*
X0290746Y0351469D01*
X0290943Y0351500D01*
X0291715Y0351751D01*
X0292437Y0352119D01*
X0293094Y0352596D01*
X0293667Y0353169D01*
X0294144Y0353826D01*
X0294512Y0354548D01*
X0294763Y0355320D01*
X0294794Y0355517D01*
X0295538Y0353721D01*
X0296931Y0352327D01*
X0298752Y0351573D01*
X0300722Y0351573D01*
X0302542Y0352327D01*
X0303935Y0353721D01*
X0304680Y0355517D01*
X0304711Y0355320D01*
X0304961Y0354548D01*
X0305330Y0353826D01*
X0305806Y0353169D01*
X0306380Y0352596D01*
X0307036Y0352119D01*
X0307759Y0351751D01*
X0308530Y0351500D01*
X0308728Y0351469D01*
X0306931Y0350725D01*
X0305538Y0349332D01*
X0304784Y0347511D01*
X0304784Y0345541D01*
X0305538Y0343721D01*
X0306931Y0342327D01*
X0308752Y0341573D01*
X0310722Y0341573D01*
X0312542Y0342327D01*
X0313935Y0343721D01*
X0314689Y0345541D01*
X0314689Y0347511D01*
X0313935Y0349332D01*
X0312542Y0350725D01*
X0310746Y0351469D01*
X0310943Y0351500D01*
X0311715Y0351751D01*
X0312437Y0352119D01*
X0313094Y0352596D01*
X0313667Y0353169D01*
X0314144Y0353826D01*
X0314512Y0354548D01*
X0314763Y0355320D01*
X0314794Y0355517D01*
X0315538Y0353721D01*
X0316931Y0352327D01*
X0318752Y0351573D01*
X0320722Y0351573D01*
X0322542Y0352327D01*
X0323935Y0353721D01*
X0324689Y0355902D02*
X0324784Y0355902D01*
X0325111Y0358301D02*
X0324362Y0358301D01*
X0322568Y0360699D02*
X0326906Y0360699D01*
X0316906Y0360699D02*
X0312759Y0360699D01*
X0314578Y0358301D02*
X0315111Y0358301D01*
X0315755Y0353504D02*
X0313910Y0353504D01*
X0311624Y0351105D02*
X0317849Y0351105D01*
X0315279Y0348707D02*
X0314194Y0348707D01*
X0314689Y0346308D02*
X0314784Y0346308D01*
X0315460Y0343910D02*
X0314014Y0343910D01*
X0305460Y0343910D02*
X0304014Y0343910D01*
X0303935Y0343721D02*
X0304689Y0345541D01*
X0304689Y0347511D01*
X0303935Y0349332D01*
X0302542Y0350725D01*
X0300722Y0351479D01*
X0298752Y0351479D01*
X0296931Y0350725D01*
X0295538Y0349332D01*
X0294784Y0347511D01*
X0294784Y0345541D01*
X0295538Y0343721D01*
X0296931Y0342327D01*
X0298752Y0341573D01*
X0300722Y0341573D01*
X0302542Y0342327D01*
X0303935Y0343721D01*
X0304689Y0346308D02*
X0304784Y0346308D01*
X0305279Y0348707D02*
X0304194Y0348707D01*
X0301624Y0351105D02*
X0307849Y0351105D01*
X0305563Y0353504D02*
X0303719Y0353504D01*
X0304362Y0358301D02*
X0304895Y0358301D01*
X0306714Y0360699D02*
X0302568Y0360699D01*
X0296906Y0360699D02*
X0292759Y0360699D01*
X0294578Y0358301D02*
X0295111Y0358301D01*
X0295755Y0353504D02*
X0293910Y0353504D01*
X0291624Y0351105D02*
X0297849Y0351105D01*
X0295279Y0348707D02*
X0294194Y0348707D01*
X0294689Y0346308D02*
X0294784Y0346308D01*
X0295460Y0343910D02*
X0294014Y0343910D01*
X0287849Y0351105D02*
X0281624Y0351105D01*
X0283719Y0353504D02*
X0285563Y0353504D01*
X0285279Y0348707D02*
X0284194Y0348707D01*
X0284689Y0346308D02*
X0284784Y0346308D01*
X0285460Y0343910D02*
X0284014Y0343910D01*
X0277849Y0351105D02*
X0272100Y0351105D01*
X0273719Y0353504D02*
X0275755Y0353504D01*
X0274784Y0355902D02*
X0274689Y0355902D01*
X0274362Y0358301D02*
X0275111Y0358301D01*
X0276906Y0360699D02*
X0272568Y0360699D01*
X0266906Y0360699D02*
X0262568Y0360699D01*
X0262542Y0360725D02*
X0260722Y0361479D01*
X0258752Y0361479D01*
X0256931Y0360725D01*
X0255538Y0359332D01*
X0254784Y0357511D01*
X0254784Y0355541D01*
X0255538Y0353721D01*
X0256931Y0352327D01*
X0258752Y0351573D01*
X0260722Y0351573D01*
X0262542Y0352327D01*
X0263935Y0353721D01*
X0264689Y0355541D01*
X0264689Y0357511D01*
X0263935Y0359332D01*
X0262542Y0360725D01*
X0264362Y0358301D02*
X0265111Y0358301D01*
X0264784Y0355902D02*
X0264689Y0355902D01*
X0263719Y0353504D02*
X0265755Y0353504D01*
X0267374Y0351105D02*
X0261624Y0351105D01*
X0264194Y0348707D02*
X0265065Y0348707D01*
X0265287Y0343910D02*
X0264014Y0343910D01*
X0268497Y0341511D02*
X0190977Y0341511D01*
X0189737Y0341511D02*
X0189737Y0341511D01*
X0188497Y0341511D02*
X0175066Y0341511D01*
X0175460Y0343910D02*
X0174014Y0343910D01*
X0174689Y0346308D02*
X0174784Y0346308D01*
X0175279Y0348707D02*
X0174194Y0348707D01*
X0171624Y0351105D02*
X0177849Y0351105D01*
X0175755Y0353504D02*
X0173910Y0353504D01*
X0181624Y0351105D02*
X0187374Y0351105D01*
X0185755Y0353504D02*
X0183719Y0353504D01*
X0184689Y0355902D02*
X0184784Y0355902D01*
X0185111Y0358301D02*
X0184362Y0358301D01*
X0184194Y0348707D02*
X0185065Y0348707D01*
X0185287Y0343910D02*
X0184014Y0343910D01*
X0189737Y0343910D02*
X0189737Y0343910D01*
X0189737Y0346308D02*
X0189737Y0346308D01*
X0194187Y0343910D02*
X0195460Y0343910D01*
X0195279Y0348707D02*
X0194409Y0348707D01*
X0192100Y0351105D02*
X0197849Y0351105D01*
X0195755Y0353504D02*
X0193719Y0353504D01*
X0194689Y0355902D02*
X0194784Y0355902D01*
X0195111Y0358301D02*
X0194362Y0358301D01*
X0201624Y0351105D02*
X0207849Y0351105D01*
X0205563Y0353504D02*
X0203719Y0353504D01*
X0204194Y0348707D02*
X0205279Y0348707D01*
X0204784Y0346308D02*
X0204689Y0346308D01*
X0204014Y0343910D02*
X0205460Y0343910D01*
X0208464Y0339113D02*
X0246104Y0339113D01*
X0244118Y0336714D02*
X0232277Y0336714D01*
X0232451Y0336680D02*
X0231678Y0336833D01*
X0231284Y0336833D01*
X0231284Y0332833D01*
X0231284Y0328833D01*
X0231678Y0328833D01*
X0232451Y0328987D01*
X0233179Y0329289D01*
X0233834Y0329726D01*
X0234391Y0330283D01*
X0234829Y0330939D01*
X0235130Y0331667D01*
X0235284Y0332439D01*
X0235284Y0332833D01*
X0231284Y0332833D01*
X0231284Y0332833D01*
X0231284Y0328833D01*
X0230890Y0328833D01*
X0230117Y0328987D01*
X0229389Y0329289D01*
X0228734Y0329726D01*
X0228177Y0330283D01*
X0227739Y0330939D01*
X0227438Y0331667D01*
X0227284Y0332439D01*
X0227284Y0332833D01*
X0231284Y0332833D01*
X0231284Y0332833D01*
X0231284Y0332833D01*
X0235284Y0332833D01*
X0235284Y0333227D01*
X0235130Y0334000D01*
X0234829Y0334728D01*
X0234391Y0335383D01*
X0233834Y0335940D01*
X0233179Y0336378D01*
X0232451Y0336680D01*
X0231284Y0336714D02*
X0231284Y0336714D01*
X0231284Y0336833D02*
X0230890Y0336833D01*
X0230117Y0336680D01*
X0229389Y0336378D01*
X0228734Y0335940D01*
X0228177Y0335383D01*
X0227739Y0334728D01*
X0227438Y0334000D01*
X0227284Y0333227D01*
X0227284Y0332833D01*
X0231284Y0332833D01*
X0231284Y0332833D01*
X0231284Y0336833D01*
X0230291Y0336714D02*
X0210863Y0336714D01*
X0213261Y0334316D02*
X0227568Y0334316D01*
X0227388Y0331917D02*
X0215660Y0331917D01*
X0218058Y0329519D02*
X0229045Y0329519D01*
X0231284Y0329519D02*
X0231284Y0329519D01*
X0233523Y0329519D02*
X0243984Y0329519D01*
X0243984Y0331917D02*
X0235180Y0331917D01*
X0234999Y0334316D02*
X0243984Y0334316D01*
X0243984Y0327120D02*
X0220457Y0327120D01*
X0222855Y0324722D02*
X0243984Y0324722D01*
X0243984Y0322323D02*
X0225254Y0322323D01*
X0227652Y0319925D02*
X0243984Y0319925D01*
X0243984Y0317526D02*
X0230051Y0317526D01*
X0232449Y0315128D02*
X0243984Y0315128D01*
X0243984Y0312729D02*
X0234848Y0312729D01*
X0237246Y0310331D02*
X0243984Y0310331D01*
X0243984Y0307932D02*
X0239645Y0307932D01*
X0242043Y0305534D02*
X0243984Y0305534D01*
X0227822Y0291143D02*
X0160550Y0291143D01*
X0162062Y0293541D02*
X0225396Y0293541D01*
X0222970Y0295940D02*
X0162139Y0295940D01*
X0160736Y0298338D02*
X0220544Y0298338D01*
X0218118Y0300737D02*
X0160364Y0300737D01*
X0162103Y0303135D02*
X0215692Y0303135D01*
X0213265Y0305534D02*
X0162343Y0305534D01*
X0161354Y0307932D02*
X0210839Y0307932D01*
X0208413Y0310331D02*
X0159308Y0310331D01*
X0161726Y0312729D02*
X0205987Y0312729D01*
X0203561Y0315128D02*
X0162189Y0315128D01*
X0161482Y0317526D02*
X0170125Y0317526D01*
X0167774Y0319925D02*
X0158804Y0319925D01*
X0161741Y0322323D02*
X0165423Y0322323D01*
X0163073Y0324722D02*
X0162389Y0324722D01*
X0157964Y0329935D02*
X0146684Y0341445D01*
X0146684Y0327062D01*
X0146924Y0327534D01*
X0147401Y0328190D01*
X0147974Y0328764D01*
X0148631Y0329240D01*
X0149353Y0329609D01*
X0150125Y0329859D01*
X0150926Y0329986D01*
X0154284Y0329986D01*
X0154284Y0324833D01*
X0154284Y0324833D01*
X0154284Y0329986D01*
X0157642Y0329986D01*
X0157964Y0329935D01*
X0156021Y0331917D02*
X0146684Y0331917D01*
X0146684Y0329519D02*
X0149177Y0329519D01*
X0146713Y0327120D02*
X0146684Y0327120D01*
X0146684Y0334316D02*
X0153671Y0334316D01*
X0151320Y0336714D02*
X0146684Y0336714D01*
X0146684Y0339113D02*
X0148970Y0339113D01*
X0154284Y0329519D02*
X0154284Y0329519D01*
X0154284Y0327120D02*
X0154284Y0327120D01*
X0211624Y0351105D02*
X0217849Y0351105D01*
X0218752Y0351479D02*
X0216931Y0350725D01*
X0215538Y0349332D01*
X0214784Y0347511D01*
X0214784Y0345541D01*
X0215538Y0343721D01*
X0216931Y0342327D01*
X0218752Y0341573D01*
X0220722Y0341573D01*
X0222542Y0342327D01*
X0223935Y0343721D01*
X0224689Y0345541D01*
X0224689Y0347511D01*
X0223935Y0349332D01*
X0222542Y0350725D01*
X0220722Y0351479D01*
X0218752Y0351479D01*
X0221624Y0351105D02*
X0227849Y0351105D01*
X0228752Y0351479D02*
X0226931Y0350725D01*
X0225538Y0349332D01*
X0224784Y0347511D01*
X0224784Y0345541D01*
X0225538Y0343721D01*
X0226931Y0342327D01*
X0228752Y0341573D01*
X0230722Y0341573D01*
X0232542Y0342327D01*
X0233935Y0343721D01*
X0234689Y0345541D01*
X0234689Y0347511D01*
X0233935Y0349332D01*
X0232542Y0350725D01*
X0230722Y0351479D01*
X0228752Y0351479D01*
X0231624Y0351105D02*
X0237849Y0351105D01*
X0235563Y0353504D02*
X0233719Y0353504D01*
X0234194Y0348707D02*
X0235279Y0348707D01*
X0234784Y0346308D02*
X0234689Y0346308D01*
X0234014Y0343910D02*
X0235460Y0343910D01*
X0244014Y0343910D02*
X0245460Y0343910D01*
X0245538Y0343721D02*
X0246931Y0342327D01*
X0248752Y0341573D01*
X0250722Y0341573D01*
X0252542Y0342327D01*
X0253935Y0343721D01*
X0254689Y0345541D01*
X0254689Y0347511D01*
X0253935Y0349332D01*
X0252542Y0350725D01*
X0250722Y0351479D01*
X0248752Y0351479D01*
X0246931Y0350725D01*
X0245538Y0349332D01*
X0244784Y0347511D01*
X0244784Y0345541D01*
X0245538Y0343721D01*
X0244784Y0346308D02*
X0244689Y0346308D01*
X0244194Y0348707D02*
X0245279Y0348707D01*
X0247849Y0351105D02*
X0241624Y0351105D01*
X0243910Y0353504D02*
X0245755Y0353504D01*
X0251624Y0351105D02*
X0257849Y0351105D01*
X0255755Y0353504D02*
X0253719Y0353504D01*
X0254689Y0355902D02*
X0254784Y0355902D01*
X0255111Y0358301D02*
X0254362Y0358301D01*
X0252568Y0360699D02*
X0256906Y0360699D01*
X0255279Y0348707D02*
X0254194Y0348707D01*
X0254689Y0346308D02*
X0254784Y0346308D01*
X0255460Y0343910D02*
X0254014Y0343910D01*
X0269737Y0343910D02*
X0269737Y0343910D01*
X0269737Y0346308D02*
X0269737Y0346308D01*
X0269737Y0346526D02*
X0269737Y0341373D01*
X0269737Y0346526D01*
X0269737Y0346526D01*
X0269737Y0341511D02*
X0269737Y0341511D01*
X0274409Y0348707D02*
X0275279Y0348707D01*
X0284362Y0358301D02*
X0284895Y0358301D01*
X0286714Y0360699D02*
X0282568Y0360699D01*
X0289737Y0360699D02*
X0289737Y0360699D01*
X0289737Y0358301D02*
X0289737Y0358301D01*
X0309737Y0358301D02*
X0309737Y0358301D01*
X0309737Y0360699D02*
X0309737Y0360699D01*
X0284261Y0334316D02*
X0369489Y0334316D01*
X0369489Y0336714D02*
X0281863Y0336714D01*
X0286660Y0331917D02*
X0369489Y0331917D01*
X0369489Y0329519D02*
X0289058Y0329519D01*
X0291457Y0327120D02*
X0369489Y0327120D01*
X0369489Y0324722D02*
X0293855Y0324722D01*
X0296254Y0322323D02*
X0369489Y0322323D01*
X0369489Y0319925D02*
X0298652Y0319925D01*
X0280284Y0295940D02*
X0280284Y0295940D01*
X0280284Y0293541D02*
X0280284Y0293541D01*
X0280284Y0288744D02*
X0280284Y0288744D01*
X0280284Y0286345D02*
X0280284Y0286345D01*
X0280284Y0283947D02*
X0280284Y0283947D01*
X0278152Y0283947D02*
X0274584Y0283947D01*
X0274584Y0286345D02*
X0276402Y0286345D01*
X0276539Y0288744D02*
X0274584Y0288744D01*
X0242123Y0271954D02*
X0241964Y0271954D01*
X0241964Y0269556D02*
X0242123Y0269556D01*
X0243984Y0267157D02*
X0206584Y0267157D01*
X0206515Y0269556D02*
X0237285Y0269556D01*
X0244198Y0264759D02*
X0215062Y0264759D01*
X0215283Y0262360D02*
X0246297Y0262360D01*
X0248696Y0259962D02*
X0215283Y0259962D01*
X0215283Y0260754D02*
X0210604Y0260754D01*
X0210604Y0255681D01*
X0213373Y0255681D01*
X0213932Y0255830D01*
X0214434Y0256120D01*
X0214844Y0256530D01*
X0215133Y0257031D01*
X0215283Y0257591D01*
X0215283Y0260754D01*
X0215276Y0257563D02*
X0251094Y0257563D01*
X0275921Y0257563D02*
X0276671Y0257563D01*
X0276671Y0255165D02*
X0275921Y0255165D01*
X0275921Y0252766D02*
X0276671Y0252766D01*
X0290083Y0240774D02*
X0290659Y0240774D01*
X0291497Y0238375D02*
X0288286Y0238375D01*
X0295615Y0238375D02*
X0295615Y0238375D01*
X0295615Y0240774D02*
X0295615Y0240774D01*
X0334284Y0281548D02*
X0334284Y0281548D01*
X0334284Y0283947D02*
X0334284Y0283947D01*
X0364284Y0312729D02*
X0364284Y0312729D01*
X0364284Y0315128D02*
X0364284Y0315128D01*
X0365490Y0339113D02*
X0369489Y0339113D01*
X0369489Y0341511D02*
X0368718Y0341511D01*
X0231284Y0334316D02*
X0231284Y0334316D01*
X0231284Y0331917D02*
X0231284Y0331917D01*
X0225460Y0343910D02*
X0224014Y0343910D01*
X0224689Y0346308D02*
X0224784Y0346308D01*
X0225279Y0348707D02*
X0224194Y0348707D01*
X0223719Y0353504D02*
X0225755Y0353504D01*
X0224784Y0355902D02*
X0224689Y0355902D01*
X0224362Y0358301D02*
X0225111Y0358301D01*
X0215755Y0353504D02*
X0213910Y0353504D01*
X0214194Y0348707D02*
X0215279Y0348707D01*
X0214784Y0346308D02*
X0214689Y0346308D01*
X0214014Y0343910D02*
X0215460Y0343910D01*
X0210604Y0264759D02*
X0210445Y0264759D01*
X0210445Y0262360D02*
X0210604Y0262360D01*
X0210604Y0259962D02*
X0210445Y0259962D01*
X0210445Y0257563D02*
X0210604Y0257563D01*
X0209373Y0250368D02*
X0206584Y0250368D01*
X0206584Y0247969D02*
X0208143Y0247969D01*
X0214734Y0247969D02*
X0215834Y0247969D01*
X0215834Y0250368D02*
X0214734Y0250368D01*
X0214734Y0243172D02*
X0215834Y0243172D01*
X0215834Y0240774D02*
X0214734Y0240774D01*
X0163222Y0238375D02*
X0163063Y0238375D01*
X0163063Y0235977D02*
X0163222Y0235977D01*
X0158383Y0235977D02*
X0156684Y0235977D01*
X0156684Y0238375D02*
X0158477Y0238375D01*
X0158383Y0233578D02*
X0157941Y0233578D01*
D25*
X0250284Y0251333D02*
X0258784Y0259833D01*
X0265272Y0259833D01*
X0298284Y0288097D02*
X0298284Y0296833D01*
X0303284Y0301833D01*
X0303284Y0308570D01*
X0305784Y0301333D02*
X0305784Y0300333D01*
X0305784Y0294333D02*
X0310784Y0294333D01*
X0305784Y0294333D02*
X0303284Y0291833D01*
X0303284Y0293333D01*
X0303784Y0293333D01*
X0303284Y0291833D02*
X0303284Y0288833D01*
X0317284Y0300833D02*
X0318284Y0301833D01*
X0317284Y0270093D02*
X0317284Y0239833D01*
D26*
X0303284Y0293333D02*
X0303284Y0297833D01*
X0305784Y0300333D01*
D27*
X0312784Y0298333D02*
X0321284Y0298333D01*
X0322284Y0297333D01*
X0300284Y0296692D02*
X0295784Y0296692D01*
X0295784Y0298290D02*
X0300284Y0298290D01*
X0300284Y0298833D02*
X0300284Y0283086D01*
X0299523Y0283086D01*
X0299523Y0278813D01*
X0298564Y0278813D01*
X0298564Y0277854D01*
X0294685Y0277854D01*
X0294685Y0275144D01*
X0294807Y0274686D01*
X0295044Y0274275D01*
X0295371Y0273948D01*
X0294909Y0273948D01*
X0294451Y0273826D01*
X0294041Y0273589D01*
X0293706Y0273254D01*
X0293469Y0272843D01*
X0293346Y0272385D01*
X0293346Y0267608D01*
X0297521Y0267608D01*
X0297521Y0266059D01*
X0293346Y0266059D01*
X0293346Y0261281D01*
X0293469Y0260824D01*
X0293706Y0260413D01*
X0294041Y0260078D01*
X0294451Y0259841D01*
X0294909Y0259718D01*
X0297521Y0259718D01*
X0297521Y0266058D01*
X0299071Y0266058D01*
X0299071Y0266059D02*
X0299071Y0267608D01*
X0303245Y0267608D01*
X0303245Y0272385D01*
X0303123Y0272843D01*
X0302886Y0273254D01*
X0302551Y0273589D01*
X0302325Y0273719D01*
X0302708Y0273940D01*
X0302925Y0274158D01*
X0303302Y0273781D01*
X0303784Y0273781D01*
X0303784Y0248833D01*
X0300171Y0248833D01*
X0300171Y0249389D01*
X0295799Y0249389D01*
X0295799Y0249758D01*
X0295430Y0249758D01*
X0295430Y0249389D01*
X0291228Y0249389D01*
X0290784Y0249833D01*
X0290784Y0257333D01*
X0292784Y0259333D01*
X0292784Y0280833D01*
X0294117Y0282166D01*
X0294915Y0282166D01*
X0294807Y0281981D01*
X0294685Y0281523D01*
X0294685Y0278813D01*
X0298564Y0278813D01*
X0298564Y0283086D01*
X0296248Y0283086D01*
X0295974Y0283013D01*
X0296065Y0283104D01*
X0296065Y0293091D01*
X0295784Y0293372D01*
X0295784Y0298833D01*
X0300284Y0298833D01*
X0300284Y0301833D02*
X0246784Y0301833D01*
X0246784Y0335833D01*
X0248784Y0337833D01*
X0276784Y0337833D01*
X0300284Y0314333D01*
X0300284Y0301833D01*
X0300284Y0303086D02*
X0246784Y0303086D01*
X0246784Y0304684D02*
X0300284Y0304684D01*
X0300284Y0306283D02*
X0246784Y0306283D01*
X0246784Y0307881D02*
X0300284Y0307881D01*
X0300284Y0309480D02*
X0246784Y0309480D01*
X0246784Y0311079D02*
X0300284Y0311079D01*
X0300284Y0312677D02*
X0246784Y0312677D01*
X0246784Y0314276D02*
X0300284Y0314276D01*
X0298743Y0315874D02*
X0246784Y0315874D01*
X0246784Y0317473D02*
X0297145Y0317473D01*
X0295546Y0319071D02*
X0246784Y0319071D01*
X0246784Y0320670D02*
X0293948Y0320670D01*
X0292349Y0322268D02*
X0246784Y0322268D01*
X0246784Y0323867D02*
X0290751Y0323867D01*
X0289152Y0325465D02*
X0246784Y0325465D01*
X0246784Y0327064D02*
X0287554Y0327064D01*
X0285955Y0328662D02*
X0246784Y0328662D01*
X0246784Y0330261D02*
X0284357Y0330261D01*
X0282758Y0331859D02*
X0246784Y0331859D01*
X0246784Y0333458D02*
X0281160Y0333458D01*
X0279561Y0335056D02*
X0246784Y0335056D01*
X0247605Y0336655D02*
X0277963Y0336655D01*
X0242130Y0301487D02*
X0221341Y0301487D01*
X0222958Y0299889D02*
X0243728Y0299889D01*
X0245284Y0298333D02*
X0271784Y0298333D01*
X0271784Y0278549D01*
X0271546Y0278311D01*
X0271546Y0266356D01*
X0271784Y0266118D01*
X0271784Y0266049D01*
X0271546Y0265811D01*
X0271546Y0253856D01*
X0271676Y0253726D01*
X0269784Y0251833D01*
X0260784Y0251833D01*
X0246784Y0265833D01*
X0246784Y0267581D01*
X0249045Y0267581D01*
X0249045Y0271854D01*
X0250004Y0271854D01*
X0250004Y0272813D01*
X0253883Y0272813D01*
X0253883Y0275523D01*
X0253760Y0275981D01*
X0253524Y0276391D01*
X0253188Y0276726D01*
X0252778Y0276963D01*
X0252320Y0277086D01*
X0250004Y0277086D01*
X0250004Y0272813D01*
X0249045Y0272813D01*
X0249045Y0277086D01*
X0246728Y0277086D01*
X0246270Y0276963D01*
X0246192Y0276918D01*
X0202784Y0319833D01*
X0171784Y0319833D01*
X0150087Y0341973D01*
X0153352Y0341973D01*
X0154289Y0342911D01*
X0154289Y0350142D01*
X0153352Y0351079D01*
X0147284Y0351079D01*
X0147284Y0352442D01*
X0147912Y0352122D01*
X0148624Y0351891D01*
X0149363Y0351773D01*
X0149552Y0351773D01*
X0149552Y0356342D01*
X0149921Y0356342D01*
X0149921Y0356710D01*
X0154489Y0356710D01*
X0154489Y0356900D01*
X0154372Y0357639D01*
X0154141Y0358351D01*
X0153802Y0359017D01*
X0153362Y0359622D01*
X0152833Y0360151D01*
X0152228Y0360591D01*
X0151752Y0360833D01*
X0157721Y0360833D01*
X0157246Y0360591D01*
X0156640Y0360151D01*
X0156112Y0359622D01*
X0155672Y0359017D01*
X0155332Y0358351D01*
X0155101Y0357639D01*
X0154984Y0356900D01*
X0154984Y0356710D01*
X0159552Y0356710D01*
X0159552Y0356342D01*
X0154984Y0356342D01*
X0154984Y0356152D01*
X0155101Y0355413D01*
X0155332Y0354702D01*
X0155672Y0354035D01*
X0156112Y0353430D01*
X0156640Y0352901D01*
X0157246Y0352461D01*
X0157912Y0352122D01*
X0158624Y0351891D01*
X0159363Y0351773D01*
X0159552Y0351773D01*
X0159552Y0356342D01*
X0159921Y0356342D01*
X0159921Y0356710D01*
X0164489Y0356710D01*
X0164489Y0356900D01*
X0164372Y0357639D01*
X0164141Y0358351D01*
X0163802Y0359017D01*
X0163362Y0359622D01*
X0162833Y0360151D01*
X0162228Y0360591D01*
X0161752Y0360833D01*
X0167784Y0360833D01*
X0167784Y0360645D01*
X0167158Y0360386D01*
X0165877Y0359105D01*
X0165184Y0357432D01*
X0165184Y0355621D01*
X0165877Y0353947D01*
X0167158Y0352667D01*
X0167784Y0352407D01*
X0167784Y0350645D01*
X0167158Y0350386D01*
X0165877Y0349105D01*
X0165184Y0347432D01*
X0165184Y0345621D01*
X0165877Y0343947D01*
X0167158Y0342667D01*
X0168831Y0341973D01*
X0170642Y0341973D01*
X0170643Y0341974D01*
X0175284Y0337333D01*
X0206284Y0337333D01*
X0245284Y0298333D01*
X0240531Y0303086D02*
X0219724Y0303086D01*
X0218107Y0304684D02*
X0238933Y0304684D01*
X0237334Y0306283D02*
X0216490Y0306283D01*
X0214873Y0307881D02*
X0235736Y0307881D01*
X0234137Y0309480D02*
X0213256Y0309480D01*
X0211639Y0311079D02*
X0232539Y0311079D01*
X0230940Y0312677D02*
X0210023Y0312677D01*
X0208406Y0314276D02*
X0229342Y0314276D01*
X0227743Y0315874D02*
X0206789Y0315874D01*
X0205172Y0317473D02*
X0226145Y0317473D01*
X0224546Y0319071D02*
X0203555Y0319071D01*
X0214955Y0328662D02*
X0163132Y0328662D01*
X0164698Y0327064D02*
X0216554Y0327064D01*
X0218152Y0325465D02*
X0166265Y0325465D01*
X0167831Y0323867D02*
X0219751Y0323867D01*
X0221349Y0322268D02*
X0169398Y0322268D01*
X0170964Y0320670D02*
X0222948Y0320670D01*
X0213357Y0330261D02*
X0161565Y0330261D01*
X0159999Y0331859D02*
X0211758Y0331859D01*
X0210160Y0333458D02*
X0158432Y0333458D01*
X0156866Y0335056D02*
X0208561Y0335056D01*
X0206963Y0336655D02*
X0155299Y0336655D01*
X0153732Y0338253D02*
X0174364Y0338253D01*
X0172766Y0339852D02*
X0152166Y0339852D01*
X0150599Y0341450D02*
X0171167Y0341450D01*
X0166776Y0343049D02*
X0162698Y0343049D01*
X0162316Y0342667D02*
X0163596Y0343947D01*
X0164289Y0345621D01*
X0164289Y0347432D01*
X0163596Y0349105D01*
X0162316Y0350386D01*
X0160642Y0351079D01*
X0158831Y0351079D01*
X0157158Y0350386D01*
X0155877Y0349105D01*
X0155184Y0347432D01*
X0155184Y0345621D01*
X0155877Y0343947D01*
X0157158Y0342667D01*
X0158831Y0341973D01*
X0160642Y0341973D01*
X0162316Y0342667D01*
X0163886Y0344647D02*
X0165587Y0344647D01*
X0165184Y0346246D02*
X0164289Y0346246D01*
X0164119Y0347844D02*
X0165355Y0347844D01*
X0166215Y0349443D02*
X0163259Y0349443D01*
X0160733Y0351041D02*
X0167784Y0351041D01*
X0167222Y0352640D02*
X0162473Y0352640D01*
X0162228Y0352461D02*
X0162833Y0352901D01*
X0163362Y0353430D01*
X0163802Y0354035D01*
X0164141Y0354702D01*
X0164372Y0355413D01*
X0164489Y0356152D01*
X0164489Y0356342D01*
X0159921Y0356342D01*
X0159921Y0351773D01*
X0160111Y0351773D01*
X0160850Y0351891D01*
X0161561Y0352122D01*
X0162228Y0352461D01*
X0159921Y0352640D02*
X0159552Y0352640D01*
X0159552Y0354238D02*
X0159921Y0354238D01*
X0159921Y0355837D02*
X0159552Y0355837D01*
X0157000Y0352640D02*
X0152473Y0352640D01*
X0152228Y0352461D02*
X0152833Y0352901D01*
X0153362Y0353430D01*
X0153802Y0354035D01*
X0154141Y0354702D01*
X0154372Y0355413D01*
X0154489Y0356152D01*
X0154489Y0356342D01*
X0149921Y0356342D01*
X0149921Y0351773D01*
X0150111Y0351773D01*
X0150850Y0351891D01*
X0151561Y0352122D01*
X0152228Y0352461D01*
X0153390Y0351041D02*
X0158740Y0351041D01*
X0156215Y0349443D02*
X0154289Y0349443D01*
X0154289Y0347844D02*
X0155355Y0347844D01*
X0155184Y0346246D02*
X0154289Y0346246D01*
X0154289Y0344647D02*
X0155587Y0344647D01*
X0156776Y0343049D02*
X0154289Y0343049D01*
X0149921Y0352640D02*
X0149552Y0352640D01*
X0149552Y0354238D02*
X0149921Y0354238D01*
X0149921Y0355837D02*
X0149552Y0355837D01*
X0153905Y0354238D02*
X0155568Y0354238D01*
X0155034Y0355837D02*
X0154440Y0355837D01*
X0154405Y0357435D02*
X0155069Y0357435D01*
X0155684Y0359034D02*
X0153790Y0359034D01*
X0152147Y0360632D02*
X0157327Y0360632D01*
X0162147Y0360632D02*
X0167753Y0360632D01*
X0165848Y0359034D02*
X0163790Y0359034D01*
X0164405Y0357435D02*
X0165185Y0357435D01*
X0165184Y0355837D02*
X0164440Y0355837D01*
X0163905Y0354238D02*
X0165757Y0354238D01*
X0224574Y0298290D02*
X0271784Y0298290D01*
X0271784Y0296692D02*
X0226191Y0296692D01*
X0227808Y0295093D02*
X0271784Y0295093D01*
X0271784Y0293495D02*
X0229425Y0293495D01*
X0231042Y0291896D02*
X0271784Y0291896D01*
X0271784Y0290298D02*
X0232659Y0290298D01*
X0234276Y0288699D02*
X0271784Y0288699D01*
X0271784Y0287101D02*
X0235893Y0287101D01*
X0237510Y0285502D02*
X0271784Y0285502D01*
X0271784Y0283904D02*
X0239126Y0283904D01*
X0240743Y0282305D02*
X0271784Y0282305D01*
X0271784Y0280707D02*
X0242360Y0280707D01*
X0243977Y0279108D02*
X0261051Y0279108D01*
X0261017Y0279089D02*
X0260682Y0278754D01*
X0260445Y0278343D01*
X0260323Y0277885D01*
X0260323Y0273108D01*
X0264497Y0273108D01*
X0264497Y0271559D01*
X0260323Y0271559D01*
X0260323Y0266781D01*
X0260445Y0266324D01*
X0260584Y0266083D01*
X0260445Y0265843D01*
X0260323Y0265385D01*
X0260323Y0260608D01*
X0264497Y0260608D01*
X0264497Y0259059D01*
X0260323Y0259059D01*
X0260323Y0254281D01*
X0260445Y0253824D01*
X0260682Y0253413D01*
X0261017Y0253078D01*
X0261428Y0252841D01*
X0261886Y0252718D01*
X0264497Y0252718D01*
X0264497Y0259058D01*
X0266047Y0259058D01*
X0266047Y0252718D01*
X0268659Y0252718D01*
X0269117Y0252841D01*
X0269527Y0253078D01*
X0269862Y0253413D01*
X0270099Y0253824D01*
X0270222Y0254281D01*
X0270222Y0259059D01*
X0266047Y0259059D01*
X0266047Y0260608D01*
X0270222Y0260608D01*
X0270222Y0265385D01*
X0270099Y0265843D01*
X0269960Y0266083D01*
X0270099Y0266324D01*
X0270222Y0266781D01*
X0270222Y0271559D01*
X0266047Y0271559D01*
X0266047Y0273108D01*
X0270222Y0273108D01*
X0270222Y0277885D01*
X0270099Y0278343D01*
X0269862Y0278754D01*
X0269527Y0279089D01*
X0269117Y0279326D01*
X0268659Y0279448D01*
X0266047Y0279448D01*
X0266047Y0273108D01*
X0264497Y0273108D01*
X0264497Y0279448D01*
X0261886Y0279448D01*
X0261428Y0279326D01*
X0261017Y0279089D01*
X0260323Y0277510D02*
X0245594Y0277510D01*
X0249045Y0275911D02*
X0250004Y0275911D01*
X0250004Y0274313D02*
X0249045Y0274313D01*
X0250004Y0272714D02*
X0264497Y0272714D01*
X0264497Y0271558D02*
X0266047Y0271558D01*
X0266047Y0265218D01*
X0266047Y0260608D01*
X0264497Y0260608D01*
X0264497Y0271558D01*
X0264497Y0271116D02*
X0266047Y0271116D01*
X0266047Y0272714D02*
X0271546Y0272714D01*
X0271546Y0271116D02*
X0270222Y0271116D01*
X0270222Y0269517D02*
X0271546Y0269517D01*
X0271546Y0267919D02*
X0270222Y0267919D01*
X0270097Y0266320D02*
X0271582Y0266320D01*
X0271546Y0264722D02*
X0270222Y0264722D01*
X0270222Y0263123D02*
X0271546Y0263123D01*
X0271546Y0261525D02*
X0270222Y0261525D01*
X0271546Y0259926D02*
X0266047Y0259926D01*
X0264497Y0259926D02*
X0252691Y0259926D01*
X0251093Y0261525D02*
X0260323Y0261525D01*
X0260323Y0263123D02*
X0249494Y0263123D01*
X0247896Y0264722D02*
X0260323Y0264722D01*
X0260447Y0266320D02*
X0246784Y0266320D01*
X0249045Y0267919D02*
X0250004Y0267919D01*
X0250004Y0267581D02*
X0252320Y0267581D01*
X0252778Y0267703D01*
X0253188Y0267940D01*
X0253524Y0268275D01*
X0253760Y0268686D01*
X0253883Y0269144D01*
X0253883Y0271854D01*
X0250004Y0271854D01*
X0250004Y0267581D01*
X0250004Y0269517D02*
X0249045Y0269517D01*
X0249045Y0271116D02*
X0250004Y0271116D01*
X0253883Y0271116D02*
X0260323Y0271116D01*
X0260323Y0269517D02*
X0253883Y0269517D01*
X0253151Y0267919D02*
X0260323Y0267919D01*
X0264497Y0267919D02*
X0266047Y0267919D01*
X0266047Y0269517D02*
X0264497Y0269517D01*
X0264497Y0266320D02*
X0266047Y0266320D01*
X0266047Y0264722D02*
X0264497Y0264722D01*
X0264497Y0263123D02*
X0266047Y0263123D01*
X0266047Y0261525D02*
X0264497Y0261525D01*
X0264497Y0258328D02*
X0266047Y0258328D01*
X0266047Y0256729D02*
X0264497Y0256729D01*
X0264497Y0255131D02*
X0266047Y0255131D01*
X0266047Y0253532D02*
X0264497Y0253532D01*
X0260613Y0253532D02*
X0259085Y0253532D01*
X0260323Y0255131D02*
X0257487Y0255131D01*
X0255888Y0256729D02*
X0260323Y0256729D01*
X0260323Y0258328D02*
X0254290Y0258328D01*
X0260684Y0251934D02*
X0269884Y0251934D01*
X0269931Y0253532D02*
X0271483Y0253532D01*
X0271546Y0255131D02*
X0270222Y0255131D01*
X0270222Y0256729D02*
X0271546Y0256729D01*
X0271546Y0258328D02*
X0270222Y0258328D01*
X0280589Y0247138D02*
X0282397Y0247138D01*
X0282397Y0248039D02*
X0282397Y0246018D01*
X0286769Y0246018D01*
X0286769Y0249602D01*
X0283960Y0249602D01*
X0283503Y0249479D01*
X0283092Y0249242D01*
X0282757Y0248907D01*
X0282520Y0248497D01*
X0282397Y0248039D01*
X0282187Y0248737D02*
X0282659Y0248737D01*
X0283786Y0250335D02*
X0287284Y0250335D01*
X0287284Y0249602D02*
X0287138Y0249602D01*
X0287138Y0246018D01*
X0286769Y0246018D01*
X0286769Y0245649D01*
X0287138Y0245649D01*
X0287138Y0242065D01*
X0287284Y0242065D01*
X0287284Y0241333D01*
X0269784Y0223833D01*
X0255284Y0223833D01*
X0253284Y0225833D01*
X0253284Y0234833D01*
X0258284Y0239833D01*
X0273284Y0239833D01*
X0286284Y0252833D01*
X0287284Y0252833D01*
X0287284Y0249602D01*
X0287138Y0248737D02*
X0286769Y0248737D01*
X0286769Y0247138D02*
X0287138Y0247138D01*
X0286769Y0245649D02*
X0282397Y0245649D01*
X0282397Y0243628D01*
X0282520Y0243170D01*
X0282757Y0242760D01*
X0283092Y0242424D01*
X0283503Y0242187D01*
X0283960Y0242065D01*
X0286769Y0242065D01*
X0286769Y0245649D01*
X0286769Y0245540D02*
X0287138Y0245540D01*
X0287138Y0243941D02*
X0286769Y0243941D01*
X0286769Y0242343D02*
X0287138Y0242343D01*
X0286695Y0240744D02*
X0274195Y0240744D01*
X0275793Y0242343D02*
X0283234Y0242343D01*
X0282397Y0243941D02*
X0277392Y0243941D01*
X0278990Y0245540D02*
X0282397Y0245540D01*
X0285096Y0239145D02*
X0257596Y0239145D01*
X0257047Y0237633D02*
X0256589Y0237511D01*
X0256179Y0237274D01*
X0255844Y0236939D01*
X0255607Y0236528D01*
X0255484Y0236070D01*
X0255484Y0231933D01*
X0261184Y0231933D01*
X0261184Y0230733D01*
X0262384Y0230733D01*
X0262384Y0225033D01*
X0266521Y0225033D01*
X0266979Y0225156D01*
X0267389Y0225393D01*
X0267724Y0225728D01*
X0267961Y0226139D01*
X0268084Y0226596D01*
X0268084Y0230733D01*
X0262384Y0230733D01*
X0262384Y0231933D01*
X0268084Y0231933D01*
X0268084Y0236070D01*
X0267961Y0236528D01*
X0267724Y0236939D01*
X0267389Y0237274D01*
X0266979Y0237511D01*
X0266521Y0237633D01*
X0262384Y0237633D01*
X0262384Y0231933D01*
X0261184Y0231933D01*
X0261184Y0237633D01*
X0257047Y0237633D01*
X0256725Y0237547D02*
X0255998Y0237547D01*
X0255484Y0235948D02*
X0254399Y0235948D01*
X0255484Y0234350D02*
X0253284Y0234350D01*
X0253284Y0232751D02*
X0255484Y0232751D01*
X0255484Y0230733D02*
X0255484Y0226596D01*
X0255607Y0226139D01*
X0255844Y0225728D01*
X0256179Y0225393D01*
X0256589Y0225156D01*
X0257047Y0225033D01*
X0261184Y0225033D01*
X0261184Y0230733D01*
X0255484Y0230733D01*
X0255484Y0229554D02*
X0253284Y0229554D01*
X0253284Y0227956D02*
X0255484Y0227956D01*
X0255548Y0226357D02*
X0253284Y0226357D01*
X0254358Y0224759D02*
X0270710Y0224759D01*
X0272308Y0226357D02*
X0268020Y0226357D01*
X0268084Y0227956D02*
X0273907Y0227956D01*
X0275505Y0229554D02*
X0268084Y0229554D01*
X0268084Y0232751D02*
X0278702Y0232751D01*
X0277104Y0231153D02*
X0262384Y0231153D01*
X0261184Y0231153D02*
X0253284Y0231153D01*
X0261184Y0232751D02*
X0262384Y0232751D01*
X0262384Y0234350D02*
X0261184Y0234350D01*
X0261184Y0235948D02*
X0262384Y0235948D01*
X0262384Y0237547D02*
X0261184Y0237547D01*
X0266843Y0237547D02*
X0283498Y0237547D01*
X0281899Y0235948D02*
X0268084Y0235948D01*
X0268084Y0234350D02*
X0280301Y0234350D01*
X0291059Y0249758D02*
X0295430Y0249758D01*
X0295430Y0253342D01*
X0292622Y0253342D01*
X0292164Y0253219D01*
X0291754Y0252982D01*
X0291418Y0252647D01*
X0291181Y0252237D01*
X0291059Y0251779D01*
X0291059Y0249758D01*
X0291059Y0250335D02*
X0290784Y0250335D01*
X0290784Y0251934D02*
X0291100Y0251934D01*
X0290784Y0253532D02*
X0303784Y0253532D01*
X0303784Y0251934D02*
X0300129Y0251934D01*
X0300171Y0251779D02*
X0300048Y0252237D01*
X0299811Y0252647D01*
X0299476Y0252982D01*
X0299065Y0253219D01*
X0298608Y0253342D01*
X0295799Y0253342D01*
X0295799Y0249758D01*
X0300171Y0249758D01*
X0300171Y0251779D01*
X0300171Y0250335D02*
X0303784Y0250335D01*
X0295799Y0250335D02*
X0295430Y0250335D01*
X0295430Y0251934D02*
X0295799Y0251934D01*
X0290784Y0255131D02*
X0303784Y0255131D01*
X0303784Y0256729D02*
X0290784Y0256729D01*
X0291778Y0258328D02*
X0303784Y0258328D01*
X0303784Y0259926D02*
X0302288Y0259926D01*
X0302140Y0259841D02*
X0302551Y0260078D01*
X0302886Y0260413D01*
X0303123Y0260824D01*
X0303245Y0261281D01*
X0303245Y0266059D01*
X0299071Y0266059D01*
X0299071Y0266058D02*
X0299071Y0259718D01*
X0301682Y0259718D01*
X0302140Y0259841D01*
X0303245Y0261525D02*
X0303784Y0261525D01*
X0303784Y0263123D02*
X0303245Y0263123D01*
X0303245Y0264722D02*
X0303784Y0264722D01*
X0303784Y0266320D02*
X0299071Y0266320D01*
X0299071Y0267608D02*
X0297521Y0267608D01*
X0297521Y0273581D01*
X0298564Y0273581D01*
X0298564Y0277854D01*
X0299523Y0277854D01*
X0299523Y0273948D01*
X0299071Y0273948D01*
X0299071Y0267608D01*
X0299071Y0267919D02*
X0297521Y0267919D01*
X0297521Y0269517D02*
X0299071Y0269517D01*
X0299071Y0271116D02*
X0297521Y0271116D01*
X0297521Y0272714D02*
X0299071Y0272714D01*
X0299523Y0274313D02*
X0298564Y0274313D01*
X0298564Y0275911D02*
X0299523Y0275911D01*
X0300284Y0275833D02*
X0302284Y0273833D01*
X0303284Y0273833D01*
X0302284Y0273833D02*
X0294784Y0273833D01*
X0295023Y0274313D02*
X0292784Y0274313D01*
X0292784Y0275911D02*
X0294685Y0275911D01*
X0294685Y0277510D02*
X0292784Y0277510D01*
X0292784Y0279108D02*
X0294685Y0279108D01*
X0294685Y0280707D02*
X0292784Y0280707D01*
X0296065Y0283904D02*
X0300284Y0283904D01*
X0300284Y0285502D02*
X0296065Y0285502D01*
X0296065Y0287101D02*
X0300284Y0287101D01*
X0300284Y0288699D02*
X0296065Y0288699D01*
X0296065Y0290298D02*
X0300284Y0290298D01*
X0300284Y0291896D02*
X0296065Y0291896D01*
X0295784Y0293495D02*
X0300284Y0293495D01*
X0300284Y0295093D02*
X0295784Y0295093D01*
X0298564Y0282305D02*
X0299523Y0282305D01*
X0299523Y0280707D02*
X0298564Y0280707D01*
X0298564Y0279108D02*
X0299523Y0279108D01*
X0299523Y0277510D02*
X0298564Y0277510D01*
X0303157Y0272714D02*
X0303784Y0272714D01*
X0303784Y0271116D02*
X0303245Y0271116D01*
X0303245Y0269517D02*
X0303784Y0269517D01*
X0303784Y0267919D02*
X0303245Y0267919D01*
X0299071Y0264722D02*
X0297521Y0264722D01*
X0297521Y0266320D02*
X0292784Y0266320D01*
X0292784Y0264722D02*
X0293346Y0264722D01*
X0293346Y0263123D02*
X0292784Y0263123D01*
X0292784Y0261525D02*
X0293346Y0261525D01*
X0292784Y0259926D02*
X0294304Y0259926D01*
X0297521Y0259926D02*
X0299071Y0259926D01*
X0299071Y0261525D02*
X0297521Y0261525D01*
X0297521Y0263123D02*
X0299071Y0263123D01*
X0293346Y0267919D02*
X0292784Y0267919D01*
X0292784Y0269517D02*
X0293346Y0269517D01*
X0293346Y0271116D02*
X0292784Y0271116D01*
X0292784Y0272714D02*
X0293434Y0272714D01*
X0287284Y0251934D02*
X0285384Y0251934D01*
X0271546Y0274313D02*
X0270222Y0274313D01*
X0270222Y0275911D02*
X0271546Y0275911D01*
X0271546Y0277510D02*
X0270222Y0277510D01*
X0269493Y0279108D02*
X0271784Y0279108D01*
X0266047Y0279108D02*
X0264497Y0279108D01*
X0264497Y0277510D02*
X0266047Y0277510D01*
X0266047Y0275911D02*
X0264497Y0275911D01*
X0264497Y0274313D02*
X0266047Y0274313D01*
X0260323Y0274313D02*
X0253883Y0274313D01*
X0253779Y0275911D02*
X0260323Y0275911D01*
X0213034Y0231153D02*
X0198464Y0231153D01*
X0196866Y0232751D02*
X0211423Y0232751D01*
X0209813Y0234350D02*
X0195267Y0234350D01*
X0194784Y0234833D02*
X0195284Y0250333D01*
X0192284Y0252833D01*
X0192284Y0260354D01*
X0193004Y0260354D01*
X0193004Y0261313D01*
X0196883Y0261313D01*
X0196883Y0264023D01*
X0196760Y0264481D01*
X0196524Y0264891D01*
X0196188Y0265226D01*
X0195778Y0265463D01*
X0195320Y0265586D01*
X0193004Y0265586D01*
X0193004Y0261313D01*
X0192284Y0261313D01*
X0192284Y0268833D01*
X0203784Y0268833D01*
X0203784Y0265586D01*
X0203523Y0265586D01*
X0203523Y0261313D01*
X0202564Y0261313D01*
X0202564Y0260354D01*
X0198685Y0260354D01*
X0198685Y0257644D01*
X0198807Y0257186D01*
X0199044Y0256775D01*
X0199380Y0256440D01*
X0199790Y0256203D01*
X0200248Y0256081D01*
X0202564Y0256081D01*
X0202564Y0260354D01*
X0203523Y0260354D01*
X0203523Y0256081D01*
X0203784Y0256081D01*
X0203784Y0240333D01*
X0270284Y0174333D01*
X0270284Y0156333D01*
X0268084Y0156333D01*
X0268084Y0157733D01*
X0262384Y0157733D01*
X0262384Y0158933D01*
X0268084Y0158933D01*
X0268084Y0163070D01*
X0267961Y0163528D01*
X0267724Y0163939D01*
X0267389Y0164274D01*
X0266979Y0164511D01*
X0266521Y0164633D01*
X0262384Y0164633D01*
X0262384Y0158933D01*
X0261184Y0158933D01*
X0261184Y0157733D01*
X0255484Y0157733D01*
X0255484Y0156333D01*
X0253284Y0156333D01*
X0253284Y0176333D01*
X0194784Y0234833D01*
X0194820Y0235948D02*
X0208202Y0235948D01*
X0206591Y0237547D02*
X0194871Y0237547D01*
X0194923Y0239145D02*
X0204981Y0239145D01*
X0203784Y0240744D02*
X0194975Y0240744D01*
X0195026Y0242343D02*
X0203784Y0242343D01*
X0203784Y0243941D02*
X0195078Y0243941D01*
X0195129Y0245540D02*
X0203784Y0245540D01*
X0203784Y0247138D02*
X0195181Y0247138D01*
X0195232Y0248737D02*
X0203784Y0248737D01*
X0203784Y0250335D02*
X0195282Y0250335D01*
X0193364Y0251934D02*
X0203784Y0251934D01*
X0203784Y0253532D02*
X0192284Y0253532D01*
X0192284Y0255131D02*
X0203784Y0255131D01*
X0203523Y0256729D02*
X0202564Y0256729D01*
X0202564Y0258328D02*
X0203523Y0258328D01*
X0203523Y0259926D02*
X0202564Y0259926D01*
X0202564Y0261313D02*
X0198685Y0261313D01*
X0198685Y0264023D01*
X0198807Y0264481D01*
X0199044Y0264891D01*
X0199380Y0265226D01*
X0199790Y0265463D01*
X0200248Y0265586D01*
X0202564Y0265586D01*
X0202564Y0261313D01*
X0202564Y0261525D02*
X0203523Y0261525D01*
X0203523Y0263123D02*
X0202564Y0263123D01*
X0202564Y0264722D02*
X0203523Y0264722D01*
X0203784Y0266320D02*
X0192284Y0266320D01*
X0192284Y0264722D02*
X0193004Y0264722D01*
X0193004Y0263123D02*
X0192284Y0263123D01*
X0192284Y0261525D02*
X0193004Y0261525D01*
X0193004Y0260354D02*
X0196883Y0260354D01*
X0196883Y0257644D01*
X0196760Y0257186D01*
X0196524Y0256775D01*
X0196188Y0256440D01*
X0195778Y0256203D01*
X0195320Y0256081D01*
X0193004Y0256081D01*
X0193004Y0260354D01*
X0193004Y0259926D02*
X0192284Y0259926D01*
X0192284Y0258328D02*
X0193004Y0258328D01*
X0193004Y0256729D02*
X0192284Y0256729D01*
X0196477Y0256729D02*
X0199091Y0256729D01*
X0198685Y0258328D02*
X0196883Y0258328D01*
X0196883Y0259926D02*
X0198685Y0259926D01*
X0198685Y0261525D02*
X0196883Y0261525D01*
X0196883Y0263123D02*
X0198685Y0263123D01*
X0198946Y0264722D02*
X0196621Y0264722D01*
X0192284Y0267919D02*
X0203784Y0267919D01*
X0186284Y0267919D02*
X0176284Y0267919D01*
X0176284Y0269517D02*
X0186284Y0269517D01*
X0186284Y0270833D02*
X0186284Y0265586D01*
X0185523Y0265586D01*
X0185523Y0261313D01*
X0184564Y0261313D01*
X0184564Y0260354D01*
X0180685Y0260354D01*
X0180685Y0257644D01*
X0180807Y0257186D01*
X0181044Y0256775D01*
X0181380Y0256440D01*
X0181790Y0256203D01*
X0182248Y0256081D01*
X0184564Y0256081D01*
X0184564Y0260354D01*
X0185523Y0260354D01*
X0185523Y0256081D01*
X0186284Y0256081D01*
X0186284Y0254833D01*
X0191784Y0249333D01*
X0191784Y0242333D01*
X0187284Y0237833D01*
X0180784Y0237833D01*
X0176284Y0242333D01*
X0176284Y0270833D01*
X0186284Y0270833D01*
X0186284Y0266320D02*
X0176284Y0266320D01*
X0176284Y0264722D02*
X0180946Y0264722D01*
X0181044Y0264891D02*
X0180807Y0264481D01*
X0180685Y0264023D01*
X0180685Y0261313D01*
X0184564Y0261313D01*
X0184564Y0265586D01*
X0182248Y0265586D01*
X0181790Y0265463D01*
X0181380Y0265226D01*
X0181044Y0264891D01*
X0180685Y0263123D02*
X0176284Y0263123D01*
X0176284Y0261525D02*
X0180685Y0261525D01*
X0180685Y0259926D02*
X0176284Y0259926D01*
X0176284Y0258328D02*
X0180685Y0258328D01*
X0181091Y0256729D02*
X0176284Y0256729D01*
X0176284Y0255131D02*
X0186284Y0255131D01*
X0185523Y0256729D02*
X0184564Y0256729D01*
X0184564Y0258328D02*
X0185523Y0258328D01*
X0185523Y0259926D02*
X0184564Y0259926D01*
X0184564Y0261525D02*
X0185523Y0261525D01*
X0185523Y0263123D02*
X0184564Y0263123D01*
X0184564Y0264722D02*
X0185523Y0264722D01*
X0187585Y0253532D02*
X0176284Y0253532D01*
X0176284Y0251934D02*
X0180750Y0251934D01*
X0180359Y0251708D02*
X0179626Y0251145D01*
X0178972Y0250492D01*
X0178410Y0249759D01*
X0177947Y0248958D01*
X0177594Y0248104D01*
X0177355Y0247212D01*
X0177278Y0246633D01*
X0183484Y0246633D01*
X0183484Y0245033D01*
X0185084Y0245033D01*
X0185084Y0238828D01*
X0185662Y0238904D01*
X0186555Y0239143D01*
X0187409Y0239497D01*
X0188209Y0239959D01*
X0188942Y0240521D01*
X0189596Y0241175D01*
X0190158Y0241908D01*
X0190620Y0242709D01*
X0190974Y0243562D01*
X0191213Y0244455D01*
X0191289Y0245033D01*
X0185084Y0245033D01*
X0185084Y0246633D01*
X0191289Y0246633D01*
X0191213Y0247212D01*
X0190974Y0248104D01*
X0190620Y0248958D01*
X0190158Y0249759D01*
X0189596Y0250492D01*
X0188942Y0251145D01*
X0188209Y0251708D01*
X0187409Y0252170D01*
X0186555Y0252523D01*
X0185662Y0252763D01*
X0185084Y0252839D01*
X0185084Y0246633D01*
X0183484Y0246633D01*
X0183484Y0252839D01*
X0182906Y0252763D01*
X0182013Y0252523D01*
X0181159Y0252170D01*
X0180359Y0251708D01*
X0178852Y0250335D02*
X0176284Y0250335D01*
X0176284Y0248737D02*
X0177856Y0248737D01*
X0177345Y0247138D02*
X0176284Y0247138D01*
X0176284Y0245540D02*
X0183484Y0245540D01*
X0183484Y0245033D02*
X0177278Y0245033D01*
X0177355Y0244455D01*
X0177594Y0243562D01*
X0177947Y0242709D01*
X0178410Y0241908D01*
X0178972Y0241175D01*
X0179626Y0240521D01*
X0180359Y0239959D01*
X0181159Y0239497D01*
X0182013Y0239143D01*
X0182906Y0238904D01*
X0183484Y0238828D01*
X0183484Y0245033D01*
X0183484Y0243941D02*
X0185084Y0243941D01*
X0185084Y0242343D02*
X0183484Y0242343D01*
X0183484Y0240744D02*
X0185084Y0240744D01*
X0185084Y0239145D02*
X0183484Y0239145D01*
X0182007Y0239145D02*
X0179472Y0239145D01*
X0179403Y0240744D02*
X0177873Y0240744D01*
X0178159Y0242343D02*
X0176284Y0242343D01*
X0176284Y0243941D02*
X0177492Y0243941D01*
X0183484Y0247138D02*
X0185084Y0247138D01*
X0185084Y0245540D02*
X0191784Y0245540D01*
X0191784Y0247138D02*
X0191223Y0247138D01*
X0190712Y0248737D02*
X0191784Y0248737D01*
X0190782Y0250335D02*
X0189716Y0250335D01*
X0189184Y0251934D02*
X0187818Y0251934D01*
X0185084Y0251934D02*
X0183484Y0251934D01*
X0183484Y0250335D02*
X0185084Y0250335D01*
X0185084Y0248737D02*
X0183484Y0248737D01*
X0191076Y0243941D02*
X0191784Y0243941D01*
X0191784Y0242343D02*
X0190409Y0242343D01*
X0190195Y0240744D02*
X0189165Y0240744D01*
X0188596Y0239145D02*
X0186561Y0239145D01*
X0200063Y0229554D02*
X0214645Y0229554D01*
X0216255Y0227956D02*
X0201661Y0227956D01*
X0203260Y0226357D02*
X0217866Y0226357D01*
X0219476Y0224759D02*
X0204858Y0224759D01*
X0206457Y0223160D02*
X0221087Y0223160D01*
X0222698Y0221562D02*
X0208055Y0221562D01*
X0209654Y0219963D02*
X0224308Y0219963D01*
X0225919Y0218365D02*
X0211252Y0218365D01*
X0212851Y0216766D02*
X0227529Y0216766D01*
X0229140Y0215168D02*
X0214449Y0215168D01*
X0216048Y0213569D02*
X0230751Y0213569D01*
X0232361Y0211971D02*
X0217646Y0211971D01*
X0219245Y0210372D02*
X0233972Y0210372D01*
X0235583Y0208774D02*
X0220844Y0208774D01*
X0222442Y0207175D02*
X0237193Y0207175D01*
X0238804Y0205577D02*
X0224041Y0205577D01*
X0225639Y0203978D02*
X0240414Y0203978D01*
X0242025Y0202380D02*
X0227238Y0202380D01*
X0228836Y0200781D02*
X0243636Y0200781D01*
X0245246Y0199183D02*
X0230435Y0199183D01*
X0232033Y0197584D02*
X0246857Y0197584D01*
X0248468Y0195986D02*
X0233632Y0195986D01*
X0235230Y0194387D02*
X0250078Y0194387D01*
X0251689Y0192789D02*
X0236829Y0192789D01*
X0238427Y0191190D02*
X0253299Y0191190D01*
X0254910Y0189592D02*
X0240026Y0189592D01*
X0241624Y0187993D02*
X0256521Y0187993D01*
X0258131Y0186395D02*
X0243223Y0186395D01*
X0244821Y0184796D02*
X0259742Y0184796D01*
X0261353Y0183198D02*
X0246420Y0183198D01*
X0248018Y0181599D02*
X0262963Y0181599D01*
X0264574Y0180001D02*
X0249617Y0180001D01*
X0251215Y0178402D02*
X0266184Y0178402D01*
X0267795Y0176804D02*
X0252814Y0176804D01*
X0253284Y0175205D02*
X0269406Y0175205D01*
X0270284Y0173607D02*
X0253284Y0173607D01*
X0253284Y0172008D02*
X0270284Y0172008D01*
X0270284Y0170410D02*
X0253284Y0170410D01*
X0253284Y0168811D02*
X0270284Y0168811D01*
X0270284Y0167212D02*
X0253284Y0167212D01*
X0253284Y0165614D02*
X0270284Y0165614D01*
X0270284Y0164015D02*
X0267647Y0164015D01*
X0268084Y0162417D02*
X0270284Y0162417D01*
X0270284Y0160818D02*
X0268084Y0160818D01*
X0268084Y0159220D02*
X0270284Y0159220D01*
X0270284Y0157621D02*
X0268084Y0157621D01*
X0262384Y0159220D02*
X0261184Y0159220D01*
X0261184Y0158933D02*
X0261184Y0164633D01*
X0257047Y0164633D01*
X0256589Y0164511D01*
X0256179Y0164274D01*
X0255844Y0163939D01*
X0255607Y0163528D01*
X0255484Y0163070D01*
X0255484Y0158933D01*
X0261184Y0158933D01*
X0261184Y0160818D02*
X0262384Y0160818D01*
X0262384Y0162417D02*
X0261184Y0162417D01*
X0261184Y0164015D02*
X0262384Y0164015D01*
X0255921Y0164015D02*
X0253284Y0164015D01*
X0253284Y0162417D02*
X0255484Y0162417D01*
X0255484Y0160818D02*
X0253284Y0160818D01*
X0253284Y0159220D02*
X0255484Y0159220D01*
X0255484Y0157621D02*
X0253284Y0157621D01*
X0261184Y0226357D02*
X0262384Y0226357D01*
X0262384Y0227956D02*
X0261184Y0227956D01*
X0261184Y0229554D02*
X0262384Y0229554D01*
D28*
X0163142Y0224983D02*
X0163142Y0193684D01*
X0163142Y0224983D02*
X0154284Y0233841D01*
X0154284Y0294833D01*
X0154284Y0314833D02*
X0144284Y0314833D01*
X0144284Y0273333D01*
X0145426Y0272192D01*
X0145426Y0265983D01*
X0145426Y0234684D01*
X0144284Y0314833D02*
X0144284Y0359333D01*
X0147784Y0362833D01*
X0243430Y0362833D01*
X0249737Y0356526D01*
D29*
X0309784Y0287833D02*
X0311284Y0287833D01*
X0312524Y0286593D01*
X0317284Y0286593D01*
X0317284Y0277573D01*
M02*
