%
M48
M72
T01C0.02000
T02C0.03937
T03C0.05600
T04C0.07000
T05C0.10827
%
T01
X149284Y152333
X149284Y177333
X154284Y193833
X179284Y207333
X124284Y207333
X124284Y177333
X179284Y152333
X214284Y152333
X281784Y152333
X306784Y152333
X334284Y152333
X306784Y184833
X281784Y184833
X282284Y217333
X306784Y217333
X317284Y239833
X334284Y249833
X364284Y249833
X364284Y217333
X334284Y217333
X364284Y184833
X364284Y282333
X334284Y282333
X307784Y297333
X280284Y294333
X280284Y287333
X250284Y251333
X214284Y282333
X179284Y282333
X231284Y332833
X334284Y314833
X364284Y314833
T02
X339737Y346526
X329737Y346526
X319737Y346526
X309737Y346526
X309737Y356526
X319737Y356526
X329737Y356526
X339737Y356526
X299737Y356526
X289737Y356526
X279737Y356526
X269737Y356526
X259737Y356526
X249737Y356526
X249737Y346526
X259737Y346526
X269737Y346526
X279737Y346526
X289737Y346526
X299737Y346526
X239737Y346526
X229737Y346526
X219737Y346526
X209737Y346526
X199737Y346526
X189737Y346526
X189737Y356526
X199737Y356526
X209737Y356526
X219737Y356526
X229737Y356526
X239737Y356526
X179737Y356526
X169737Y356526
X159737Y356526
X149737Y356526
X149737Y346526
X159737Y346526
X169737Y346526
X179737Y346526
X154284Y324833
X154284Y314833
X154284Y304833
X154284Y294833
X171284Y183833
X228284Y183833
T03
X261784Y158333
X261784Y231333
T04
X215284Y245833
X184284Y245833
T05
X130563Y158613
X130563Y351526
X358910Y351526
X358910Y158613
M30
